<?xml version="1.0" encoding="UTF-8"?><svg id="Layer_1" xmlns="http://www.w3.org/2000/svg" viewBox="0 0 1440 1080"><defs><style>.cls-1{fill:#0f0f0f;}.cls-2{fill:#333;}.cls-3{fill:#171a1f;}</style></defs><polygon class="cls-1" points="-248.52 1574.38 -250.15 1568.75 -267.49 1508.91 -285.49 1446.8 -290.72 1428.74 -323.77 1314.69 -330.64 1290.98 -332.28 1285.34 -367.29 1164.52 -369.91 1155.48 -386.92 1096.77 -387.58 1094.51 -389.54 1087.74 -441.57 908.2 -509.96 672.21 -632.99 247.65 -650.01 188.94 -651.65 183.29 -654.26 174.26 -637.33 169.35 -631.68 167.72 -585.39 154.3 -576.35 151.68 -527.8 137.61 -522.15 135.98 -473.6 121.9 -466.83 119.94 -417.14 105.54 -411.5 103.91 -361.82 89.51 -356.17 87.87 -306.49 73.48 -300.84 71.84 -251.16 57.44 -245.51 55.81 -198.09 42.06 -192.44 40.43 -147.28 27.34 -138.25 24.72 -111.15 16.87 -105.5 15.23 -76.14 6.72 -70.5 5.09 -41.14 -3.42 -36.62 -4.73 -7.26 -13.24 -.49 -15.2 27.74 -23.38 32.26 -24.69 62.74 -33.53 68.39 -35.16 133.88 -54.14 140.65 -56.1 202.76 -74.1 209.53 -76.06 237.76 -84.24 243.4 -85.88 272.76 -94.39 278.41 -96.02 331.48 -111.4 337.12 -113.04 389.06 -128.09 401.48 -131.69 457.94 -148.05 463.59 -149.69 491.82 -157.87 496.33 -159.18 526.82 -168.01 532.47 -169.65 584.41 -184.7 590.05 -186.34 641.99 -201.39 647.64 -203.03 699.58 -218.08 705.22 -219.71 767.33 -237.71 782.01 -241.96 850.88 -261.92 856.53 -263.56 882.5 -271.09 889.27 -273.05 915.24 -280.58 919.76 -281.89 942.34 -288.43 946.86 -289.74 984.12 -300.54 994.28 -303.48 1081.23 -328.68 1115.1 -338.49 1220.11 -368.93 1226.89 -370.89 1275.44 -384.96 1282.22 -386.92 1342.06 -404.27 1351.09 -406.88 1405.29 -422.59 1410.94 -424.23 1433.52 -430.77 1652.57 -494.25 1754.67 -141.96 1762.19 -115.99 1774.3 -74.21 1806.37 36.45 1935.29 481.33 1942.16 505.04 1943.8 510.69 1990.59 672.15 1992.23 677.8 2026.91 797.49 2028.55 803.13 2042.62 851.69 2044.26 857.33 2056.69 900.24 2058.32 905.87 -248.52 1574.38"/><path class="cls-2" d="M1330.65,1110.64l-.7-2.43c-1.49-2.1-4.15-2.02-6.77-2.9-1.58,2.59-4.21,2.75-7.12,2.23-5.71-1.01-11.57-1.05-17.12-3.3-1.86-.75-4.32,.08-6.51,.04-5.8-.13-10.96-2.92-16.46-4.1-5.93-1.28-7.69-5.72-10.77-10.72-4.48-3.95-10.68-7.01-16.75-10.3-6.59-3.57-13.36-6.56-21.14-5.96-2.32-1.48-5.08-.34-7.66-1.19-.54,.42-.74,1.38-1.83,1.6-3.11,.63-4.93,3.13-6.78,5.35-1.83,2.18-2.14,8.49,.01,11.31,2.77,3.63,4.34,7.92,7.4,11.43,3.89,4.48,7.58,9.19,10.94,14.14,4.47,6.58,8.12,13.47,9.79,21.3l91.46-26.5Z"/><path class="cls-3" d="M2037.85,864.78l-38.39,11.13-17.19-59.32c23.25-6.73,35.76-10.41,46.29-13.45l-1.64-5.65c-6.6,2.15-17.33,3.06-24.03,5.74-10.74-39.4-24.72-77.65-35.17-117.1,9.12-1.91,16.03-5.71,24.51-8.33l-1.64-5.65-24.64,7.14c-12.84-38.99-24.55-77.75-35.34-117.3-5.75-31.01-31.03-44.2,13.19-51.31l-1.64-5.65-27.1,7.85c-9.23-33.14-19.32-65.74-29.73-98.35-3.85-3.58-30.12-18.04-37.75-20.88-1.22-11.9-13.81-26.73-4-36.62,89.49,41.9,60.6,41.83,91.7,124.29L1806.37,36.45c-13.55,3.68-27.45,6.14-40.83,10.61l-25.78-88.97c6.18-7.24,15.3-7.96,23.43-10.78-.28-1.74-.34-3.27-1.57-4.37-19.35,5-36.23,17.55-56.53,19.29-6.35-27.19-17.71-52.99-24.05-80.52l36.61-10.61c2.28-13.08-31.22,5.51-39.16,5.29-1.07-2.27-3.61-2.59-5.24-4.05,2.83-8.47,36.79-7.43,26.47-15.51-10.3,3.86-20.58,3.68-30.1,11.06-1.64,6.88-11.8,6.67-17.53,8.78-6.58,1.24-11.17,8.03-18,6.45-8.09-4.03-16.22,1.52-23.69,.33-8.88-16.14-6.98-57.9-18.47-63-2.91-5.4,1.34-8.14,4.95-11.31,.58-7.77-2.47-14.34,5.88-19.04-1.39-7.41-6.65-12.69-10.23-19.04,1.06-6.79-13.35-14.09-17.62-20.03,.18,7.66,10.23,12.1,15.6,17.27,.7,7.7,7.07,13.14,9.35,20.01-7.15,7.79-6.23,8.92-4.64,18.94-2.45,1.11-3.3,4.65-6.91,4.4-13.98-50.59-70.24-69.72-115.39-85.38-8.21-28.51-16.74-57.35-30.73-82.37,4.28,1.42,6.97,5.32,11.11,6.9,4.72,5.5,9.63,11.67,14.44,17.49,14.69-5.96-31.61-33.42-36.24-39.15-12.65-15.54-15.37-34.64-20.55-53.37l-5.65,1.64c1.93,22.68,15.19,48.93,29.09,67.32,18.39,23.38,21.45,53.72,31.6,80.44-33.39,2.76-59.43-18.42-74.74-46.69-20.27-25.7-33.32-53.34-40.15-85.36l-9.03,2.62c7.41,37.64,25.38,69.35,48.32,99.65,9.69,16.08,16.5,33.23,35.64,41,24.63,8.75,51.86,4.91,74.07,20.2-2.99,18.16-7.14,36.14-9.44,54.47-59.17-10.24-65.79-11.37-102.35-59.23-42.66-40.43-103.14-75.13-106.08-138.76l-6.77,1.96c7.82,59.75,42.06,82.18,83.81,119.54,31.4,18.64,46.81,66.44,82.24,71.93,17.51,6,41.18,3.97,54.67,16.88,18.72,24.58,17.9,61.25,32.09,89.05-23.08,4.7-47.35,18.12-69.47,19.36-.84-16.34-9.15-32.6-12.63-48.71-1.11-.32-1.72-1.39-3.46-.69,1.08,16.07,8.05,35.69,12.36,52.51l-66.62,19.31c-9.89-27.54-13.1-58.93-27.07-84.4-.11-5.03,8.65-25.87-2.31-17.99,1,5.29-.72,17.62-7.54,12.64l-61.38,17.79c-4.72-30.55-16.92-59.46-24.39-89.57l62.15-18.01c-.69-1.6-.54-3.08-1.8-4.23l-62.05,17.98c-14.7-51.74-39.52-104.66-37.14-159.34l-6.77,1.96c1.53,6.6,.31,13.08-.35,19.55-4.63,1.26-8.01,4.43-12.47,4.97-6.95,5.29-16.17,6.92-24.78,8.39-31.44-2.61-61.14,28.32-92.49,16.35,6.42-7.86,18.95-11.11,25.08-18.83l-33.87,9.82,.47,1.64c-19.03,17.76-58.08,7.39-65.87,36.92-.91,14.13,1.91,29.73-2.1,43.37-11.58-16.1-12.34-38.31-19.45-56.73l-10.16,2.94c8.32,19.72,10.07,41.84,21.36,60.09-10.88,5.91-23.84,11.92-33.74,20.67-16.42-18.38-16.23-47.26-24.88-69.96l-4.52,1.31c5.17,21.18,15.36,39.98,20.22,61.34-8.18,1.85-16.41,5.78-23.85,6.34-5.66-20.6-12.13-40.92-18.96-61.14l-4.52,1.31c5.96,20.34,13.49,39.91,18.8,60.65-8.93,2.03-17.67,6.23-26.14,6.94-5.81-20.19-13.28-39.68-18.63-60.06l-6.77,1.96c7.9,18.91,11.5,40.27,19.43,58.63-4.72,7.19-15.38,2.37-21.46-.33-18.38-7.82-14.02-35.43-23.95-50.78l-5.65,1.64c19.14,83.46,43.2,58.1,107.6,38.69,3.96-3.17,5.73-2.79,7.02,1.78,7.67,3.78-1.74,11.86-4.36,16.67-12.78,13.42-6.73,33.81-15.21,48.97-25.54-2.49-48.69-22.25-72.11-33.05-29.77-18.56-63.47-33.75-91.82-53.11l-14.68,4.25c25.24,13.28-16.63,10.87,7.98,79.99-68.99,22.23-39.03,26.95-70.08-61.99l-5.65,1.64c15.02,26.21-30.24,21.43-46.51,30.6-3.41-3.31-3.32-10.83-5.43-15.55l-5.65,1.64,4.54,15.68c-17.56,5.11-34.02,12.5-51.68,15.97l-4.81-16.59-5.65,1.64c14,27.47-30.38,22.84-47.06,31.88l-4.88-16.83-5.65,1.64c2.24,5.53,2.29,11.47,3.42,17.07l-30.34,8.79c-1.56-5.8-1.25-11.7-3.56-17.03l-4.52,1.31c-.5,6.05,2.65,11.39,3.49,16.82-16.86,8.52-29.54,14.65-31.72-8.64l-5.65,1.64c.82,6.1,5.96,13.09,3.63,18.4-22.39,7.19-50.01,14.93-55.03,15.43l-5.06-17.46-12.42,3.6c.64,6.03,7.79,12,4.67,18.23-16.8,4.87-33.67,9.76-50.55,14.64-3.63-4.14-3.72-12.33-6.07-17.82l-5.65,1.64,5.56,19.2c-17.85,2.47-34.8,10.12-52.41,13.43-1.64-6.05-3.44-11.78-6.22-17.25l-5.65,1.64,5.56,19.2c-20.44,4.55-31.34,17.32-34.92-10.69l-5.65,1.64,5.56,19.2c-20.34,4.79-30.13,16.35-33.79-11.01l-6.77,1.96,5.51,19c-17.16,5.75-57.22,17.07-62.22,17.61l-5.39-18.61-6.77,1.96,5.56,19.2c-21.68,7.21-43.01,14.22-65.19,20.03l-5.87-20.24-5.65,1.64,5.89,20.32c-25.13,4.14-29.89,22.09-36.38-11.49l-4.52,1.31L33.88-2.18,22.31,1.17c.35-2.58-1.82-3.3-2.88-5.07C14.45-2.44,10.18,1.27,4.31,1.35L-.49-15.2l-6.77,1.96L-1.08,8.11c-21.05,6.26-32.34,14.71-35.54-12.84l-4.52,1.31,5.89,20.32c-21.49,5.19-31.33,16.84-35.25-11.82l-5.65,1.64,6.22,21.45c-23.39,5.57-30.66,17.22-35.57-12.95l-5.65,1.64c11.74,27.02,4.13,22.43-20.1,28.29-2.19-6.64-5.43-13.29-6.99-20.43l-9.03,2.62,1.96,6.77c-15.41,4.43-29.94,8.76-45.18,13.04l-1.95-6.73-5.65,1.64,1.97,6.81c-16.29,3.91-31.01,11.6-47.21,14.5l-2.19-7.57-5.65,1.64,2.24,7.71c-16.4,5.47-44.84,13.46-49.79,14.01l-2.12-7.33-5.65,1.64,2.24,7.71c-16.4,5.47-44.84,13.46-49.79,14.01l-2.12-7.33-5.65,1.64,2.24,7.71c-16.4,5.47-44.84,13.46-49.79,14.01l-2.12-7.33-5.65,1.64,2.33,8.06-16.55,4.8c-.35,1.06,.55,1.84-.56,2.27-.45-.57-.89-1.13-1.52-1.92-1.99,1.2-4.92,.4-6.39,3.01-9.79-1.88-25.81,13.84-26.99-1.82l-6.77,1.96c8.37,12.11-6.21,10.69-14.55,12.77-10.57,.24-32.34,17.24-34,1.3l-5.65,1.64,2.24,7.71c-16.28,5.43-43.72,13.14-48.67,13.68l-2.12-7.33-9.03,2.62,2.35,8.12c-15.87,4.18-30.09,10.81-46.09,14.12l-2.56-8.83-5.65,1.64c6.43,11.66-6.13,11.01-14.32,13.94l1.64,5.65,16.74-4.85c5.71,17.05,16.09,53.81,16.63,58.83l-16.36,4.74,123.03,424.56c36.2-5.39,71.87-19.55,107.67-28.75l31.41,108.4c-7.55,2.59-15.12,3.28-21.87,7.53l22.45-6.51c3.66,12.16,6.39,23.7,11.37,35.01,3.5,4.94,6.81,10.69,8.54,16.78,.57-.41,1.63,.29,.96,.81-.55,.03-.9-.24-.96-.81-14.76,.57-18.17-13.39-20.98-25.5-9.1,.22,.64,9.81-1.56,15.01,3.03,11.05,16.86,16.5,27.68,16.66,23.01,32.73,27.77,71.92,30.94,110.35,15.34,71.95,43.41,64.15-26.71,84.45,70.92-13.14,39.59-20.9,67.23,55.72-17.17,3-32.34,10.13-49.29,14.46-2.4-33.57-23.91-67.34-25.23-99.1-18.97-12.18-15.04-87.38-52.3-75.16,4.47,8.36,19.71-1,21.95,16.79,12.13,27.75,22.65,57.61,31.43,87.36-7.63,.77-11.88,6.9-19.19,5.01-13.16-.51-29.19,.13-39.36,8.93,.49,.7,.7,.99,1.14,1.61,12.12-9.95,28.65-7.75,43.14-8.76,3.14,5.72,10.66-.44,15.79-.91,3.62,20.51,18.4,40.51,15.77,61.08-5.72-16.47-15.14-35.85-34.58-36.42-.53,.97-.91,1.65-1.35,2.46,.65,4.13,6.94,3.94,10.36,3.99,4.6,3.83,7.14,9.33,12.65,11.42,2.01,8.79,7.77,15.72,9.1,24.59-18.21,4.86-35.52,12.34-53.82,15.81l.65,2.26c18.68-4.01,39.28-14.1,57.06-15.04-6.51,9.03-14.47,17.3-19.75,27.51-27.94,17.75-24.34,12.57-18.16,45.62l-2.13,.62,2.62,9.03c7.49-10.62,2.01-23.56-.2-34.85,2.7-7.34,11.83-10.13,17.79-13.18,8.56-7.28,9.55-16.51,18.11-23.81,6.47,59.2,33.07,116.11,46.77,174.88-2.35,10.86-35.81,11.48-47.45,17.77l1.64,5.65c16.25-4.71,32.37-9.85,48.87-12.97,7.19,28.18,17.78,54.96,25.29,83.04-14.98,5.1-41.63,12.57-46.37,13.02-6.31-19.47-13.03-41.89-20.92-59.38l33.05,114.04c18.32,35.25,22.09,77.49,77.12,79.94,.41,3.57,5.96,19.98,8.74,11.55,.29,.11,.59,.21,.88,.32l-3.71-12.81c13.72-4.73,56.1-16.74,60.93-17.28l12.92,44.59,9.03-2.62-13.03-44.96c15.65-5.28,43.83-13.19,48.67-13.68l12.92,44.57,5.65-1.64c-4.43-15.32-10.7-29.15-14.3-45.11,16.9-3.24,31.86-11.48,48.38-14.66,4.28,15.73,10.42,29.97,14.47,45.7l5.65-1.64c-4.53-14.08-7.29-29.44-13.58-42.38,6.12-.15,17.87-9.33,19.23-1.48,.18-.32,.37-.65,.55-.97,1.1,1.13,2.2,2.25,3.36,3.44,5.41-6.24,11.9-10.28,17.25-15.5,2.59,.93,2.75,2.35,3.37,4.8,6.77,6.09,13.73,5.24,21.8,4.39,2.98,4.11,7.49,7.18,10.12,11.79-6.37,8.51-21.72,12.4-22.58,24.45l7.9-2.29-.63-2.16c27.54-19.31,63.18-40.28,44.43-79.14-5.58-22.5,10.64-45.98,2.22-68.78,1.03-25.34,27.75-38.8,29.09-63.82,8.32-62.81,19.16-60.76,60.53-102.03,32.67-30.36,83.67,8.52,93.8-55.15,5.86-17.23,11.54-38.31-1.12-53.12-22.89-18.78-58.29-111.33,.32-92.15,13.88,22.43,29.79,48.61,60.37,44.76,18.89,32.62,25.91-11.84,31.58-26.81,10.97,4.92,22.27,8.09,33.28,12.62-5.33,13.03-10.65,26.06-16.08,39.33,10.99,3.52,14-29.14,21.03-37.45,18.43,7.28,35.49,12.72,53.7,20.74-18.33,22.24-36,44.26-54.16,66.08-13.85-12.1-30.77-17.97-48.32-22.14-1.81,9.52,19.86,9.49,26.74,14.15,4.55,.95,21.93,10.91,16.12,14.68-19.87,25.13-39.57,50.94-60.21,75.52-16.98-10.03-32.61-28.37-29.65-49.31-9.6-4.6-5.14,12.55-3.79,17.1,4,15.25,16.93,26.59,28.87,35.87-4.55,11.26-17.02,15.57-22.84,26.34-43.59,16.16-92.39,22.62-134.55,41.15-24.33,21.05-14.57,56.02-25.91,83.13-9.95,19.25-29.25,30.59-43.19,46.22-8.87,77.03,14.56,60.82-54.87,112.42l19.2-5.56c7.03-11.16,27.22-17.39,33.51-32.16,14.07-19.44,.75-45.33,6.98-66.39,1.26-6.29,1.15-6.37,5.07-10.77,34.88-21.6,49.43-58.55,48.42-98.6,3.09-3.09,1.66-9.12,7.29-11.35,20.39,11.1,49.47,21.09,26.56,46.85-2.07,15.49,2.76,32.57,8.35,46.68-11.74,19.14-20.72,39.46-34.22,57.13-10.17-9.74-18.22-24.09-22.24-37.69,3.87-1.5,8.69,.2,12.25-2.88-3.48-7.21-15.02-1.84-18.72,2.73,6.58,15.53,14.82,31.25,26.28,43.78-6.97,13.25-15.18,25.73-20.48,39.77l13.55-3.93c7.01-19.61,10.31-28.7,24.84-7.2l6.77-1.96c-12.46-12.2-24.36-15.72-9.08-32.9,21.41-36.86,43.07-73.7,63.31-111.26,10.07,7.47,6.7,24.37,14.27,34.31,1.47,15.68-8.58,30.88-16.56,43.92q1.01,2.44,3.88,3.35c61.96-90.3-75.15-78.5,85.13-117.79l15.05,51.94c-18.37,6.47-38.85,7.92-56.45,15.8,14.6,8.46,45.15-12.42,65.12-11.92,7.02,13.59,3.14,46.05,24.74,34.18l1.93,6.67,1.71-.5c.6-3.36-2.56-4.83-3.12-7.29-4.47,.27-8.16,3.44-12.54,2.05-1.79-12.09-15.64-29.84,4.11-30.37,17-12.09,17.99,7.41,22.19,19.2,4.35-3.36-2.82-12.81-3.11-18.56,18.27-5.57,23.96-10.86,27.49,11.54l-5.56,1.61c2.55,4.75,.43,10.36,3.64,14.82,3.89-1.8-1.48-8.8-1.57-12.51,10.23-3.9,2.83-29.45-8.51-22.54-.5,1.84-1.81,2.25-3.56,1.76-1.61-4.27-2.29-8.86-4.11-12.96-4.55,1.97,1.59,9.71,1.71,14.09-3.77-1.14-6.72,1.46-9.99,1.54-2.14-3.72-6.34-2.82-9.69-5.24-4.23,6.31-13.03,3.62-18.43,8.62-3.96,2.89-3.59-4.86-4.85-7.09,29.39-10.57,59.93-16.88,89.01-28.24,16.16-4.68,32.33-9.37,48.15-13.95,5.13,4.86,6.1,11.7,8.67,17.95,.85-.05,1.35,1.29,2.51,.84-2.46-5.03-3.54-11.2-7.12-15.55,1.09-1.78,3.38-.97,4.7-3.49-3.41,1.72-5.34,.25-7-1.03-9.13-7.95-38.26,9.98-52.89,11.16l-6.89-23.77c55.57-13.6,52.13-22.73-1.45-4.6l-7.08-24.42c28.1-5.77,56.87-16.52,85.32-21.92,17.52,58.37,14.9,84.87,69.89,118.69l7.9-2.29c-4.99-5.36-11.48-8.42-17.51-13.02,14.17-4.88,58.73-17.52,63.58-18.07l4.74,16.37,6.77-1.96-4.85-16.75c18.39-6.14,77.43-22.94,82.54-23.5l4.74,16.36,6.77-1.96-4.98-17.17c27.82-8,55.17-17.56,82.81-24.97,4.54,5.55,4.72,11.5,6.85,17.6l11.29-3.27-5.24-18.07c26.15-7.64,51.65-15.49,78.21-21.44,4.43,4.22,5.51,10.55,7.2,16.27l5.65-1.64-4.29-14.79c3.21-.23,2.39-2.65,2.98-4.41,27-6.72,52.57-17.01,79.62-23.98,1.78,6.54,5.09,11.89,6.38,18.64l9.03-2.62c-4.42-19.33-19.71-41.8-7.96-60.54,6.94-8.37,21.04-9.36,25.41-20.36,13.66-22.56,24.14-51.96,48.72-64.34,7.58,4.33,12.53,12.37,19.4,17.76,24.25,19.54,69.46,34.76,91.83,5.22,23.09-19.33,9.15-41.11,31.15-49.52,20.65,1.03,44.04,12.18,60.24,25.32,10.22,6.01,14.14,21.42,23.65,26.23,1.17-10.61-11.42-21.49-19.04-28.78-12.02-6.81,4.96-14.45,6.78-23.2,29.02-1.01,60.3,4.99,42.38-33.64,5.67-32.4,23.37-63.38,13-96.79-1.56,.13-3.01,.38-4.22,1.46,3.12,25.26,2.34,60.06-13.72,78.95l-1.76-6.06c7.42-3.21-6.46-23.42-10.73-18.38,25.14,21.37,1.17,15.42-16.96,14.09,.67-8.38,2.4-16.45,12.6-17.14,.35,1.48,1.84,2.59,2.76,.97-.07-.77-1.58-.33-1.05-1.72,3.39-.7,6.62-2.66,10.3-1.79,26.83-25.63-27.3-96.72,53.7-112,36.72,16.96,69.98,42.08,112.42,45.37,10.09-.75,59.14,18.86,57.84,7.89-29.57-3.26-27.35-18.85-37.76-41.25-16.42-23.93-8.01-45.82-4.06-72.82-5.43-22.94-26.83-37.97-40.93-55.92-25.17-65.62-39.77-136.55-61.3-203.94,18.58-17.85,4.33-38.38-4.28-57-13.82-25.19-27.78-51.72-39.76-78.07-11.7-19.33-11.63-45.78-18.68-67.97-4.58-23.66-15.98-47.61-6.98-71.3,20.28-35.02,34.65-50.42,32.64-94.35,13.96-46.87,9.69-13.37,1.85-58.32,26.91,14.82,53.81,29.63,81.07,44.64,9.88,46.96,27.71,92.62,40.37,139.13,20.22,79.64,14.92,57.44,85.39,40.05,7.89,29.93,18.52,57.88,26.23,87.66-21.08,6.06-41.23,14.1-62.19,19.45-7.47,11.02,3.24,24.18,4.97,36.5,1.38-.62,3.08-.46,4.41-1.68-9.11-25.95-11.72-32.96,18.38-37.93,8.35,30.53,17.9,58.89,26.79,89l-11.81,3.42c-3.66,7.53,8.18,2.29,11.66,1.46,12.18,26.62,17.21,59.02,26.97,87.6-6.22,2.46-13.86,2.32-18.45,7.24l.67,2.32c18.92-1.71,37.55-10.9,56.79-14.36l7.36,25.38c-41.32,16.23-35.5,60.86-21.35,94.62,17.81,60.18,35.42,120.33,54.58,180.15,22.92,41.23,35.84,23.22-8.24,51.57,3.83,18.15,8.2,36.33,13.33,54.46l4.52-1.31c-19.51-75.09-15.22-38.44,36.33-83.97,2.42,.33,3.1-3.68,6.35-2.18,5.26,21.01,19.32,46.83,23.94,66.84l5.65-1.64c-5.37-20.89-20.51-47.63-25.8-69.48,14.79-13.82,32.15-29.75,51.38-36.53,3.39,2.08,21.81,93.7,31.81,84.43,4.95-3.27,25.96-2.79,23.55-11.66-2.76,1.84-13.92-72.41-25.38-70.65l20.85,71.96-20.32,5.89-24.72-82.84c17.79-7.97,48.24-19.19,69.07-24.12,5.48,11.06,16.36,50.2,19.96,62.62l36.53-10.59c3.54,8.41,13.13,10.86,13.21,21.88,1.02,3.04-.24,6.44,1.49,9.36l4.52-1.31c-1.5-2.96,.01-6.4-1.49-9.36-2.05-10.58-4.18-13.41-12.52-22.08l57.92-16.79c4.17,13.14,9.73,30.59,10.28,32.52l4.52-1.31-9.49-32.75c23.57-6.83,41.9-12.14,42.38-12.28,3.5-2.98-4.19-10.16,.97-11.29l-1.64-5.65c-2.74,1.55-9.09,.97-9.84,4.07,3.65,2.57,4.1,5.12,5.06,9.02ZM-215.96,1501.18c-56.92,3.39-65.74-81.35-83.81-121.05,15.31-3.11,31.02-11.65,45.37-11.58l38.43,132.63Zm-33.01-135.95c20.37-5.03,40.93-10.97,61.09-16.05l38.74,133.7c-20.27,6.02-40.07,12.41-60.24,18.98l-39.59-136.63Zm-52.83-178.08c87.69-25.21,50.6-29.5,84.84,65.99-20.44,6.19-40.22,11.85-60.95,16.44l-23.89-82.43Zm58.68-24.96c-9.95,4.54-21.69,6.37-32.58,10.05-9.46-20.26-6.55-50.94-25.12-64.37,6.42,19,14.91,43.92,20.51,65.88-8.39,.95-15.06,6.7-23.39,7.5-7.37-34.13-27.48-68.47-19.75-102.89,9.1-1.65,17.98-7.25,26.67-6.5,8.28-1.39,16.38-3.31,24.55-5.89,6.12,21.74,12.59,42.17,18.38,63.73,2.93,11.08,8.3,21.27,10.73,32.49Zm53.65,180.9c-20.55,5.26-40.67,10.17-61.13,16.49l-24.14-83.3,60.08-17.41c8.67,28,17.31,55.83,25.19,84.22ZM1349,581.4c-12.92-57.36-14.17-115.76-51.03-164.87-12.56-20.14-12.14-45.22-18.24-67.89-7.49-36.69-15.77-74.01-23.3-110.53,18.51-30.76,28.82-64.75,42.3-97.79,5.24-6.38,5.31-29.52,15.63-25.09,9.06,8.31,49.18,18.21,40.43,31.59,5.54,89.88-59.82,72.44-25.62,172.67,6.18,29.33,12.54,58.83,27,85.19,12.83,22.27,23.42,46.47,35.98,69.27,4.43,10.03,9.83,17.96,9.53,29.56-16.45,26.67-34.46,52.35-52.69,77.89Zm-205.92-432.19c31.48-9.9,74.16-21.93,78.84-22.18-28.54,42.66,14.33,75.61,30.02,112.03,9.57,55.7,23.02,112.3,35.09,167.77-17.52,40.71-21.44,86.4-35.72,128.34-84.26-101.77-17.52-78.66-38.08-205.7-.85-25.08-16.12-46.17-23.64-69.13-15.19-35.68-30.32-70.47-44.4-106.35-.29-1.89-3.3-2.31-2.12-4.78Zm112.69,389.88c13.25-41.15,17.68-85.38,34.28-125.59,39,50.65,41.31,114.06,55.39,173.74-18.8,23.37-36.25,53.04-55.61,74.46-7.39-32.11-12.97-65.25-21.95-97.19-1.11-10.23-8.87-16.34-12.11-25.42Zm51.63,108.43c13.71-17.57,25.14-36.96,39.97-53.62,8,47.87,32.89,94.54,36.46,142.64-2.7,17.35-22.17,35.24-35.7,44.44-21.72-29.81-49.3-57-53.85-95.52-6.45-16.02,4.26-25.32,13.12-37.94Zm-49.24-559.17c14.67,2.1,33.11,15.99,46.37,24.04-17.71,38.79-27.71,83.34-50.98,118.43-11.66-29.89-48.44-53.64-32.4-89.61,5.82-21.24,24.74-35.29,37.01-52.86Zm122.04,749.68c42.94-9.47,74.27-51.3,76.82-94.45l9.77-2.83c43.46,43.89,18.51,43.18,22.2,92.37,6.93,18.36,16.83,35.31,22.62,53.74-47.5-7.29-91.11-20.61-130.93-48.08-.11-.06-.16-.24-.47-.75Zm-26.21,1.82c11.68-17.04,7.72-36.54-.9-53.44,11.33-16.94,34.87-27.96,36.2-50.45-7.5-49.93-26.98-98.97-38.91-148.52,16.3-17.5,26.83-44.2,43.76-60.16,13.59,91.93,117.14,240.17,2.96,298.5-6.27,4.74-14.03,6.44-21.54,8.71-6.73,2.28-14.04,1.74-21.59,5.36Zm-68.81,188.08c-5.52-34.5,8.45-25.1,9.24-52.67,26.63,1.14,15.87-2.08,29.66,11.34-5.21,12.75,2.57,23.6,2.91,37.15-6.27,1.16-12.78,1.73-18.87,4.07-2.72-1.82-5.46,1.75-8.18-.05-4.74,.89-9.44-.56-14.75,.16Zm-311.41,80.34c-8.53-29.57-17.11-59.13-23.96-91.09,1.87-1.48,3.64-2.81,2.07-5.94,8.13-4.52,15.22,1.31,14.04-2.77l62.9-18.23c5.99,10.01,9.92,21.5,16.25,30.33,1.82,6.77,6.74,12.38,9.24,19.03,2.87,3.09,5.92,11.66,3.75,15.3-10.86,8.76-19.67,20.91-27.51,32.65-12.11,27.82-19.94,34.48-42.68,51.72-10.65-8.27-13.23-18.18-14.1-31.01Zm53.45-120.32c-12.16,1.71-23.63,11.85-35.11,9.26-.04,.84-.08,1.56-.12,2.22-13.02,5.82-38.83,2.55-42.89,17.36-2.85,.98-2.53-4.62-5.3-5.7-1.43,.31-2.39-.24-3.91-1.74,3.79-.18,6.87-.33,9.93-.48-1.17-5.88-8.01,1.41-10.18-1.56-4.62,9.26-24.36,8.49-35.1,13.6-12.2-39.61-24.69-78.73-35.74-118.66,14.05-4.57,30.13-5.28,42.72-13.99,3.57,.25,10.31,2.11,9.75-3.5-16.68-4.31-35.4,11.24-54.26,12.89-32.47-99.18-59.11-201.84-95.18-299.84,.58-1.4,2.29-1.29,2.43-3.14,9.7-1.69,17.5-9.03,27.25-11.2,1.79,1.04,4.31,2.68,5.47,.03-.76-.05-1.48-.09-2.92-.17,13.51-8.26,30.61-12.84,44.95-19.98,18.62,45.79-10.62,95.02,9.54,138.82,3.27,1.67,1.53,6.32,4.77,8,.27,3.35,3.6,5.4,3.77,8.8,16.15,28.28,28.22,59.92,39.05,91.09,11.99,34.34,47.88,35.77,75.06,51.61,27.33,30.66,25.18,78.03,41.25,114.63,3.55,3.08,2.7,7.79,4.76,11.67Zm-181.12-433.33c-25.11,8.47-49.25,20.95-73.7,30.02-8.82-13.77-24.1-18.89-34.27-31.29,5.98-5.67,13.21-6.46,20.74-7.61,50.97,4.53,61.67-54.6,78.33-91.02-5.82-28.79-21.39-56.29-17.81-86.94,1.64-13.99-8.13-27.6-2.27-40.87,3.39,19.78,12.41,39.18,14.92,58.06,.56-.91,.88-2.3,2.73-1.5,17.03,37.63,45.29,76.2,24.61,118.71-6.28,14.37-16.01,27.34-13.66,43.71-3.37-4-1.15-20.64-6.9-13.01,.94,.15,1.8,.28,2.76,.43,.54,7.4,.94,14.72,4.53,21.32Zm-29.49-229.52c.21-.63,.59-.74,1.11-.32-.21,.63-.59,.74-1.11,.32Zm-87.92,170.74c-1.68-9.96-1.02-19.36-1.77-29.51,17.28-.09,54.48-39.3,60.58-9.34,5.92,32.2-40.34,26.56-58.81,38.85Zm2.97-122.38l-28.66,8.31c-6.83-24.59-15.38-47.3-21.78-71.9,9.8-.59,18.69-9.91,27.28-7.28,5.47,19.79,13.39,39.28,18.44,59.3,3.52,3.15,2.63,7.81,4.72,11.57Zm-5.11,87.25c-5.62-24.98-14.91-48.24-21.6-73.16l28.23-8.18c1.33,4.6,2.69,8.69,3.68,12.88,8.23,27.08,30.32,59.89-10.31,68.47Zm-35.37,10.24c-1.55-25.05-13.59-48.92-20.1-73.57l29.01-8.41c6.29,24.4,17.84,48.59,19.95,73.61l-28.86,8.36Zm28.85-2.21c7.55,27.21-8.06,58.67,8.35,83.11,.98,.03,1.78-.77,2.06,.45-21.7,16.46-33.56,42.53-22.64,68.87,1.72,18.51-2.41,40.38-23.21,46.1-25.31-53.33-30.78-80.01-7.53-135.24,7.64-13.72,10.73-53.51,23.25-57.37,6.27-2.53,12.98-3.98,19.73-5.93Zm-34.77,3.81l-26.66,7.73-21.2-73.17,28.04-8.13c5.34,17.08,8.65,33.54,15.53,49.87,3.63,7.38,2.85,15.84,4.3,23.7Zm-90.21-321.32l-15.03-51.88c93.58-26,76.3-45.34,96.73,26.8-10.26,3.86-21.22,5.09-30.82,10.34l-50.88,14.74Zm22.11,85.32c-9.62,3.84-18.69,7.09-28.76,9.63l-23.04-79.5c9.35-1.86,15.83-6.3,25.76-8.19,6.99,22.74,15.49,44.69,21.8,67.72,1.51,3.62,3.63,6.4,4.24,10.33Zm-64.72,273.57l30.09-8.72c.72,9.99-20.54,8.13-27.71,12.62-1.95-.88-3.09-1.98-2.38-3.9Zm30.48-2.66l.87,3-28.01,8.12-.87-3,28.01-8.12Zm35.64-4.11l1.54,5.32c-17.21,21.12-6.88,62.64-40.31,73.05-54.19,19.07-31.88,4.6-53.63-51.59l92.4-26.78Zm-65.52,16.15l-26.51,7.68-2.52-8.68,25.53-7.4c1.26,2.95,4.13,4.96,3.49,8.4Zm-111.39-276.07c9.68-1.83,17.4-6.32,26.36-8.96,14.44,45.95,26.71,92.89,41.82,138.71,2.53,6.48-19.49,12.74-25.26,14.11l-6.92-23.89c-13.28-39.47-24.28-79.84-35.99-119.97Zm-73.22-131.81c8.5-2.31,16.96-5.06,25.43-7.21l38.88,134.18c-8.62,2.35-15.33,6.62-24.35,8.36-4.36-15.04-8.83-29.44-12.67-44.01-9.61-30.22-19.88-60.59-27.3-91.32Zm93.18,428.75c-11.83-43.07-25.76-83.76-37.89-126.51,9.32-2.2,18.34-6.3,27.25-7.33,10.74,37.07,21.46,74.09,32.22,111.1,11.36,22.29-7.58,12.21-21.58,22.75Zm-12.75-141.14c-9.95,1.91-17.26,6.29-26.73,9.12-13.81-49.47-29.96-97.19-43.71-146.59,9.31-2.19,18.34-6.32,27.25-7.32,10.25,35.38,20.43,70.73,30.79,106.02,3.33,13.2,9.38,25.15,12.4,38.78Zm-45.01-151.08l-27.24,7.9c-13.11-44.79-27.4-88.88-39.86-133.87l27.1-7.85c8.18,28.19,16.24,56.38,24.56,84.53,4.65,16.51,11.39,32.38,15.45,49.3Zm115.13,280.09l18.98,65.49c-83.8,18.61-134.86,67.85-204.19-8.76,49.72-18.15,102.46-29.75,152.78-47.04,10.4-4.28,21.62-6.56,32.43-9.69Zm-102.58-118.5l-27.97,8.11c-16.16-48.36-29.5-97.27-43.85-146.14l27.87-8.08c6.4,18.34,10.76,37.67,16.75,56.26,7.92,30.31,19.21,59.53,27.21,89.85Zm-45.72-152.02l-27.25,7.9c-16.95-43-26.62-89.22-41.68-133.25l28.47-8.25c13.68,41.42,24.95,83.55,37.35,125.49-.36,3.45,3.71,5.1,3.11,8.12Zm11.84,161.84l-26.91,7.8c-14.58-42.09-25.03-85.57-39.68-127.6-10.05-25.29,1.91-17,23.16-26.16,15.23,48.48,29.43,97.07,43.43,145.96Zm-45.27-151.99c-27.24,8.54-29.33,13.06-35.59-17.23-10.65-36.28-22.7-72.01-32.68-108.54l28.23-8.18c4.51,16.27,9.48,31.23,13.61,47.33,10.31,28.4,17.81,57.63,26.43,86.62Zm48.14,157.69c12.68,40.38,21.85,82.06,36.25,121.32,2.36,9.79-19.37,8.14-27.35,12.79-13.17-41.35-24.77-83.94-37.12-125.93l28.23-8.18ZM263.33,3.98l30.15-8.74c6.36,40.67,24.43,79.3,33.81,119.65l-28.23,8.18c-6.77-27.33-16.72-52.47-24.13-79.27-4.11-13.22-7.76-26.58-11.6-39.83Zm192.5,537.55l-28.23,8.18c-12.99-41.87-25.83-83.44-37.67-125.75l28.23-8.18c6.56,22.63,12.87,45.05,19.6,67.33,5.2,19.75,13.5,38.3,18.07,58.42Zm-101.2,4.85l-30.07-103.77c8.99-2.22,18.23-6.03,26.82-7.35l36.54,126.08c-20.31,5.15-39.29,12.29-59.31,18.41-12.02-42.55-24.64-84.17-37.57-126.3,9.8-1.86,17.95-7.84,28.05-8.77,9.41,34.58,21.11,68.8,31.24,102.95l4.31-1.25Zm-93.95-412.17l-28.05,8.13L198.29,23.88c9.1-2.62,18.01-5.24,26.93-7.78,11.04,40.28,23.39,78.54,35.45,118.11Zm42.46,143.13c-8.81,.99-26.47,16.49-28.6,1.87-11.72-43.06-25.53-85.14-38.29-127.9l27.1-7.85c6.62,22.85,13.46,45.14,19.5,67.66,5.99,22.32,15.16,43.66,20.28,66.22Zm-31.07,10.22l-28.23,8.18c-9.91-37.07-22.95-72.2-32.82-109.18-13.4-29.76-6.66-26.01,20.54-33.77,6.86,19.87,11.6,40.13,18.47,59.81,8.56,24.58,14.68,49.96,22.04,74.96Zm-72.19-135.74l-33.98-117.26c10.02-3.66,19.21-7.62,29.76-9.92l34.33,118.45-30.11,8.72Zm117.2,286.83c-9.68,2.23-19.19,6.69-28.4,7.59-13.83-48.51-27.92-96.72-43.14-144.64l28.23-8.18c2.54,9.5,5.57,17.72,7.73,27.02,14.3,38.47,23.37,78.92,35.59,118.21Zm101.14,197.32c13.75-4.75,26.02-9.8,40.18-13.07,11.72,33.61,9.23,69.5,14.41,104.4-33.58-11.75-41.21-50.73-50.51-81.54-2.78-2.83-2.6-6.57-4.08-9.79Zm102.55,100.75c-11.83,19.59-29.6,4.05-42.8-6.27-1.01-35.3-2.05-74.01-13.67-109.04l24.84-7.2c8.35,27.45,14.85,54.93,24.76,81.79,4.82,13.18,9.31,26.89,6.87,40.72Zm-25.67-124.15l43.61-12.64c1.07,40.28,.72,82.53,21.26,118.87-4.97,7.39-7.36,17.01-14.12,22.99-18.29-14.87-24-36.24-29.26-58.5-7.52-23.42-15.77-46.88-21.48-70.73Zm164.57,63.57c-21.13,14.56-38.55,36.84-47.69,60.72-7.85,14.64-7.91,51.09-26.8,51.26-11.59-13.64-23.07-27.15-34.25-40.3,4.09-9.82,10.74-17.44,15.17-26.42,15.1,6.23,21.24-11.44,25.06-22.69,13.66-33.6,37.31-62.75,59.03-91.32,5.48,14.87,10.28,30.47,14.01,46.14-1.58,9.06,8.58,20.28-4.54,22.61Zm67.34,189.54c-8.63,.96-17.94,11.15-25.23,5.51-12.97-20.81-19.47-44.77-27.26-69-10.33-26.13-11.4-41.78,11.73-61.08,5.09,16.55,8.44,32.1,15.09,47.77,6.73,26.63,15.46,52.38,25.67,76.8Zm-40.02,17.04c-6.33,60.72-22.55,71.07-55.28,119.01-9.14-8.06-19.08-15.06-27.33-23.55,49.56-72.57,71.5-90.31,32.4-177.15,7.59-9.88,15.14-19.07,23.1-28.47l1.73,5.96c9.38,34.6,22.84,68.57,25.39,104.2Zm-40.7-34.53c-25.43,33.93-50.48,67.35-75.62,100.91-10.36-9.35-23.44-17.04-31.58-27.35,31.72-37.78,61.39-78.88,94.1-115.09,4.1,13.69,9.66,27.74,13.1,41.54Zm-111.32,79.22c4.94,4.17,9.7,8.21,14.44,12.21-25.17,33.85-52.5,67.27-78.77,99.97-.06,3.14-4.42,3.27-4.48,6.42-1.67,.3-1.68,3.05-3.96,2.73l-7.05-24.31c14.42-14.8,25.92-32.67,39.86-48.15,13.22-16.27,26.32-32.98,39.96-48.86Zm-66.44,65.05c-11.49-9.5-22.55-18.64-33.32-27.55,9.49-11.95,18.69-23.52,28.06-35.32,12.09,8.23,23.02,18.2,34.74,27.1-9.85,12.62-19.13,23.88-29.47,35.77Zm62.47-20.69c12.51-11.34,19.19-40.89,34.92-17.33-30.35,41.65-61.63,83.85-94.16,123.27-2.31-7.25-6.22-13.85-7.55-21.53,21.64-28.58,44.98-55.77,66.79-84.41Zm121.39-98.63c-4.96,40.14-33.05,69.63-53.94,102.86-8.44-7.34-16.36-14.22-24.38-21.19,24.82-33.08,49.51-65.97,74.39-99.13,.83,2.87,1.57,5.87,2.58,8.78,1.01,2.91-.44,6.13,1.35,8.68Zm-37.32,158.98c6.15-7.5,11.94-14.56,17.67-21.56,10.99,22.1,16.01,50.41,24.74,74.75,2.45-.36,2.68,2.41,4.69,3.12-.12,1.26,1.08,2.38,.49,4.11-27.44,7.02-53.82,18.2-81.22,24.38-2.97-9.64-5.82-18.74-4.7-28.91,16.95-6.97,44.38-5.41,48.01-26.96-1.9-9.83-6.62-19.67-9.67-28.93Zm-32.76,47.27c10.24-14.35,18.97-27.9,29.69-42.41,14.36,36.67,4.21,36.23-29.69,42.41Zm108.92-217.13c34.57,64.65,24.53,143.61,30.87,215.25l-44.58,12.92c25.39-23.29,6.64-61.31,10.19-90.82-3.26-18.61-.67-38.84-5.57-57.23,3.56-19.54,7.45-38.44,10.12-58.06,1.25-7.08-.87-14.23-1.03-22.05Zm-15.82,237.75c24.02-13.5,55.65-16.71,82.49-26.43l14.43,49.78c-27.93,8.14-54.71,17.57-82.9,25.01l-14.01-48.36Zm98.86,30.09c4.66,13.63,13.76,45.89,14.3,50.55l-82.92,24.03-14.62-50.45,83.24-24.12Zm-164.78-570.12c6.36-13.6,5.28-33.57,13.6-44.48l24.4,84.2c-18.76,26.02-38.92,52.73-55.42,80.12-21.31,66.59-33.08,29.55-43.86-14.38,20.64-3.15,33.84-15.58,43.39-33.53,6.22-13,22.74-24.56,19.6-40.1-3.52-10.67-7.27-21.62-1.71-31.83Zm-63.31,39.33c18.48-9.82,40.09-8.85,54.86-25,7.4,16.81,6.59,29.95-5.79,43.02-12.74,19.46-22.97,39.75-48.21,43.51-2.14-8.99-.96-17.81-1.04-27.05,.44-11.3-.42-23.4,.18-34.46Zm40.97-99.17l28.23-8.18c.56,3.17,1.97,5.93,2.2,8.74l-27.92,8.09-2.51-8.66Zm-10.05-34.76c14.54-9.11,8.2-29.77,16.17-43.05,4.21,8.74,19.77,59.23,20.73,67.2l-27.58,7.99-9.31-32.14Zm-68.74-311.67c23.48-10.76,48.96-16.68,73.79-24.42l6.81,23.5c-20.92,5.98-40.33,13.68-61.37,19.24-6.3-6.01-12.52-11.93-19.23-18.32Zm360.29,878.93l-21.24,6.15c-13.14-37.89-21.84-77.41-36.99-114.45-2.02-8.49,16.19-7.06,22.49-10.82,8.81,30.29,16.86,59.79,27.22,89.39,2.48,10.01,5.66,19.84,8.52,29.73Zm-51.24-193.71c-2.12-1.6-3.56-1.19-4.57,1.31,5.33,22.24,11.53,44.36,18.08,66.41-7.9-.46-21.48,13.54-24.74,3.31-11.47-40.29-21.63-80.68-34.95-120.4-8.59-32.96-24.97-64.04-31.5-97.15,12.95-28.49,11.97-61.5,29.01-88.98,31.38,97.81,62.09,195.97,91.5,294.61l-25.11,7.28c-2.11-11.52-6.48-21.89-8.37-33.08-1.91-11.31-6.14-22.23-9.35-33.29Zm20.02,73.3l24.5-7.1c15.39,38.29,22.07,79.76,37.18,117.76-9.03,3.24-16.39,6.14-25.9,8.58-5.93-20.06-11.18-39.31-17.2-59.17-6.11-20-13.37-39.69-18.58-60.08Zm-36.95,4.31l-41.16,11.93c-21.93-66.87-37.34-135.45-59.16-202.74,11.45-8.48,22.62-16.75,34.17-25.3,13.37,37.52,27.17,74.4,37.75,112.92,10.2,34.07,21.03,68.26,28.4,103.19Zm-193.2-591.54l-27.1,7.85c-5.78-22.83-14.94-44.02-20.58-66.91-1.6-9.86,18.85-8.62,25.43-12.69,7.14,24.57,15.82,47.11,22.25,71.74Zm23.68,77.5l-27.3,7.91c-8.47-22.88-14.32-46.92-21.43-70.5,9.57-2.67,16.87-7.09,26.74-9.08,7.82,24.22,12.44,48.77,21.99,71.67Zm-4.03,86.71l-21.12-72.89,26.71-7.74,21.24,73.29c-9,2.4-17.78,5.57-26.6,7.48-.17-.07-.32-.2-.22-.13Zm59.3-5.4c-10.29,31.98-20.38,62.56-30.32,94.45-13.09-23.58-16.01-56.95-26.59-82.03,8.53-1.6,15.95-6.54,24.51-8.33,9.17,.28,28.26-14.38,32.4-4.09Zm74.83,450.57c24.68-5.83,47.46-23.74,51.13,13.19-16.79,5.36-33.14,9.04-49.99,13.36-.63-9.26-1.19-17.96-1.14-26.55Zm96.58,164.08c-24.59,7.03-49.17,14.2-73.73,21.32-.55-13.73-22.52-48.89-7.81-52.8,22.95-6.67,45.91-13.33,68.88-19.94,10.7-.34,9.45,25.76,14.62,34.94,2.76,6.18,8.32,14.39-1.96,16.49Zm-89.51-35.52c-1.25-9.61-1.65-19.01-2.57-28.26l67-19.42c4.97,8.17,6.44,17.37,9.37,26.29l-73.8,21.39Zm-2.22-33.63c-1.23-9.57-1.89-19.18-1.59-28.51l59.42-17.22,7.74,26.73-65.57,19Zm-2.66-62.67c17.3-3.81,34.06-12.45,51.75-13.23,1.3,8.13,7.26,17.11,5.54,24.78l-55.63,16.12c-2.46-8.52-3.41-19.06-1.67-27.67ZM530.32,177.63l29.63-8.59c7,26.48,16.68,51.53,23.49,77.99-8.08,3.98-17.92,5.29-26.94,8.42-5.39-21-13.61-40.48-18.96-61.41-1.52-5.86-4.13-11.18-7.23-16.4Zm109.15,138.23l-27.51,7.97c-7.04-24.14-13.9-47.96-22.14-71.69l29.21-8.46c7.27,22.37,19.9,66.99,20.44,72.18Zm24.27,77.32l-28.23,8.18c-6.8-24.57-15.59-47.26-22.05-71.85,9.67-2.77,18.94-5.52,28.44-8.2,7.79,24.19,15.05,47.41,21.83,71.87Zm50.44,243.75c.63,.22,.74,.59,.32,1.12-.63-.22-.74-.59-.32-1.12Zm11.48-50.99c-3.72,16.38-5.91,33.96-11.06,49.6-1.97-32.57-13.77-45.95,13.19-72.99,15.63-14.52,.35,16.91-2.13,23.39Zm14.13-22.02c9.25,8.27,20.39,13.61,26.98,24.3-25.91,31.06-21.41,77.92-43.11,107.89-9.12,5.52-16.43,12.71-25.47,17.97l-11.89-41.03c13.04-3.42,24.63-15.05,26.44-28.62,13.8,1.06,12.59-56.13,22.41-68.33,1.29-3.9,2.9-7.69,4.63-12.18Zm232.44,567.84c12.09,9.54,12.69,17.2,8.98,30.99l-8.98-30.99Zm-69.17,74.53c-4.19-16.51-10.63-32.73-13.47-48.69,26.44-8.06,53.46-17.09,80.25-24.39l14.64,50.52c-25.97,7.94-52.18,15.42-77.94,24.13-1.02-.79-1.4-2.47-3.48-1.56Zm-30.19-104.22c14.72-9.81,80.55-24.12,85.72-26.12,25.1,78.14,1.64,44.01-66.35,74.68-11.77,1.94-13.22-38.11-19.37-48.56Zm-17.84-57.3c27-12.84,56.84-16.85,85.52-26.69,5.18,17.72,11.37,33.86,15.93,51.53-28.45,8.24-56.43,16.35-84.27,24.42-6.91-7.72-5.97-21.21-11.56-30.59-2.8-5.91-3.87-12.64-5.61-18.67Zm22.88,110.02l-77.38,22.42c-26.8-77.07-9.49-45.96,62.6-74.09,5.98,6.15,7.81,16.01,11.17,24.68,.73,9.09,9.37,19.22,3.61,26.98Zm-75.75,28.5l80.02-23.19c2.41,18.08,17.47,37.67,10.13,53.25-24.68,3.34-49.56,14.22-74.19,20.13-2.9-7.31-4.47-14.61-7.39-21.58-3.82-9.12-5.8-19.01-8.58-28.61Zm-46.54-116.51c-9.7,2.21-18.23,5.99-27.49,9.39-4.43-42.95-4.63-87.37-7.47-130.96-.79-21.38-10.48-41.67-14.23-62.77-2.83-8.44,16.62-7.21,22.36-10.83,23.97,55.37,21.39,114.03,25.62,172.88-.51,7.42,1.23,14.64,1.21,22.29Zm-48.22,143.91l83.24-24.12c4.79,14.04,13.76,45.88,14.29,50.55l-82.91,24.03-14.62-50.45Zm-70.76-205.3c13.95-17.77,24.63-40.34,40.13-55.28,2.21,3.25,.65,6.71,1.84,9.76,.59,1.51,1.71,3.21,.26,4.92,1.66,20.43,2.81,40.62,3.36,61.02,.57,20.13,9.23,46.75-10.87,60.49-21.42-10.55-18.45-62-34.73-80.91Zm46.87,144.71c-29.12,7.6-56.41,17.64-85.12,25.89l-15.34-52.93,81.87-23.73c.78,2.38,3.29,1.39,4.66,2.72l13.92,48.04Zm-31.14,134.12c.23,1,1.42,1.88,.62,3.3-1.06-1.04-1.35-2.04-.62-3.3Zm-35.03-46.47c5.42-2.19,12.12-1.25,12.08-6.97,19.11,4.15,47.93-15.67,70.91-18.23l14.8,51.08c-28.21,7.72-54.82,17.63-83.04,25l-14.74-50.88Zm-17.32-56.11c83.45-16.38,80.95-56.15,99.83,24.92-28.04,8.99-57.38,14.84-84.14,25.61-4.56-11.45-7.92-24.97-12.62-37.58-2.21-3.56-1.53-8.63-3.07-12.96Zm-30.21-91.51c.79,10.35,3.66,18.95,5.33,28.96-7.02,2.67-15.35,2.88-21.55,7.32-4.03-.93-7.25,1.33-10.69,2.25,.03,1.38,1,2.21,.06,3.67-3.98-7.62-12.47,2.67-18.15,1.99-2.06-11.66-5.69-23.48-7.24-35.11,26.93-37.43,55.15-76.77,82.65-115.07,9.84,7.03,18.86,13.71,27.3,22.45-30,32.28-43.3,81.77-90.71,88.73,5.88,8.37,22.81-4.71,33.02-5.16Zm-53.2,7.36c.22-.63,.59-.74,1.12-.32-.22,.63-.59,.74-1.12,.32Zm91.82,135.57c-28.15,7.37-54.64,17.73-82.58,25.16-5.53-4.81-4.93-14.94-8.01-21.73,28.05-8.5,55.9-17.56,84.16-26.04,2.16,7.82,4.49,15.17,6.44,22.61Zm-76.98-6.07c-17.87,11.29-18.03-6.71-22.23-20.26,28.51-6.74,56.62-15.06,84.8-23.35l6.54,22.58c-23.46,7.42-46.62,12.08-69.11,21.03Zm-38.65-76.92l51.56-14.94c-.03-4.46,.43-.75,2.68-.49,7.91-5.58,20.47-6.6,29.91-9.72l15.32,52.85c-28.2,8.21-56.62,14.52-84.68,23.32l-14.78-51.01Zm103.33,33.9c1.04,.53,1.26,1.28,.66,2.28-1.04-.53-1.26-1.28-.66-2.28Zm-69.85,80.35l85.16-24.68,14.67,50.61-68.04,19.72c-15.05-9.25-25.96-20.63-28.99-38.69-.49-2.55-3.95-3.87-2.8-6.96Zm-124.68-86.38c81.33-15.38,81.18-59.11,101.66,30.37l-18.71,5.42c-21.33-1.98-45,10.76-66.95,14.65-3.95-11.23-6.03-22.68-10.88-33.3-2.4-5.26-3.39-11.16-5.12-17.14Zm18.52,81.89c-28.93,7.15-55.77,19.59-84.85,26.68l-7.22-24.9c28-10.03,55.93-17.15,84.49-25.64,1.01,8.59,6.51,15.2,7.58,23.87Zm-83.17,32.92c26.34-12.41,57.44-17.83,84.39-28.86l6.9,23.82c-28.71,7.68-57.39,17.86-85.74,24.19l-5.55-19.15Zm67.14-84.73l6.44,22.24-84.59,24.51c-2.36-6.46-2.6-13.35-6.68-19.02,20.67-14.86,58.61-17.2,84.83-27.73Zm-120.48,14.76c-34.81,37.17-61.51,79.17-86.59,123.52-3.87-11.39-5.08-22.73-7.54-34.18,26.29-33.75-2.54-43.36-29.42-57.63,3.56-2.71,5.42-6.15,9.85-7.09,4.59-2.53,8.53-4.89,13.22-6.1,32.7-5.81,67.1-23.23,98.77-24.42l1.71,5.9Zm38.08,34c-24.41,6.9-45.24,14.32-69.8,20.84,19.15-19.55,30.97-48.73,55.54-61.34,3.21,11.09,6.37,21.94,9.49,32.79,.72,2.51,1.17,5.14,4.76,7.71Zm64.5-74.38c14.23-7.7,11.92,10.46,16.32,20.24-28.45,8.67-56.5,17.49-85.27,25.44-5.79-16.91-5.82-14.83,.89-23.46,22.32-8.78,44.66-16.06,68.06-22.22Zm64.07-149.49c10.27,29.79,19.83,60.02,28.5,90.33,10.9,2.81-5.51-28.84-5.53-36.02,6.28-7.54,11.4-17.32,18.64-23.54,.51-3.96,5.38-5.21,4.02-9.64,.68,.21,1.34,.42,2.17,.68,24.89-32.66,49.74-65.27,74.63-97.94,8.15,7.05,16.14,13.96,24.19,20.92-24.25,35.19-49.77,69.49-74.59,104.17-16.84,21.82-8.51,29.43-3.07,54.28-65.26,17.1-129,43.83-195.49,55.49,35.63-53.79,82.09-102.41,121.65-154.08,1.05-1.56,1.99-4.01,4.88-4.66Zm-114.59-60.1c1.42-16.99,2.71-34.75-.99-50.91-2.95-14.83-17.74-23.76-21.1-38.79,.19-18.61-31.19-79.01-6.3-83.99,29.82,1.08,45.13,45.15,61.95,38.14,11.22-19.6,14.75-46.76,15.09-69.4-3.68-11.43-16.49-17.86-18.63-30.24-11.11-38.91-44.83-43.7-70.16-68.78-1.69-15.52,4.79-32.05,7.17-47.63,6.11-10.58,17.54-18.38,21.34-30.39,8.86-6.89,23.53,18.09,32.69,23.98,16.52,11.13,37.02,16.24,55.57,22.05,21.25,70.84,22.78,77.62,87.27,116.27,13.91,.25,28.14-6.16,27.84-22.1,20.35,20.18,36.51,45.53,57.75,64.49,33.04-1.7,24.36-95.38,84.5-115.88,21.08,68.03,7.12,50.58-31.73,104.04-35.82,44.66-71.86,88.75-107.93,133.28-47.15-41.49-53.84-32.5-2.84,3.94-8.45,10.48-16.72,20.75-24.99,31.02-8.46-4.14-62.21-54.53-43.98-25.5-10.87,15.67-29.69,31.2-34.76,48.16,3.92,1.54,3.94-2.9,7.92-4.82,10.99,9.08,22.08,18.25,33.06,27.32-1.5,5.27-7.63,7.29-7.89,13.05-4.95,.74-6.31,9.75-11.71,7.27-20.74-7.31-41.41-16.15-62.38-23.38-42.15-17.16-34.7-14.53-46.83,25.54-2.97,1.45-4.87,.29-7.04-.82-5.47-15.38,7.44-30.04,7.1-45.88ZM1.62,1402.77c17.9-8.35,45.66-4.26,55.99-23.22-7.82-31.96-17.77-64.19-26.92-96.07,62.72-20.08,24.69-60.62,15.9-105.73-3.03-8.47,20.14-10.46,26.66-13.66,29.42-29.37,55.83-91.73,104.47-65.36,30.35,23,49.41-6.09,21.24-29.98-32.66-31.42-14.81-42.77-26.35-68.69-8.12-6.5-19.77-5.52-26.73,1.88-23.79,23.24,1.29,58.2,5.53,85.71-9.84,3.88-20.65,3.67-28.86,10.1-4.31-1.89-6.77-5.4-10.48-6.55-7.04-41.33-21.1-82.07-32-122.91-3.19-11.01,41.32-9.62,36.39-21.05-13.32,2.86-25.7,9.23-38.97,12.08-2.54-6.88-3.31-14.24-4.87-20.97,71.75-13.24,32.61-23.29,11.48-78.07,.97-.58,1.44-.86,1.93-1.15-6.43-14.94,14.03-17.17,12.64-30.08,12.32-1.3,12.46-8.74,6.77-17.89,3.63-19.56,97.26-28.02,113.3-42.76,27.99,7.48-13.67-82.72-15.17-96.2,6.93-1.39,12.16-5.78,18.93-6.51-2-9.17-14.48,.48-20.42,.63l-11.38-39.25c7.97-1.71,16.07-5.86,23.73-6.18,4.4,6.81,2.9,29.69,12.64,27-2.56-9.64-5.74-19.23-8.29-29.42,12.8-1.72,23.61-8.43,35.8-11,2.61,9,5.5,17.55,7.47,26.32,2.1,15.01-4.9,30.63,9.05,41.9-4.32,9.69,.97,17.74,3.51,26.73,11.22,9.1,3.3-6.05,1.88-10.88-5.57-7,3.59-17.18-5.63-23.58-7.88-19.2,.02-41.63-10.61-62.01l57.28-16.6c-2.74,11.76-13.92,18.83-20.7,28.47-2.09,17.22-8.69,34.75-8.27,51.9,16.83,27.14,62.23,28.84,67.32,64.66-1.97,1.88-4.41-.72-5.79,.55-14.44-14.28-27.89-10.04-44.91-3.82,7.57,11.51,23.18-14.07,41.55,8.13,5.95,1.87,14.67-1.31,15.24,6.56,3.84,11.43,16.8,16.82,17.23,30.11-6.77,17.99-3.31,43.2-15.69,56.98-14.84-16.01-45.45-53.26-67.66-34.37-13.78,16.45,10.81,70.14,14.08,92.73,28.65,32.61,24.59,79.37,10.29,118.19-26.85,2.56-42.38-17.12-52.15-38.35-9.12-15.23-36.34-11.32-44.09,3.17-7.75,32.49,8.41,67.39,29.57,92.16,16.24,20.74,.38,57.48-11.89,77.11-14.97,11.09-36.59,7.67-54.8,8.44-7.87,5.7-19.44,6.53-25,15.89-12.84,16.13-30.89,26.61-44.14,42.19-15.06,22.53-12.46,53.05-21.75,78.46-39.81,44.08-15.04,56.05-29.5,107.5,6.58,30.21,14.6,50.68-18.48,68.07-3.81-4.8-7.38-9.88-12.23-13.71-9.07,3.05-19.93,1.13-23-9.07-3.79-12.93-7.37-25.45-11.17-38.51ZM246.86,460.21c-9.27,.65-22.16,11.88-29.12,2.58-13.76-46.27-29.68-93.07-41.47-139.95,8.81-.39,22.88-12.77,29.26-7.2,8.48,28.72,16.45,57.61,25.08,86.28,3.14,19.61,15.81,39.4,16.25,58.28Zm-43.66-152.68l-29.67,8.6c-13.83-41.98-25.2-85.51-39.14-127.76-4.6-11.72,19.45-9.45,27.84-14.47,10.19,28.31,17.27,57.66,26.17,86.54,4.34,15.82,10.98,30.91,14.8,47.09Zm49.72,294.05l-30.49,8.83-36.62-126.36c35.92-15.44,32.53,4.61,41.27,32.59,7.35,28.8,18.27,56.14,25.84,84.94ZM106.05,343.35l29.02-8.41c15.01,48.34,29.9,96.12,43.4,144.9l-29.68,8.6c-9.94-32.29-19.93-64.36-28.97-96.97-4.51-15.97-9.61-32.16-13.76-48.12Zm111.89,268.47c-10.14,2.22-19.11,6.39-28.59,9.59-13.07-42.16-26.18-84.59-38.51-127.11l29.49-8.54c12.59,42.18,25.76,83.59,37.62,126.07Zm-68.55,21.09c-10.01,2.45-19.77,6.61-29.36,8.01-6.75-21.63-14.35-42.74-20.12-64.73-5.3-32.45-38.87-62.57,11.71-69.42,1.74,6.01,3.09,11.54,4.96,16.89,12.5,35.7,21.95,72.84,32.81,109.25Zm-27.37,14.22l29.05-8.42c11.99,45.21,28.38,90.95,38.46,134.23l-27.82,8.06c-4.18-14.42-8.54-28.24-12.14-42.26-10.27-30.65-19.52-60.14-27.55-91.62ZM28.52,213.84c8.83-3.57,20.16-3.71,27.64-9.48,17.55,41.88,26.42,90.84,41.05,135.1l-28.06,8.13c-12.41-43.92-25.99-87.14-39.5-130.28-1.38-.89-1.65-2-1.13-3.47Zm127.53,568.77l-31.62,9.16c-12.29-44.64-26.88-88.28-39.69-132.72,10.47-2.89,19.62-8.26,29.68-9.61,6.67,7.37,4.41,18.02,10.64,25.36-.63,11.57,6.68,24.57,9.16,36.52,6.9,23.84,15.79,47.09,21.83,71.28ZM73.52,506.27c-5.89,10.18-17.37,9.62-27.93,13.42-14.63-48.53-29.7-96.37-43.31-145.24,9.68-1.32,19.48-12.48,26.36-1.96,8.62,26.51,17.38,52.71,26.63,79.04,5.18,18.56,12.01,36.86,18.26,54.75ZM-39.69,233.87l28.14-8.16L27.2,359.41c-6.63,4.63-17.88,4.88-27.46,8.72,.6-5.3-2.98-8.04-4.1-11.95-11.63-40.81-23.52-81.54-35.33-122.3Zm119.83,418.9l-26.78,7.76c-6.7-20.41-10.88-42.86-18.9-62.35-.88-7.19-2.33-13.36-5.82-19-1.09-14.74-8.55-29.93-11.84-44.83,8.31-.15,24.57-12.84,27.44-2.43,7.2,24.8,14.53,49.57,21.51,74.44,4.92,15.77,11.84,30.79,14.4,46.4Zm11.54,148.45c-6.89-45.01-25.09-88.95-36.25-133.53l23.71-6.87c11.89,44.71,27.33,88.16,39.33,132.64l-26.79,7.76Zm7.84,5.12c2.17-.15,3.8-1.69,6.05-.75-.91,2.59-1.71,4.88-2.56,7.32-2.5-2-2.59-1.97-3.49-6.57Zm13.27-162.82c-4.46,1.83-10.71,1.83-14.18,4.87-4.93-.21-9.06,2.49-13.63,2.96-3.25-7.77-2.8-17.09-8.34-23.3-5.16-33.96-22.22-68.09-28.96-102.61l22.93-6.64c1.52,2.37,3.8,3.38,6.15,3.49,6.44,18.71,10.8,37.63,17.35,55.97,7.11,21.35,13.7,43.48,18.7,65.27Zm-8.83,267.63c12.53,19.41-20.79,14.36-31.92,20.8-5.19-24.16-2.85-50.09,2.36-74.41,5.66,6.41,8.27,13.22,11.47,20.78,6.99,9.77,11.12,23.05,18.08,32.83ZM-44.12,726.76c12.15-3.03,23.1-8.4,32.58-16.65,10.69,5.77,22.26-3.89,33.01-3.7,15.26,13.89,23.2,57.95,26.83,78.18-15.95,1.19-30.5,8.94-38.64,13.65-10.3-1.71-20.8,2.62-30.78,5.25-1.15-1.32-2.84-1.54-4.56-1.66-2.81-5.97-5.6-11.77-7.81-18.17-2.07-18.43-18.15-39.34-10.64-56.89Zm23.89,81.53c7.73-2.01,16-2.96,23.74-5.82-3.04,23.49-22.95,23.4-7.55,57.03-11.12,15.09-31.77,16.34-47.83,20.74-7.78-37.37-28.43-74.32-27.3-112.4,10.8-3.78,21.53-6.37,32.96-6.62,2.24,2.95,3.85,7.18,4.64,10.98,5.33,12.58,4.04,34.64,21.35,36.09Zm-171.22,10.3c34.91-9.46,69.04-23.36,104.29-30.84-2.62,11.49-9.4,21.45-13.43,32.52-27.42-41.32-42.94,9.62-16.8,32.76,5.78,25.9-38.1,25.62-55.85,33.58-2.29-2.5-3.54-5.7-6.47-7.59-8.29-18.82-5.39-41.35-11.75-60.43Zm29.99,101.22c36.21-8.98,70.81-22.88,106.96-31.72l22.65,78.16c3.05,1,1.23,5.31,4.28,6.31,12.92,38.37-63.86,4.05-79.92,22.96-27.67,27.16-39.51-5.1-39.53-30.2,2.54-1.6,3.33-4.26,3.7-7.59,6.17-1.71,6.76-6.7,7.49-11.4,12.2-4.66,5.82-20.4,16.76-20.27,5.35-5.31-6.98-10.57-4.63-1.25-5.97,2.64-5.14,8.72-6.45,13.4-8.79,5.12-7.52,13.72-14.84,18.14-1.56,1.31,.45,4.65-3.34,4.97-1.8-5.92-4.09-11.35-7.24-16.8-4.85-7.67-4.61-15.61-5.89-24.72Zm63.37-93.3c6.38-10.98,8.1-23.24,16.09-32.49l25.86,89.22c-22.65,7.37-58.29,17.38-63.39,17.79-9.75-42.41,27.54-39.38,21.65-69.57-.63-1.67,1.22-3.36-.21-4.94Zm-26.72-13.82c19.66-10.97,32.78,35.32,13.26,39.76-7.48-5.58-8.93-15.54-13.81-22.53,.75-6.39-2.84-11.15,.55-17.23Zm-.27,90.48c-12.35,3.62-23.8,9.17-36.01,11.88-4.89-7.77-7.5-15.46-9.69-24.02l44.53-12.9c2.66,8.12,2.18,17.07,1.17,25.05Zm-67.23-89.23c-7.58-23.22,11.31-56.47,38.48-45.77,22.29,9.89,46.36,11.51,69.21,2.32-.09,3.62-.8,6.66-.28,9.35-34.91,14.42-72.11,20.8-107.41,34.1Zm-6.82-7.53c-43.57-32.13,10.07-58.94,39.57-71.46,21.74,4.02,30.59,21.11,58.53,12.15,3.9,2.37,14.83-4.59,15.82,1.41,5.52,20.7-9.13,17.87-24.35,24.06-32.73-.68-71.46-30.92-86.86,14.25-2.04,6.24-2.99,12.68-2.71,19.6Zm60.55-68.55c4.03-2.04,44.18-13.81,50.77-14.91,11.09,23.09-7.3,17.53-23.09,20.89-7.13-.37-14.4,.41-21.46-2.74-2.3-.58-4.89-.69-6.21-3.25ZM61.43,929.13c-1.4,12.48,7.52,23.79,6.08,36.11-41.12,13.11-84.75,23.33-122.36,42.65-5.18-17.05,19.01-9,29.02-15.77,10.4-8.97,3.94-18.38-.76-28.71-9.33-23.09-14.68-48.55-22.21-72.61,2.68-13.87,39.78-10.11,48.62-27.34,33.04,16.62,29.92,60.54,45.83,89.53,8.88-3.69-3.6-16.9-3.86-23.82-8.69-24.86-12.35-58.58-39.62-69.77-2.71-9.36-5.1-17.6-7.46-25.74,8.56-11.3,10.85-30.66,25.25-34.73,1.34-2.96,5.18-1.72,7.05-4.32,2.43-2.9,7.49-.36,10.4-2,95.44-30.57,2.12,55.71,24.01,136.52Zm-130.33,156.27c21.99-5.49,42.87-13.83,64.66-19.93,28.01-3.63-6.69-51.49-6.9-70.01l24.84-7.2c16.63,54.33,33.13,108.65,48.57,163.39-5.9,6.82-12.03,11.43-20.67,13.16-29.5-116.61-18.32-69.55-131.44-46.44-10.77-29.11-8.62-27.75,20.93-32.98Zm-18.09,37.14l102.01-29.56c2.29,9.48,6.6,17.17,8.59,26.65-27.86,8.91-96.21,28.39-101.75,29.01-1.31-4.51-2.56-9.04-3.94-13.52-1.32-4.28-1.85-8.83-4.92-12.57Zm71.46,67.27c15.64,24.07,18.62,63.42,29.96,92.76l-48.2,13.97c-3.04-7.78-4.63-16.3-7.36-24.28-11.16-50.47-44.5-69.35,25.59-82.44Zm66.85,190.14c-12.31,8.5-28.1,9.36-42.11,14.49l-27.79-95.88,43.85-12.71c2.14,7.4,4.27,14.32,6.14,21.3,6.42,24.32,12.36,48.62,19.9,72.79Zm8.87-129.88c-.95,20.46-25.39,22.22-39.77,30.67l-27-93.16c15.51-3.85,29.59-7.28,45.3-12.22,7.56,22.64,13.62,45.88,21.73,67.58-1.32,2.47,1.31,4.86-.27,7.12Zm-124.07-52.65l-12.46-43.01c34.14-9.71,66.93-20.93,101.19-30.11l11.64,40.18c-31,13.14-69.93,15.46-100.37,32.94Zm-51.67-165.84c11.7-4.29,24.17-5.23,35.82-9.18,13.12,19.29,40.86,2.29,43.95-16.56,7-1.13,12.15-6.63,19.27-7.72,29.44,86.16,23.9,51.51-83.12,88.42l-15.93-54.96Zm41.95-9.68c.05-.43,.09-.86,.14-1.3,10.84-2.6,20.45-7.63,30.81-11.15-4.91,11.7-8.3,12.86-24.16,16.44-2.22-1.31-4.51-2.65-6.79-4Zm150.8,126.4c.65,2.12-2.14,.59,0,0-.37-1.63,.97-1.4,1.99-1.21-.06,1.06-1.29,.84-1.99,1.21Zm-10.7-3.48l-45.96-158.59,21.37-6.19c12.59,46.09,27.8,91.86,41.08,137.54-4.95,9.53-10.41,19.9-16.49,27.24Zm31.34-77.24c9.36,16.6-5.65,29.62-11.68,43.22-12.79-44.14-26.76-88.04-39.77-132.19,8.41-2.44,14.59-6.47,23.36-8.08l1.66,5.74c8.82,30.43,17.68,60.85,26.42,91.31Zm12.51,24.62c2.4,3.2,7.34,3.47,9.1,7.6-13.39,15.61-26.43,31.5-40.29,46.69,3.42-12.25,14.37-23.11,19.89-35.2,3.87-6.16,6.33-14.06,11.31-19.09Zm57.81-89.79c4.62,3.29,3.9,7.57,3.48,13.16-3.23,19.89,7.63,38.67,20.36,53.22,10.81,9.14,27.78,31.06,3.49,34.07-12.88-7.09-24.17-14.55-39.36-15.93-4.9-25.95-36.58-90.75,12.04-84.53ZM4.25,1420.73c7.62,19.9,6.08,24.99-13.09,34.62-5.93-12.99-3.45-32.38,13.09-34.62Zm-30.48,33.96c-.55-2.78-1.76-5.18-1.89-7.61,4.5-2.44,9.33-.66,13.47-2.94l1.92,6.64-13.5,3.91Zm-13.74-39.65l39.2-11.36c2.02,4.08,1.64,8.91,4.92,12.08-8.81,6.41-19.01,12.41-18.78,25.75l-16.31,4.73-9.04-31.19Zm14.09-114.34c2.22,5.84,26.55,89.83,27.71,95.59l-43.68,12.66c-5.49-18.53-10.36-36.59-15.98-54.94-17.42-52.07-17.28-37.44,31.96-53.31Zm-43.13-99.46c-8.16,8.19-18.71,12.16-29.65,15.28l-23.84-82.25,29.94-8.68c3.25,3.75,4.58,8.1,4.98,12.36,3.42,21.82,13.98,41.58,18.56,63.29Zm29.36,97.09l-32.55,9.43-23.84-82.28c11.33-2.01,20.75-8.03,30.55-12.1,5.45,18.81,10.82,37.63,16.4,56.39,2.23,9.85,7.67,18.32,9.44,28.55Zm8.87,149.57l2.2,7.58-2.05,.6c-1.03-2.75-.14-5.48-.14-8.18Zm-121.45-411.32c9.94-1.81,20.3-2.49,30.63-4.12l25.4,87.66-28.23,8.18c-5.83-18.48-9.72-37.29-16.78-55.31-4.91-11.42-7.14-24.75-11.03-36.41Zm30.4,293.06c15.15-2.18,33.44-14.33,46.7-10.49,14.06,43.32,26.78,87.3,37.98,131.46-16.1,2.98-35.25,13.5-49.02,12.41-10.32-33.76-18.54-68.11-30.4-101.38-2.48-10.14-10.78-22.57-5.27-32Zm-29.67-87.82l49.68-14.4c6.58,27.94,19.29,56.23,22.57,83.63l-46.46,13.47c-12.25-24.62-16.34-55.88-25.79-82.7Zm-26.39-91.66l48.13-13.95c11.27,26.59,16.44,54.4,25.16,81.63l-49.52,14.35-23.77-82.03Zm-30.59-101.1c16.46-3.56,33.54-17.45,50.28-10.94l26.7,92.15-49.31,14.29-27.67-95.5Zm-21.9-70.98c69.1-23.51,39.97-9.49,67.4,50.82-15.57,3.69-31.38,8.26-47.65,13.11-3.26-15.22-9.63-27.98-13.51-42.59-2.31-7.01-4.17-14.17-6.25-21.34Zm51.79,368.11l44.55-12.91c19.27,40.42,26.64,89.87,42.7,133.03l-48.38,14.02-38.87-134.14Zm-25.56-87.95l15.78-4.57,3.14,10.83c1.71-.15,3.16-.39,4.5-1.6l-3.09-10.66,26.96-7.81c7.76,26.79,15.4,53.13,23.04,79.52-11.13,9.07-33,13.02-46.97,14.92l-23.36-80.62Zm-27.89-92.32l47.23-13.69c8.14,27.53,15.19,55.14,25.08,81.88-16.49,5.22-32.69,8.19-47.44,15.2-6.41-21.4-13.56-41.4-19.15-62.96-1.93-6.87-4.24-13.66-5.72-20.43Zm-30.76-101.19c16.23-3.32,32.95-16.1,48.69-12.79l27.35,94.39-47.03,13.63c-6.45-17.93-9.08-37.19-17.21-54.49l-11.81-40.74Zm-2-7.64l-18.46-63.69,47.03-13.63,18.57,64.08c-16.92,5.64-42.52,12.8-47.15,13.24Zm-41.73-157.23c14.87-17.44,1.11-46.17-3.68-66.31l25.83-7.48c16.67,47.01,28.26,95.78,44.99,142.49,3.83,12.75-36.47,11.88-46.05,18.03-7.19-29.31-20.17-57.04-21.08-86.72Zm-28.37-92.34c-1.91,.68-.89-1.94,0-.26,6.23,5.38,15.72,13.91,16.78,22.34-6.62,3.42-7.71-6.86-11.11-10.76-1.79-3.81-4.91-6.96-5.65-11.31Zm28.27,80.44c.23,.8,.52,1.36-.23,1.92-.91-.52-1.06-1.21,.23-1.92Zm-8-52.75c4.09,16.87,13.03,35.17,7.83,51.8-3.66-17.38-8.64-33.53-13.67-50.81,2.23-.11,3.81-1.47,5.83-.99Zm-34.78-53.97l43.21-12.52c10.3,12.44,13.59,35.28,20.14,51.58-8.78,3.3-17.05,3.68-25.61,6.39-8.04-9.28-13.71-21.59-25.43-26.37-5.1-1.04-6.59-6.16-9.08-10.78-.79-2.85-3.85-4.79-3.22-8.3Zm4.09-161.75l-48.37,14.02-39.18-135.18c13.82-4.71,42.51-12.78,47.35-13.33,4.06,14.71,8.9,29.25,12.66,44.02,10.79,29.63,18.51,60.24,27.54,90.47Zm-46.53,21.06l48.55-14.07c12.33,44.21,24.15,89.79,37.47,133.5-12.42,9.67-31.44,9.73-46.22,15.79-7.26-8.73-7.37-23.94-11.97-34.99-10.52-33.14-17.78-66.94-27.82-100.23Zm-83.59-284.23l48.37-14.02,39.53,136.42-47.08,13.64c-9.75-30.55-16.96-61.32-27.64-91.08-5.24-14.69-8.68-30-13.18-44.96Zm-27.96-119.31c15.64-3.52,32.35-11.34,47.33-12.63,1.27,35.34,18.44,72.06,26.16,107.43-16.47,3.05-33.16,13.74-48.67,13.67-8.05-29.7-19.13-58.61-26.74-88.49-5.62-7.9-3.4-12.67,1.92-19.98Zm-14.32-11.8c4.07-.76,7.84-2.26,9.72-7.71,1.14,2.4,2.61,1.31,3.42,1.7,1.04,9.32-4.05,15.84-9.94,23.09-.24-3.21-3.22-2.95-4.03-4.98,1.27-4.32-.16-7.35,.83-12.1Zm27.27,289.85l47.1-13.65,39.15,135.1c-16,4.48-30.49,11.02-46.74,14.9l-39.51-136.35Zm-42.93-143.3c16.35-5.21,32.72-8.19,48.07-15.15l40.17,138.63-47.27,13.7c-2.58-9.56-5.73-18.4-7.99-27.89-13.27-35.6-21.74-72.91-32.99-109.28Zm-14.98,159.93l50.93-14.76c10.95,45.81,31.96,91.5,38.99,136.66-15.68,5.05-32.09,8.74-47.98,12.49-15.65-37.51-23.54-81.6-36.8-121.04-3.32-3.88-3.18-8.88-5.14-13.35Zm49.26-20.54c-17.31,3.45-34.41,13.11-51.23,13.01-12.96-44.73-25.97-89.61-38.96-134.44,13.9-8.24,33.43-9.91,48.88-15.71,4.17,11.22,8.33,22.22,11.36,33.61,9.74,34.57,20.06,69,29.94,103.53Zm-80.38-268.94c11.41,42.48,26.44,83.28,37.47,125.8-16.57,3.35-33.91,12.74-49.94,12.77-13.51-40.97-25.19-82.62-37.21-124.17l49.68-14.4Zm-29.68-1.49c-6.73-19.43-12.8-38.2-18.22-58.19l46.29-13.42c6.19,17.31,8.07,36.34,16.83,52.16-1.74,13.83-32.59,12.95-44.91,19.44Zm77.68,1.73c29.26,16.77,25.02,63.78,40.05,92.36,1.05,5.33,3.98,10.79,4.2,16.05-16.6,4.96-30.81,11.23-48.05,15.32-10.47-28.81-16.57-58.81-27.35-87.67-5.75-13.84-9.61-27.12-2.19-40.61,11.65-12.39,20.71-.12,33.33,4.54Zm8.04-6.87c-3.89-3.37-9.16-3.84-13.41-6.67,2.17-3.88,8.26-4.86,12.62-2.52,1.12,2.86,2.31,5.79,.78,9.19Zm16.9-22.11c-14.18,10.86-22.53,2.98-36.67,11.95-22.86-10.42-20.52-38.53-29.05-59.67,16.55-4.16,31.55-10.55,48.21-14.55,4.8,13.45,6.99,27.33,12.94,40.03,2.09,7.13,5.73,14.63,4.57,22.25Zm7.87,15.86c2.27-28.06-13.64-52.86-19.54-79.83,16.72-5.22,33.26-7.66,50.01-13.27,2.94,10.14,6.12,19.98,8.6,29.99,21.64,49.96,7.26,51.68-39.06,63.11Zm78.73,111.47c15.81-9.2,34.09-10.55,51.43-16.81,4.4,17.47,8.98,34.86,13.57,52.28-7.05,2.54-14.77,3.1-20.63,8.76,8.18,21.07,4.12,56.98,36.36,44.8l4.68,16.15c-17.96,17.43-18.58,26.82-47.16,31.03l-1.62-5.6c-13.13-43.28-23.52-87.34-36.63-130.61Zm50.32,46.04c5.59-1.42,10.1-5.47,16.27-5.72l5.52,19.04c-6.45,2.32-11.12,4.69-18.4,6.38,1.41-7.48-2.58-13.21-3.39-19.71Zm23.38,18.94l5.2,17.95c-5.78,1.63-11.23,3.87-17.14,3.14-7.53-17.97-6.45-16.25,11.94-21.09Zm-24.93-90.96l-51.79,15.01c-6.66-36.63-30.06-73.59-25.45-110.06,14.61-3.43,30.43-3.54,43.97-11.48,8.25,25,15.42,49.1,22.74,74.18,2.47,11.12,8.4,20.98,10.53,32.36Zm-32.96-168.1c18.73,59.12-4.88,27.42-.99,59.41-12.48,6.6-28.24,8.98-42.5,10.4,12.53-26.69-11.18-54.94-14.97-81.99,8.43-3.81,20.63-2.93,25.81-9.75,3,.75,5.6,.19,7.77-2.04,5.47,.44,10.5-2.62,15.79-3.68,2.39,8.24,4.63,15.93,6.84,23.64,.47,1.64,.85,3.31,2.24,4.01Zm41.25,175.58c10.58-2.45,19.2-7.42,25.94-16.08,12.12,42.91,24.86,84.94,37.88,127.38-10.57,3.13-18.89,7.31-29.92,9.9l-1.45-5c-10.05-38.91-21.03-77.54-32.45-116.2Zm-4.66-127.28c-.74-.52-.96-1.14-.11-1.97-.13,.63,1.55,1.18,.11,1.97Zm-29.79,12.62l27.92-8.09c2.37,6.42,26.9,91.26,27.85,96.07-5.66,9.36-14.1,14.21-24.25,17.88-3.57-18.35-11.23-34.99-16.11-52.53-4.96-17.83-10.26-35.57-15.41-53.32Zm-1.53-5.86l-1.26-4.33c15.05-11.02,8.99-25.13,4.21-40.14-4.74-11.93-7.31-26.41-11.73-39.64l49.7-14.4c3.09,8.47,5.08,17.06,8.42,25.31,24.64,69.72,6.24,52-49.34,73.2Zm65.67,100.49c6.17-8.8,13.27-15.66,23.97-18.66,13.12,47.51,28.5,93.38,41.98,140.64-17.28,4.36-30.15,14.96-32.1-9.73-13.31-36.6-22.52-75.01-33.85-112.25Zm-29.9-103.14c-.05-3.16,5.84-1.89,4.88-6.8,.61,.81,1.04,1.38,1.6,2.13l18.75-5.44c6.04,16.78,7.95,35.49,15.92,50.3,3.32,38.98,23.9,23.5-13.74,49.33-5.21-14.27-8.29-28.85-13.57-42.85-5.72-15.14-9.31-31.08-13.84-46.67Zm30.92-11.6l24.6-7.13,24.44,84.34c-8.31,2.94-14.9,4.75-23.47,6.82-4.14-12.88-7.14-25.19-11.11-37.47-6.71-14.81-9.31-31.13-14.46-46.56Zm28.48,94.07c14.05-5.63,28.96-9.22,43.8-13.57,8.02,20.66,2.36,44.48,13.39,63.84,16.34,30.16,35.94,31.68,36.79,73.38-16.76,7.39-34.78,10.66-52.16,16.45-13-47.87-28.76-92.03-41.82-140.1Zm59.03,39.07c-6.99-16.31-1.92-36.69-9.58-54.28,13.54-6.22,22.61-5.47,35.82,1.13,8.13,27.67,15.35,55.88,25.63,82.52,10.53-10.89-21.91-63.68-18.59-80.57,7.56,5.39,17.02,5.9,25.96,6.84l32.49,112.12c-2.98,1.79-4.93,.75-5.53,4.26-3.62-2.42-9.5-.58-8.49,3.86-9.15-6.44-24.13,5.34-35.64,6.39-1.11-6.9-3.95-13-4.66-19.87-1.12-26.94-31.87-36.87-37.41-62.38Zm-88.33-139.17c.46-27.64-10.6-54.62-18.98-80.03l49.46-14.33c3.99,13.1,6.91,26.31,12.5,38.7,17.99,54.58-.96,38.02-42.98,55.66Zm77.09,28.45c-4.97,16.88,6.73,28.02,12.24,42.26-11.64,2.29-23.47,11.6-34.91,9.81l-24.03-82.91c3.79-2.96,7.94-4.39,21.91-7.61,4.33,15.32,22.09,22.65,24.78,38.44Zm67.05,55.8c-16.64-1.54-31.09-11.01-47.87-15.08-14.24-19.75-11.93-30.28-16.13-51.23-10.11-14.42-25.56-26.4-25.19-45.8-.72-23.08-13.79-45.21-18.83-68.15l49.49-14.34c14.14,45.25,26.42,91.26,42.06,135.98,5.17,19.54,12.29,39.1,16.47,58.62Zm17.07-137.18l-47.68,13.82c-6.94-24.86-15.58-48.06-22.07-72.87,16.44-5.47,42.59-12.81,47.54-13.35,4.25,14.55,8.05,29.08,13.47,43.28,3.88,9.27,5.89,19.33,8.73,29.12Zm57.63,300.16c3.66,6.44,.35,14.26,.58,20.79-6.18-.22-9.11,10.88-17.69,8.85-13.73-.14-25.63-10.69-21.9-24.81,1.85-5.03,4.35-10.45,9.87-12.32,6.54-7.85,23.46-1.87,29.15,7.48Zm-21.57-13.1c-.63-.22-.74-.59-.32-1.12,.63,.22,.74,.59,.32,1.12Zm-43.72-140.32c24.21-6.56,46.73-13.74,70.25-21.58,6.43,5.25,3.41,16.23,7.41,23.47-26.81,11.31-57.19,4.24-38.85,44.23l-22.25,6.45c-5.67-17.71-11.82-34.24-16.56-52.57Zm116.04,29.25c3.59,17.64,13.53,36.2,13.64,53.22-32.25,8.25-63.5,20.96-96.03,28.63l-14.96-51.64c32.04-9.7,65.25-23.82,97.36-30.2Zm-118.48-38.34c-6-18.14-14.76-49.29-15.3-54.32,32.26-10.08,64.26-21.12,96.89-30.53l16.03,55.33-5.03,1.46c-31.17,8.71-61.95,17.95-92.59,28.06ZM-121.28,112.83c-15.7,3.42-29.49,10.47-44.95,13.82-15.22-76.57-47.78-69.29,22.94-86.78,6.54,24.82,15.72,48.06,22.01,72.96Zm-4.72,69.95c-23.91,8.5-50.19,15.08-73.33,23.26-6.07-19.2-12.75-37.2-17.96-57.06,32.13-11.28,65.06-19.47,97.97-29.37,3.83,13.69,7.92,26.46,11.55,40.07,12.32,19.51-2.91,18.06-18.23,23.1Zm60.25,114.69c-23.68,7.06-46.9,15.04-70.06,22.86-17.35-39.04,13.43-25.82,38.07-39.17,4.84-8.62-3.86-19.52-5.02-29.15l21.26-6.16c3.38,11.67,6.78,23.28,10.12,34.96,1.57,5.51,5.42,10.19,5.64,16.66ZM78.21,782.31c-7.87-.24-15.83,1.14-23.8,.1-11.34-23.02-9.33-72.98-35.19-81.18-27.55,11.38-25.6-3.77-47.23,14.89-28.97,5.12-23.89,17.26-20.05,40.29-10.65,0-20.51,3.19-30.65,6.24-.23-70.97-14.68-37.85-66.33-28.52-14.63-15.71-66.04,21.47-73.4,35.82-9.92,19.97,9.75,33.25,21.12,47.7,8.27,18.65,4.22,39.72,10.88,58.65,14.99,18.92,19.88,42.57,23.9,65.51,12.28,15.67,9.47,36.63,16.01,54.72,27.07,41.21,38.31-21.29,88.87,2.52,4.4,23.01-79.01,25.85-97.41,31.95-13.68-21.61-10.9-57.42-30.15-72.47l-46.72,13.54c-21.14-69.07-45.25-139.22-64.71-207.72l19.67-5.7c-2.04-8.53-14.84,1.36-20.91,1.4-10.39-19.71-14.46-46.08-20.38-68.42-6.21-21.25-12.36-42.52-18.47-63.8-3.15-8.68,16.08-7.32,21.92-10.96-.31-.18-.61-.36-.92-.54,.84-.6,1.68-1.19,2.09-1.48-.36-1.82-1.62-1.74-2.47-2.53l-22.96,6.65-39.58-136.59c32.92-7.66,25.58-7.08,45.2-29.01-.65-2.12,2.14-.59,0,0,3.5,14.53,8.78,27.13,16.09,39.85,3.5,25.44,7.58,52.13,20.78,75.04,17.65,6.55,17.1,39.44,30.9,42.95-7.04-7.11-9.81-15.66-12.52-25.36-14.55-17.62-27.18-36.13-31.96-58.45l1.69-.49c-7.3-7.99-3.47-21.08-4.32-31.8-4.89,.06-1.96-4.96-3.42-7.58-1.14,.39-1.71-.75-2.66-.95-5.06-11.72-9.86-22.49-12.74-35.28,22.47-7.47,44.71-16.17,68.02-21.86l2.29,7.9-1.98,.57c1.82,3.57-3.11,2.43-4.87,4.34,3.9,.26,8.51-2.21,12.63-2.92-4.1-2.41-3.9-6.91-5.27-10.71,34.67-12.53,72.06-20.3,105.89-33.05,1.77,1.7,3.65-.8,5.45,.11,1.41,7.46,6.02,14.76,4.8,22.39-13.36-.4-13.42,19.94-14.52,29.49-6.19,2.76-12.7,2.13-19.12,4.87,5.24,1.03,13.44-1.56,19.19-3.11,9.13,6.51,18.04,16.85,30.32,13.47,4.08,5.54,.17,34.64,8.1,29.09,1.14-9.5-.14-19.87-3.34-28.96,4.75-6.09,5.8,.31,8.1-2.27-.88-.39-1.81-.75-1.73-2.17,4.08-3.47,7.79-8.17,9.33-13.75,5.37-15.55-11.2-36.5-29.08-31.14-5.39-4.11-4.58-13.69-7.52-19.93,32.73-10.19,64.41-21.09,97.49-30.55,4.57,7.67,5.23,16.31,8.36,24.55-3.05,.7-5.73,1.54-7.54,3.99,1.18,.21,2.34,.42,3.46,.62,.53-.95,1-1.81,1.47-2.67,21.7,41.43,32.21,101.69,48.9,149.73l-5.11,1.48c-.24,1.13-1.37,1.7-.98,2.84l7.9-2.29c9.65,36.73,23.23,73.56,30.8,109.75-.97-1.79-3.45,.47-3.43-2.63l-2.26,.65-.65-2.26c-31.37-13.11-67.29-13.83-97.77,1.41-16.45,9.01-34.61,16.76-53.42,21.6-.18-.43-.36-.85-.53-1.28,12.28-3.92,24.26-9.25,36.43-14.02,2.03-3.08,6.54-1.86,8.57-4.93,17.73-7.07,32.99-17.57,52.89-18.64,.07,2.1,2.61-1.03,3.06,1.13,.6,1.13-1.45,2.05-.19,3.31,2.52,1.19,2.05-2.15,1.12-2.73,1.79-1.83,3.73-1.08,4.45-2.78-5.81-2.85-12.55,2.35-18.1-.16-2.89,2.61-15.08,6.27-21.64,6.27-.16,4.73-11.4,5.31-13.99,8.95-8.44,2.13-15.16,8.32-23.58,10.51-8.85,6.32-20.11,7.91-30.44,11.27,.23,1.3,.39,2.22,.58,3.31-24.55,2.08-10.71-57.12-16.57-74.71,1.52-1.44-.92-3.67,.99-5.03-1.23-3.1-1.54-6.27-.85-9.54l1.62-.47c-2.9-2.36-2.42-7.46-.69-10.82-1.78-4.74,2.37-9.97-.95-14.41l-4.1,1.19c1.04,10.21-3.26,20.58-.81,30.99-1.54,1.44,.93,3.66-.99,5.02,4.4,25.4-.54,52.39,7.68,77.19-7.57,4.83-3.02,14.98,4.7,15.61-.11,.74-.17,1.1-.26,1.72-2.65,.19-5.36-1.83-8.04-.23,2.52,2.67,6.09,1.75,9.14,2.67,1.06,4.04,3.98,3.31,2.54-1.04,8.37-2.75,3.66-10.25,13.49-7.7-1.38-3.92-4.53-3.03-7.44-2.86-1.34,2.51-2.63,4.92-4.07,7.61-7.76,1.14,1.16-5.06,1.32-7.87,9.5-3.26,17.36-7.15,27.3-9.18,2.56,6.57,2.98,13.69,7.07,19.35-1.26,1.45-3.61,2.15-2.07,5.05,14.4-2.73,30.92-6.44,40.26-19.05,6.13,8.59,19.68,7.17,27.83,2.85,.89-2.68,2.97-4.44,3.25-7.06-7.5,6.39-14.97,13.79-23.12,2.1-4.87-5.16,1.11-11.11,2.99-15.85,11.22-5.18,18.87,3.03,20.13,13.75,13.5-3.43,10.43-6.18,5.43-15.83,4.96-7,9.12-.04,14.84,.85,2.79-.07,5.57,2.41,8.58,.11-4.84-2.85-11.21-1.29-15.12-6.48-3.24-1.17-9.92,.75-10.2-5.09,20.38-3.32,40.02,6.44,57.87,15.23-1.12,2.92,1.36,5.28,.84,7.77-7.2-.03-16.91-6.44-22.41-2.18,7.58,2.27,15.16,4.19,23.29,3.86l7.48,25.82c7.9,29.87,20.01,58.73,26.34,88.87Zm-169.92-111.8c-.43-.85-.85-1.69-.64-2.92,10.18-4.28,19.76-10.67,30.41-13.83,4.86-4.63,47.35-18.64,44.35-7.97-4.78,.05-4.6,5.73-8.38,7.31-10.92-4.25-20.47,4.43-20.18,15.54l-3.83,1.11c-8.32-7.29-21.43-6.36-31.29-3.1-3.66,.84-6.22,4.57-10.44,3.86Zm40.3,.81c-8.47,13.47-37.45,27.03-39.29,2.45,11.63-7.99,27.53-10.14,39.29-2.45Zm148.38,136.2l1.82,6.27c-1.56,.58-2.85,2.04-.47,2.95,1.22-.58,2.03-3.05,4.65-2.1,4.41,2.83,5.82,9.09,.47,11.61-1.36-1.91-3.31,.51-4.6-.53,.5-4.12-.05-4.67-3.68-8.18,5.58,13.06-1.61,20.79-11.18,28.21-2.55,5.38,1.71,8.26-1.18,11.94-2.18-2.45-4.35-4.87-6.68-7.49,7.75-13.72,6.07-38.01,20.86-42.68ZM-85.3,102.18l-26.83,7.78c-5.96-17.96-16.02-53.64-16.52-58.43l26.45-7.67,16.9,58.32Zm37.22,123.88l-27.1,7.85c-10.76-34.44-18.53-69.81-31.13-103.61-11.42-18.37,10.06-17.41,22.62-22.05,14.9,38.27,23.2,78.75,35.61,117.8ZM-5.3,369.45c-9.4,2.03-17.85,6.21-27.57,6.22-13.42-43.31-23.81-88.54-39.14-130.78,6.36-6.55,17.81-5.76,26.77-9.67,13.93,45.03,27.07,88.87,39.94,134.23Zm46.52,151.45l-26.06,7.55C-1.97,480.6-14.19,430.33-30.82,382.81c9.62-3.29,17.97-4.4,27.48-6.91,16.38,48.08,27.53,97.68,44.57,144.99ZM-51.43,92.37l-27.94,8.1c-6.27-19.45-13.31-37.97-18.21-57.92l29.26-8.48,16.9,58.3ZM-14.29,216.25l-28.09,8.14c-13.94-36.86-22.39-76.05-34.23-113.81-1.72-9.38,20.87-8.02,28.08-12.49L-14.29,216.25ZM31.83,359.87c9.89,6.37,22.77-3.1,34.4-4.97,15.12,48.64,29.89,97.02,43.7,146.07l-25.87,7.5c-26.86-41.92-28.99-102.28-55.84-145.23,.43-2.02,1.29-3.15,3.61-3.37ZM-16.45,82.45c-9.47,2.74-18.76,5.44-28.05,8.13-6.07-19.81-10.78-40.15-17.72-58.4l28.79-8.34,16.99,58.62ZM20.82,206.15l-29.16,8.45L-42.64,96.27l28.03-8.12C-4.72,118.55,1.02,149.62,12.86,178.68l7.96,27.47Zm42.6,138.61c4.3,7.04-25.5,13.58-30.14,9.24-15.79-42.66-25.76-86.71-39.13-130.05l29.26-8.48c2.58,7.53,3.83,15.42,7.8,22.32,9.58,36,22.63,70.98,32.21,106.97ZM18.41,71.12c-10.6,2.58-19.02,6.32-29.11,9.37-6.22-19.4-9.97-39.47-18.02-57.94L.35,14.12c7.73,18.6,12.24,37.82,18.05,57Zm37.07,123.89c-10.91,1.29-20.15,9.59-30.39,8.36C13.53,164.4-.52,126.3-8.95,86.55l29.36-8.51c7.42,26.34,15.55,52.16,22.65,78.5,3.33,13.09,9.12,25.38,12.41,38.48Zm86.92,295.49c-8.42,3.45-18.78,3.33-25.62,8.89-19.79-44.81-28.65-98.37-44.75-146.11l27.1-7.85c1.11,3.82,2.48,7.33,3.08,10.96,15.99,43.67,26.32,89.57,40.18,134.11Zm40.83,132.45l-28.23,8.18c-14.04-41.53-24.21-84.72-38.98-125.64,10.67-2.55,17.87-6.77,28.69-9.54,7.13,23.94,15,48.2,21.46,72.71,6.93,17.69,11.76,36.02,17.05,54.29Zm39.5,139.46c-9.43,1.17-17.55,7.18-26.89,8.62-2.52-6.57-3.61-13.32-7.02-19.12,.58-6.57-2.16-15.13-7.16-19.53-5.23-30.24-16.85-61.22-23.89-91.82-.92-8.48,20.2-7.39,26.97-11.56,3.72,10.48,6.26,21.52,9.58,32.2,7.4,34.03,25.03,67.12,28.41,101.21ZM19.79,4.7c.8,.65,1.37,1.11,1.91,1.56-.19,1.34-.37,2.59-.6,4.15-4.42,.54-8.24,3.09-12.54,4.98C2.71,3.69,7.97,.79,19.17-1.14c1.53,1.96,1.3,3.98,.62,5.84ZM52.08,61.12l-28.01,8.12L8.7,16.2c23.42-4.23,6.52-9.68,26.51-13.3l16.87,58.22Zm38.41,123.58l-29.36,8.51c-11.01-39.51-24.11-77.51-35.1-116.9,9.31-1.31,28.52-17.16,31.06-2.63,9.47,30.58,16.52,61.86,27.61,91.89,2.89,5.85,3.9,12.62,5.79,19.13Zm43.06,144.35c-10,2.5-19.74,6.5-29.33,8.06-15.79-44.2-26.7-89.73-40.39-134.62l29.36-8.51c8.51,28.48,15.56,56.48,25.61,84.27,5.05,16.93,9.81,33.81,14.76,50.79ZM58.06,59.39c-5.91-19.65-13.31-38.03-18.25-58l30.49-8.83c4.61,30.74,35.29,62.64-12.24,66.83Zm66.31,115.53l-29.36,8.51c-11.34-39.53-24.58-78.3-35.41-117.96,10.79-1.65,21.6-10.62,30.78-3.58,9.04,27.54,14.25,56.69,25.36,83.29l8.62,29.75Zm42.68,143.06c-9.17,.31-24.74,15.06-30.23,5.49-12.02-43.89-26.45-86.95-39.08-130.62l29.36-8.51,6.62,22.83c11.24,36.89,23.07,73.56,33.33,110.8Zm50.91,155.54c-11.51-2.39-22.09,.77-34.97,5.05-13.97-48.61-27.74-96.95-43.25-145.01l29.26-8.48c11.25,30.93,19.51,62.69,28.58,94.36,5.87,17.48,10,39.45,20.38,54.08ZM121.16,41.34c-10.14,1.91-19.46,8.43-28.9,5.45L76.08-9.02l29.25-8.48c5.86,19.65,9.08,39.16,15.83,58.84Zm36.83-11.9c-49.51,20.33-27.17,4.62-48.13-48.21l31.51-9.13,16.62,57.34Zm36.05,124.01c-21.65,6.32-42.64,12.63-63.99,19.95C104.71,57.84,58.96,60.34,160.05,36.16c6.91,24.61,14.81,48.59,20.39,73.54,2.11,15.2,10.7,28.52,13.61,43.75Zm44.15,143.9l-30.49,8.83c-12.51-45.15-27.76-88.75-40.03-133.89,10.72-2.14,18.85-6.71,28.99-9.78,10.49,31.62,18.23,63.71,29.9,94.71l11.63,40.12Zm44.99,151.02c-10.66,2.68-19.3,7.55-29.96,10.02-14.44-49.25-30.95-96.77-43.44-146.24l30.17-8.74c4.33,14.92,8.8,29.52,12.75,44.25,11.13,33.28,20.72,66.97,30.48,100.71Zm38.22,133.26l-62.87,18.22c-10.71-39.93-25.22-81.41-36.18-120.62,11.93-17.07,43.54-14.58,62.46-23.73,7.6,19.87,11.66,41.62,19.3,61.81,6.21,21.05,15.05,42.57,17.3,64.32ZM187.13,20.81l-23.44,6.79c-5.83-19.14-9.12-38.44-15.45-57.55l22.31-6.47,16.58,57.22Zm36.69-11.46c-10.97,5-23.05,7.39-35.42,11.28-4.28-19.9-9.38-38.5-15.38-57.97,12.7-3.77,24.93-6.64,36.99-11.74l1.3,4.49c3.56,17.95,14.01,35.48,12.5,53.94Zm126.02,419.57l-28.03,8.12-42.15-145.44,25.53-7.4c13.8,45.68,28.01,90.73,41.04,136.38,2.52,2.34,2.3,5.5,3.6,8.33ZM252.39,.6l-21.09,6.11c-3.93-19.08-9.1-38.62-14.54-57.83l19.04-5.52L252.39,.6Zm40.63,124.24l-26.7,7.74c-10.88-40.01-23.6-78.5-35.1-118.09,8.89-2.71,16.88-7.17,26.14-8.94,12.76,39.2,27.09,80.09,35.66,119.29ZM272.74-5.03c-5.27,1.35-10.34,3.42-15.5,4.24-.92-19.53-31.46-60.96-1.15-61.7l16.65,57.47Zm22.41-6.66l-19.76,5.73c-5.92-19.36-13.12-37.31-17.98-56.92l22.97-6.66c-.65,4.01,2.99,5.93,3.63,9.44,3.94,16.19,10.83,31.61,11.14,48.41Zm31.79-9.79c-9.14,.69-16.06,6.55-24.71,7.64-3.9-19.65-9.87-38.17-15.49-57.67,7.18-1.67,13.94-4.62,20.26-7.07,9.15,10.49,7.88,29.41,15.44,42.23,2.24,4.22,2.88,9.29,4.5,14.87Zm26.19-10.98c-1.9,1.81-2.31,2.56-2.78,4.89-6.05,2.31-12.7,2-19.12,4.01-4.89-19.14-12.61-37.41-17.59-56.46,8.51-2.34,16.46-3.56,25.03-6.55,2.76,9.16,4.83,17.9,7.87,26.87,2.45,9.02,3.3,18.45,6.58,27.23Zm38.23,127.69c-19.9,5.81-38.75,10.62-57.42,18.15-12.51-35.81-21.08-73.67-33.6-109.04-.56-3.67-1.7-7.71,.67-11.29,17.95-2.97,37.59-15.52,54.62-12.85,7.43,19.02,12.94,39.1,20.49,58.31,3.76,19.08,9.87,37.87,15.24,56.74Zm88.06,295.03l-25.72,7.45c-14.72-48.15-29.68-96.49-43.63-145l24.84-7.2c14.78,44.03,26.77,89.31,40.1,133.84,3.03,3.16,2.73,7.33,4.41,10.9Zm38.9,130.42c-7.76,5.32-16.88,5.86-25.78,9.27-12-42.8-25.63-82.72-37.28-125.49,9.38-1.11,16.68-7.04,25.8-8.12,10.3,33.62,18.35,67.83,30.2,100.94,3.38,7.36,4.8,15.62,7.06,23.4ZM386.85-39.09c-8.99,2.73-16.52,6.29-25.51,8.38-7.25-17.64-10.42-38.4-16.98-57.34,8.49-2.82,15.35-6.72,24.31-8.44,6.45,19.32,10.11,38.84,18.17,57.39Zm36.09,125.02l-25.97,7.53c-9.15-39.3-22.74-77.03-34.48-115.56,.22,.12,.45,.24,.67,.36,.38-1.32,.77-2.64,1.04-3.58l22.18-6.43c10.39,33.23,19.6,65.99,30.85,98.82,2.76,5.9,3.88,12.57,5.7,18.87Zm43.82,142.76l-27.11,7.86c-15.81-43.7-26.18-89.41-40.02-133.93l25.75-7.46c4.42,11.49,5.59,23.49,11.32,34,9.07,33.51,20.75,66.08,30.07,99.53ZM414.49-47.54l-23.19,6.72c-5.75-19.27-13.06-37.2-17.89-56.82l23.71-6.87c2.82,9.74,5.44,19.34,8.4,28.83,2.95,9.46,7.58,18.4,8.96,28.14Zm12.99,132.25c-11.56-40.04-24.79-78.97-36.89-118.84l25.97-7.53c9.08,29.49,15.91,59.53,26.68,88.46,8.77,23.3,13.3,33.91-15.76,37.9Zm69.72,135l-25.97,7.53c-12.84-44.92-26.95-88.91-41.09-133.34l22.58-6.54c4.31,12.64,6.07,26.42,12.21,37.31,8.38,10.73,10.16,22.7,13.89,35.73,5.49,19.93,13.59,39.12,18.38,59.32Zm31.14,98.11c-12.41,16.33-2.16,38.57-13.63,55.25-12.87-47.3-28.34-92.7-41.7-139.68l25.97-7.53c6.45,23.14,14.57,45.08,21.02,68.16,2.52,8.07,3.7,16.6,8.34,23.79Zm53.53,181.42c-19.86,5.88-38.3,12.74-58.26,17.89-12.42-41.34-25.62-81.16-37-122.76,40.91-12.42,39.45-28.81,42.95-66.56,.48,.03,.96,.07,1.44,.1,15.33,50.42,27.97,101.69,44.88,151.57,2.96,6,4.02,12.93,6,19.76Zm-100.6-354.41c13.48,14.49,31.42,26.34,40.83,42.81,25.15,74.5,47.05,151.3,69.49,226.9-13.1,11.46-4.84,32.71-16.27,43.53-29.26-100.12-60.55-200.16-90.28-300.28-2.24-3.87-3.65-8.24-3.77-12.96Zm-.21-212.67c-19.23,4.57-35.85,12.29-54.9,17.13-5.51-19.7-10.97-38.34-17.86-57.04,19.09-4.19,38.65-13.86,56.85-14.96l15.9,54.87Zm19.38,58.03c-18.73,6.4-37.88,8.92-55.58,17.36-8.83-14.7-10.53-35.48-16.84-52.27,18.23-4.5,37.73-14.41,55.5-15.68,3.31,11.14,7.58,22.24,11.68,33.36,2.66,5.26,3.55,11.42,5.23,17.24Zm17.82,57.26c-19.54,5.97-39.3,10.45-57.3,17.68-5.57-17.42-8.87-35.46-16.33-51.42,19.44-5.41,37.51-13.06,56.97-17.74,5.32,11.38,6.23,25,12.19,36.53,2.15,4.52,2.94,9.68,4.47,14.95Zm18.09,58.21c-19.06,6.06-38.06,13.23-56.19,20.04-9.66-16.24-17.15-35.77-17.16-54.7,19.55-5.89,36.94-13.02,56.89-17.91,3.81,12.42,6.15,23.71,11.24,35.45,2.7,5.25,3.57,11.43,5.21,17.12Zm36.69-4.32c1.73,8.79,5.94,14.89,8.14,23.34-25.91,8.22-52.7,13.19-76.86,25.03-6.68-6.43-13-12.51-20.08-19.33,9.65-3.38,18.02-5.35,26.96-9.9,20.52-6.71,40.92-13.47,61.84-19.14Zm-23.71-190.4c-20.79,6.81-40.95,14.14-62.33,19.5l-16.36-56.46c21.1-5.25,40.77-13.48,61.61-18.99,2.87,9.92,5.87,19.24,8.24,28.72,2.33,9.31,7.77,17.59,8.84,27.23Zm59.5-10.91l15.05,51.94c-38.93,12.93-78.63,23.71-117.63,36.54l-6.76-23.34c13.17-8.19,30.23-8.01,43.3-15.03-8.34-7.82-32.87,8.31-46.23,9.3-2.66-7.33-3.56-15.09-7.73-22.34,17.57-7,36.89-10.75,54.7-18.15,21.78-6.25,43.52-12.62,65.3-18.91Zm-1.61-6.5c-17.61,5.29-33.88,11.21-51.59,15.8l-16.32-56.31,49.07-14.22c7.94,14.55,9.67,31.62,15.29,46.93,2.32,1.93,2.21,4.7,3.55,7.8Zm34.92,116.79c-40.14,10.94-78.45,23.95-118.1,35.16-4.95-17.56-11.34-33.79-16.31-51.29,39.47-11.72,78.15-24.5,117.9-35.39,8.47,15.56,10.39,34.31,16.51,51.52Zm18.07,58.13l-118.4,34.31-6.5-22.44c31.88-6.65,28.36-18.96-.95-4.66-4.86-7.59-6.15-16-8.82-23.96,39.74-12.12,78.21-25,118.23-35.74,2.55,12.83,8.27,23.06,11.38,35.26,1.94,5.69,3.41,11.53,5.06,17.23Zm18.94,64.55c33.32-11.36,66.71-20.55,100.96-30.48,21.62,73.8-64.85,86.86-83.55,141.75-12.86-9.44-11.82-27.63-18.66-39.92-1.81,8.61,6.06,21.49,7.51,31.28,4.11,6.53,13.3,10.03,12.49,17.58,4.7,33.09,23.69,43.47-18.41,50.74-2.75-6.69-16.35-73.8-23.71-60.69,16.89,44.71,24.66,93.52,42.69,137.7-5.99,7.15-19.36,6.42-28.23,10.42-4.02-5.26-4.35-14.61-7.07-21.25-11.02-39.95-24-79.15-35.73-118.84-24.18-105.2-66.84-85.69,46.91-116.67,1.68,16.55-5.11,32.38-1.44,48.83,8.46-2.9,2.5-32.63,6.84-42.31,.93-2.82-.27-5.49-.6-8.13Zm-11.58-60.29c39.22-10.67,76.62-24.2,115.74-34.77,6.01,18.41-3.25,38.1-3.04,57.03-31.67,11.94-64.39,19.33-96.37,29.44l-6.86-23.68,28.6-8.29c1.25-2.06,1.78-3.67-1.24-4.75l-28.92,8.38c-2.48-8.25-6.24-14.62-7.9-23.37Zm-3.61-196.01l-51.14,14.82c-20.06-63.6-30.37-51.73,35.57-70.28,7.09,21.94,15.09,50.48,15.57,55.46Zm57.29-17.76c-16.88,5.53-33.68,11.27-50.93,15.91l-16.26-56.1c6.06-2.32,46.06-13.87,51.68-14.94,5.72,17.22,14.97,50.05,15.51,55.12Zm-26.67,40.86c.57,1.62,.51,3.06,1.69,4.23l42.28-12.25c1.2,8.2,7.32,16.32,4.87,23.36-35.7,12.17-73.33,23.72-110.32,34.13-10.84-9.8-12.03-35.13-18.45-50.74,38.08-13.88,77.33-23.11,115.88-35.15,16.43,36.06-10.68,25.15-35.95,36.41Zm66.34,74.87c-37.94,10.47-75.14,23.3-113.03,33.98l-15.38-53.07c37.27-11.86,76.02-19.46,111.58-34.93,.8,1.67,1.97,2.31,3.68,2.11,3.38,16.75,16.53,35.52,13.15,51.91Zm20.99,57.56c-38.42,11.97-78.4,20.89-115.76,34.84l-15.33-52.91c35.76-11.06,72.27-20.37,107.66-32.7,16.05-2.87,11.13,29.59,20.18,39.89,1.59,3.26,2.14,7.04,3.25,10.87Zm-.91-159.05l-38.31,11.1c-2.12-7.62-4.45-14.97-6.43-22.66,13.13-3.78,24.7-8.71,37.92-11.96l6.82,23.53Zm8.19,28.24l-38.03,11.02-6.49-22.41c13.31-2.95,24.78-8.79,37.81-11.76l6.71,23.14Zm-28.17,41.2c-3.03-7.63-3.56-15.9-8.35-23.09,12.95-4.23,25.63-6.32,38.34-12.16,1.21,4.16,2.61,7.87,3.3,11.71,13.93,20.14-21.04,16.7-33.3,23.54Zm1.53,6.14c12.14-6.44,25.33-8.1,37.84-12.59l6.87,23.69c-12.62,2.38-25.56,12.08-37.84,10.88-2.98-7.15-4.45-14.74-6.87-21.99Zm69.49,10.7c-1.4,7.71-39.22,60.95-45.45,67.82-9.26-42.22-33.44-47.35,19.8-60.71,8.23-2.81,17-5.6,25.65-7.11Zm1.72-8.53c-5.02,4.76-14.83,4.61-21.63,7.55l-15.31-52.84,22.59-6.55c5.93,16.37,12.68,34.13,14.35,51.84Zm-16.26-57.72l-23.45,6.8-15-51.76c30.29-15.37,31.38,25.53,38.45,44.96Zm142.79-1.45c-32.11,65.66,29.51,94.73-39.52,161.45-4.86-6-10.76-17.14-5.42-25.1,1.85,5.57,2.13,9.55,4.99,15.2,1.57-14.99-12.93-29.05-5.37-42.25-8.57-7.74,5.87-13.51,12.57-14.84,1.24-23.23-1.2-47.51,3.25-70.31,.23-8.05,1.44-19.66-2.9-26.14-10.07-10.05-30.97-2.24-44.61-1.95,10.65,5.29,42.06-10.41,45.08,8.29,.28,25.59-3.23,52.53-2.87,78.85,1.46,7.18-1.35,10.49-8.07,12.3-7.06,6.14-7.46,5.07-15.77,7,5.1,9.64,10.36,18.84,12.55,29.83-7.45,10.56,.16,21.43,4.35,31.7-30.24,26.92-69.65,47.85-79.92,89.67-2.03-.75-3.73-2.52-6.37-2.33-2.31-10.92-7.26-21.21-8.05-32.56-1.54,.78-1.56,2.6-2.58,3.78,2.23,10.84,8.23,21.39,7.82,32.53,.21,5.99-4.05,13.86-.78,18.83,2.51-6.76,1.39-14.1,3.55-20.84,1.63,.85,3.01,1.97,4.78,1.73,4.53,47.91-13.48,94.59-21.45,141.25-2.34,10.65,5.67,26.48-4.6,33.55-4.69,23.71,5.47,47.89,2.64,73.06,2.87,20.9,14.39,39.24,16.93,60.12-17.4,38.56-25.1,90.53-78.62,85.91-9.19-.43-16.91,10.67-20.66,5.27-6.97-14.04-3.95-28.35-3.48-43.68,20.93-8.38,48.41-9.52,63.37-26.03,9.22-30.69-4.35-44.39-35.07-30.13,3.96-15.58-6.22-28.4-8.73-43.38-11.54-33.15-21.16-67.05-32.83-99.86,1.24-1.89,2.4-3.68,4.03-6.16-3.8-.07-1.64-4.48-5.56-3.85-1.3-8.53-4.69-16.65-4.94-25.49-22.32-58.76,74.97-73.54,79.56-127.15,3.64-23.93-4.59-47.36,2.25-71.3-.57-7.65,1.39-14.64,2.38-22.61-2.78-6.83-3.67-13.2,1.86-17.78,15.28-27.22,47.2-51.28,45.62-84.23-11.8-33.54-16.49-75.14-37.5-103.78-7.01-1.95-13.19-2.1-20.54,.93-6.17-23.83-15.52-48.19,1.99-69.5,40.29,20.26,77.06,46.91,117.88,64.81,.38,1.84-.96,3.07-.01,4.37,16.82-1.94,37.45,20.46,54.29,27.76,2.89,7.55,3.93,15.83,4.51,23.09Zm11.3,1.49c11.84-11.06,23.24-6.56,34.84,1.52,1.6,4.04-4.34,7.48-4.02,11.52,4.54,4.25,7.2-5.03,9.07-7.43l52.43,28.87c1.07,8.88,6.67,16.95,8.57,26.32-31.44,2.33-60.84-31.35-91.57-41.03-1.05-7.85-6.11-13.25-9.32-19.76Zm12.03,28.19c25.36,8.12,48.89,25.74,73.95,38.15-39.77,9.77-56.52,34.86-67.56-20.15-2.63-5.98-5.01-11.82-6.4-18Zm-5.26-53.85c-1.14-6.35,5.86-15,9.4-21.6,30.56,18.71,67.84,24.53,70.21,66.37-27.2-14.31-52.6-30.33-79.61-44.77Zm-10.35,6.5c2.81,1.66,5.22,3.09,8.27,4.9-2.94,.32-4.21,4.36-7.97,2.93-.1-2.58-.2-5.2-.3-7.83Zm51.22-79.25c-36.81,5.19-30.86,45.82-47.2,69.93-2.51-.7-4.12-2.79-6.51-2.36-6.94-15.99-4.49-31.9-2.96-48.93,7.78-21.4,26.2-36.49,47.45-44.23,5.12,7.83,6.04,16.65,9.23,25.58Zm27.46,77.29c-19.29-11.55-38.93-19.56-56.96-30.79-3.52-19.94,12.42-38.88,31.67-42.19,6.7,21.69,15.4,42.94,21.49,64.79,2.53,1.87,2.1,4.69,3.8,8.19Zm-28.16-106.81c12.48-5.55,25.94-7.05,38.95-11.24,1.31,6.9,4.6,12.25,6.5,18.44,9.18-.49-.06-13.35-.27-18.88l26.88-7.79c16.77,59.32,35.65,116.74,52.3,176.25-44.62-12.57-39.5-21.64-52.68-63.51l-4.52,1.31c4.67,16.78,9.87,33.56,15.64,49.83,12.98,8.8,28.45,12.18,43.27,17.92,3.32,12.7,6.25,25.59,9.35,38.51-29.8-16.04-57.93-32.44-87.41-49.05-14.14-50.1-34.09-98.35-48.92-148.35-.42-1.38,.33-2.19,.91-3.43Zm52.63,166.09c120.56,66.62,75.27,29.97,121.15,161.22-7.21,6.15-17.49,5.86-26.43,9.46-11.91-34.01-20.2-68.52-32.25-102.49-10.62-14.33-31.38-26.08-49.14-28.72-1.46-10.93-7.41-20.51-9.97-31.24-1.07-3.09-3.2-4.91-3.36-8.24Zm15.43,45.58c12.74,.66,35.32,14.77,42.72,24.93,11.82,33.24,19.93,68.95,31.72,101.59-11.03,1.94-22.24,9.02-32.82,7.89-7.71-26.27-16.98-52.07-24.26-78.55-4.86-19.06-12.81-36.47-17.36-55.85Zm134.05-319.37c17.41,59.54,2.67,36.01-43.13,56.8-53.81,13.73-106.17,33.67-159.29,47.95,5-3.93,8.07-8.67,6.63-15.3,2.59-32.74-7.06-48.6,35.03-52.6,31.01-15.88,22.16-4.67,50.8-4.72,19.61-5.08,39.18-13.71,58.11-18.38,13.96-1.25,28.1-2.62,41.01-9.17,2.73-3.31,7-2.59,10.83-4.59Zm27.45,360.08c-76.1-25.28-62.39-126.2-92.19-190.54,11.18-1.05,22.64-10.5,32.79-8.91,18.33,62.72,36.19,125.87,54.71,188.34,3.08,3,2.43,7.08,4.7,11.11Zm-94.35-197.39l-10.73-37.01-4.55,1.32,10.72,36.98c-9.41,2.9-16.86,7.2-26.64,9.11-8.36-29.11-18.59-57.2-26.18-86.45l27.03-7.83,8.64,29.82c11.08,2.58-4.09-24.54-4.01-31.38,10.99-2.6,22.03-7.54,32.73-8.84,7.7,28.66,16.9,56.53,25.79,84.78l-32.79,9.5Zm43.88,170.68c0,.05,.01,.14,.02,.3-17.08-10.88-40.87-15.45-39.94-39.29-11.2-38.56-22.35-77.08-33.53-115.65,9.19-2.46,17.94-5.59,26.78-7.54,15.83,53.09,33.13,109.48,46.66,162.18Zm23.72-81.21c22.2-6.07,43.38-13.13,65.21-19.96,17.76,58.87,33.35,118.11,50.13,177.22-29.79-13.18-45.11-24.48-47.8-59.02-7.75-31.56-19.58-61.93-28.14-93.22-2.61-1.64-3.51-1.14-4.42,2.41l36.93,127.42c-34.8-20.08-41.67-22.18-49.96-63.14-6.33-24.37-15.87-47.04-21.94-71.71Zm37.94-113.38l25.38,87.58-30.12,8.73-25.49-87.97c10.12-2.75,20-6.16,29.97-8.48,.18,.06,.34,.19,.27,.15Zm-9.42,97.75c-9.99,4.34-19.41,7.2-29.97,9.93l-25.85-89.2c9.94-2.22,19.88-7.07,29.56-7.81,8.65,28.97,18.46,57.76,26.26,87.08Zm-83.6-170.22l29.24-8.47c6.88,35.44,19.73,30.23,4.45-1.43,10.75-3.94,20.05-7.43,31.63-10.39,7.06,29.53,18.91,57.36,25.9,86.74-10.83,1.44-22.16,10.02-32.25,6.91-4.48-22.31-11.42-14.44-3.83,3.42l-29.21,8.46c-5.45-19.45-11.37-38.08-16.56-57.46-3.53-9.18-6.96-18.19-9.37-27.79Zm190.74,366.64c-5.88,14.22,15.15,29.81,1.98,43.42-53.94-24.99-107.87-64.72-160.82-84.72,15.28,14.18,40.3,21.92,56.77,35.32-23,43.91-71.46,46.54-114.16,60.05-28.35-21.11-27.73-56.98-44.09-84.75l-4.12,1.2c8.13,16.33,12.97,34.6,18.91,52.4,3.12,15.44,18.61,24.34,26.71,37.08,12.83,33.7,28.34,65.4,40.97,99.32,9.77,18.94,16.57,39.77,25.62,59.44,7.25,23.78,3.3,50.03,8.32,74.58-.02,27.45-13.48,54.59-10.53,82.47,8.72,42.2,57.95,68.51,63.78,113.11,11.77,46.46,18.59,96.08,32,140.96,15.67,27.59,39.13,51.65,56.1,78.67-1.46,2.71-.05,4.87,.64,6.95,3.53,7.18-1.12,14.49-.02,21.58-5.97,16.41-21.17,23.22-30.61,36.91-14.96,25.4,2.98,57.92-7.55,82.46-16.63,3.45-30.15,7.69-29.59,27.24,6.24,11.09-5.76,22.42-9.85,32.22,1.29,9.33,5.8,19.08,.4,26.89-12.56-11.47-23.59-27.51-36.91-37.51-1.6,14.27,29.15,29.11,33.62,44.17-3.02,2.28-4.18,6.07-8.3,7.3-20.87-9.4-50.26-31.67-69.78-8.98-5.79-9.95-16.33-17.85-19.59-28.77,10.64-8.49,26.2-15.41,30.26-29.48-6.6-12.72-3.05-42.62-23.68-37.31-11.51,15.02,6.55,33,7.79,49.98-8.71,6.06-18.11,19.68-25.79,6.6-12.52,2.03,30.88,37.38,28.87,47.5-7.04,54.95-66.67,58.47-101.02,26.05-1.72,.39-1.37-1.12-1.78-1.93-8.12-3.3-12.12-14.92-21.89-16.26-2.37-13.61-8-26.05-15.51-37.07-3.72-11.11-11.64-19.46-14.9-30.75l8.79-2.55c-27.02,9.98-32.28-106.76-54.09-124.15-14.53-18.66-41.24-17.49-59.54-30-19.74-14.76-23.98-40.74-33.48-62.22-4.01-17.49-15.75-31.63-21.34-48.3-29.65-35.07-13.35-74.5-13.72-115.2,1.78-22.1-10.92-41.37-10.52-63.21,1.12,1.59,1.54,2.18,1.98,2.81,1.39-2.52,2.71-4.91,4.03-7.31,1.49,.84,2.85,.79,3.82-.14-2.83-3.57-6.06,.5-9.08,1.42,30.61-76.15,26.41-82.33-10.44-155.05-27.44-51.37-22.31-103.83-5.57-158.53,9.57-47.38,.03-103.1,48.97-130.96,134.62-103.83,43.61-124.3,79.9-192.55,8.69,14.09-3.32,5.77-1.77,13.67,13.14-13.84,13.13,31.87,20.62,39.11,16.23,30.73,4.57,31.73-5.33,60.78-7.58,17.22-10.85,37.03-24.07,50.99-4.08,3.2-14.67,8.74-11.76,14.4,36.71-18.24,35.66-68.86,56.89-99.79,7.12,2.7,18.13-6.77,19.22,4.52,5.13,21.07,14.12,41.26,18.99,62.18,1.36,.39,1.98,1.47,3.51,.85-.75-23.02-14.66-47.95-20.07-71.26,30.97-11.56,22.71-6.82,31.89,20.89q3.51,1.1,5.61-1.98c-4.33-8.91-6.69-18.7-9.54-28.24,8.17-1.64,13.67-5.23,21.41-6.99,17.11,50.3,31.76,103.17,48.1,153.93,12.49,11.66,53.23-12.46,69.75-13.49,16.65-9.77-25.05-91.77-25.84-114.92,37.13,20.38,74.31,38.92,110.59,60.45,26.15,15.56,53.66,29.21,79.86,44.49Zm-173.54,862.83c8.43-24.07,26.84,34.29,11.61,34.89-4.38-11.68-5.82-24.14-11.61-34.89ZM1320.32-119.66l25.37,87.53-26.97,7.82c-10.4-27.2-16.79-55.71-25.4-83.62-.58-9.26,19.48-8.19,26.75-11.88,.17,.07,.32,.2,.25,.16Zm62.49,212.78c-12.92-7.11-25.77-14.19-38.63-21.27-7.5-30.09-18.34-60.05-23.27-90.41l26.63-7.72c10.86,29.36,17.33,59.86,28.1,89.28,2.73,9.47,8.84,20.82,7.17,30.12Zm.02-137.11c-10.39,3.59-21.37,4.76-30.62,10.1-13.11-27.56-17.31-58.37-27.32-87.55l26.75-7.75c1.07,1.4,2.82,1.43,3.95,1.58,14.79,24.92,17.14,56.29,27.24,83.63Zm46.74,161.33c-13.57-3.77-26.82-14.91-40.55-21.4-8-41.87-25.52-82.22-35.81-123.89l31.62-9.16c5.35,17.6,9.25,34.73,16.21,51.56,9.39,34.31,20.92,68.25,28.53,102.89Zm20.25,27.6c2.02-.37-.02-2.02,.25-2.27,11.31,6.23,22.38,12.32,33.59,18.5,12.12,53.96,31.85,107.33,46.77,160.88-8.79,2.78-16.39,4.52-25.1,6.01-15.5-43.62-25.64-89.25-40.77-133.26-5.89-16.15-9.86-33.01-14.74-49.85Zm-2.62-106.19l-30.49,8.83c-7.57-29.64-18.61-58.11-26.19-87.48l30.13-8.73c7.73,24.56,12.93,49.82,22.47,73.76,1.99,4.15,2.71,8.92,4.08,13.62Zm28.93,95.61c-15.66,8.29-27.66-7.42-40.36-13.02-1.8-22.53-12.21-44.51-16.63-66.8l30.1-8.72c5.26,18.39,10.52,35.83,15.64,54.1,4.6,11.13,7.94,22.89,11.24,34.45Zm5.94-105.52c-10.25,2.46-20.43,6.92-30.45,8.26-8.04-29.37-18.69-57.63-26.47-87.12l31.43-9.11,25.49,87.97Zm25.77,95.65c-9.45,.84-17.5,7.13-27.2,8.56-7.97-30.16-18.8-58.56-26.92-88.66,10.81-2.55,19.87-6.62,29.97-10.06,6.93,30.15,21.18,60.82,24.15,90.16Zm15.2,45.07c-16.87-9.29-33.62-18.51-50.5-27.8,11.6-3.5,23.77-6.36,34.84-11.48,5.84,3.89,4.68,10.17,8.74,15.43l6.91,23.85Zm16.05,46.74c-2.47,2.18-5.6-.72-8.02,2.09-.22,.94-2.86,3.7-.47,4.48,2.88-3.37,5.74-4.76,9.17-3.39l26.66,92.01-30.32,8.79c-14.81-52.44-32.33-103.75-46.33-156.22,20.07,11.65,43.93,17.42,45.76,44.14,2.77,2.2,2.25,5.51,3.55,8.11Zm402.11,628.06l2.35,8.11c-6.43,.51-11.26,4.97-17.86,6-.88-7.94-6.22-14.32-7.25-22.21,19.53-5.17,37.96-11.86,57.04-17.75l6.22,21.45-18.09,5.24-1.6-5.5c-7.46-.39-13.79,3.07-20.81,4.66Zm3.31,1.66l6.25-1.81c2.54,3.86-1.12,6.81-4.62,7.29-.93-1.77-1.46-3.65-1.63-5.48Zm14.99-4.45c7.21,3.43-1.52,8.98-5.4,4.57-2.03-3.87,2.65-3.46,5.4-4.57Zm-28.46-151.08l-24.84,7.2c-14.96-54.15-32.47-106.95-47.85-160.89,8.76-1.48,17.15-7.74,24.46-4.27,11.53,41.44,25.13,81.36,36.8,122.62,2.66,12.24,8.62,23.03,11.42,35.35Zm36.92,123.87l-24.66,7.15c-10.67-39.79-24.23-78.12-35.38-117.85l24.84-7.2c7.42,23.84,13,48.11,21.01,71.62,5.8,15.05,10.09,30.84,14.18,46.28Zm-115.84-282.14l-26.1,7.56c-20.95-45.68-25.13-103.22-46.83-149.63-10.87-17.81-34.51-27.33-37.47-49.6,21.23,8.62,43.81,22.15,63.65,34.58,8.28,28.1,16,56.14,24.44,84.13,6.28,24.68,15.85,48.28,22.3,72.96Zm-112.93-162.94l9.35-2.71c18.99,15.84,32.24,33.9,35.79,58.66,12.64,38.4,22.84,77.9,32.78,117.1l-24.54,7.11c-11.67-36.74-21.05-74.33-33.41-110.94-7.55-22.71-14.19-46.04-19.97-69.22Zm162.49,329.71l-26.89,7.79c-15.6-52.62-32.89-104.24-48.17-156.99,1.45-1.11,1.6-2.62,1.59-4.28l25.62-7.43c8.85,31.14,18.1,61.41,26.71,92.49,8.29,22.37,14.44,45.47,21.14,68.4Zm37.13,123.91l-26.71,7.74c-11.58-38.86-24-77.72-35.48-116.77,9.33-3.24,16.87-7.08,26.74-9.1,7.98,27.51,15.82,54.93,23.94,82.39,3.01,12.17,9.11,23.2,11.51,35.74Zm-38.78,81.81l-17.95-57.91c.03,.17,21.28-6.52,31.28-8.87,5.61,15.7,12.84,43.3,17.64,57.8l-30.97,8.98Zm-95.67-215.99c-12.34-34.36-13.19-79.57-47.3-100.05,8.48-24.89,4.65-25.96,32.55-31.82l9.96,34.36c11.16,2.74-5.41-28.8-5.32-35.79l24.31-7.05c19.15,52.64,33.57,107.65,50.74,161.37-8.3,.74-21.29,9.14-27.36,7.1l-19.59-67.61c-.95-.27-1.56-1.3-3.17-.87-.09,.58-.25,1.55-.41,2.52-.26-.15-.52-.29-.78-.44,6.8,23.46,13.6,46.92,20.09,69.34,10.48,8.03,21.27-4.26,32.56-5.41,10.63,40.15,24.6,78.08,35.52,118.35-19.16,7.21-39.28,12.2-59.34,18.18-4.12-10.17-5.01-20.81-10.12-30.14-1.92-45.18-18.13-88.88-32.33-132.04Zm-16.59-137.82l-24.84,7.2c-16.86-60.63-36.02-119.88-53.46-180.24,8.55-1.9,16.94-6.05,25.02-6.6,9.31,32.75,19.27,65.36,28.35,98.16,9.55,26.77,16.97,54.16,24.93,81.47Zm-161.56-456.13c10-2.48,19.77-6.55,29.32-8.04,8.47,29.24,16.9,58.32,25.28,87.25-6.68,5.93-18.63,5.8-27.66,9.58-4.08-14.26-7.78-27.28-13.15-40.82-4.3-16.1-9.2-31.92-13.8-47.96Zm59.99,177.07c.41,1.83,.58,2.56,.84,3.69-13.63,4.99-27.57,8.84-41.65,11.55l-12.74-43.95c2.37-.17,3.56,.95,4.87,1.65,16.55,8.2,32.13,19.23,48.68,27.06Zm-37.77-87.03l-30.19,8.75c-8.03-29.95-18.89-58.43-26.98-88.46l28.93-8.38c10.28,22.85,14.59,47.58,22.35,71.3,1.95,5.74,5.14,10.93,5.88,16.8Zm19.21,197.5c-8.18,5.95-21.11,6.38-30.99,10.33-7.76-30.18-18.92-58.47-26.93-88.69,10.38-3.96,21.2-4.14,31.9-8.17,8.59,29.62,16.43,58,26.02,86.53Zm-74.01-173.7c5.96-4.24,13.41-5.17,20.53-7.61,2.05,7.79,4.75,15.01,6.25,22.36-8.99-4.95-17.97-9.89-26.78-14.75Zm26.77,14.76c-.05,.14-.11,.23,0,0h0Zm17.96,175.2l31.43-9.11,25.49,87.97c-30.83,9.16-30.43,14.8-38.36-18.84-5.64-20.15-13.5-39.56-18.56-60.02Zm118.48,167.74c-3.08,43.36-58.82,41.08-90.01,54-1.2-9.35-7.24-16.62-8.03-25.83,12.37-3.9,26.91-6.95,38.14-11.87,1.36-11.76-32.07,8.08-39.81,7.45-8.18-29.89-18.52-57.89-26.62-87.64l31.62-9.16c3.66,15.91,10.71,30.74,14.63,46.43q2.31,.92,5.15-.13c-4.56-15.95-10.84-31.35-15.22-47.44l30.29-8.78,25.45,87.82-12.89,3.74c-1.46,2.56-1.43,3.75,2.77,4.3l44.52-12.9Zm-124.69-172.29l-31.43,9.11-25.46-87.87,30.3-8.78c7.87,30.11,17.93,57.97,26.59,87.54Zm28.04,93.37l-31.18,9.04c-8.26-29.39-18.85-57.67-26.75-87.3l31.62-9.16c6.27,22.4,13.24,44.26,19.2,66.65,1.63,7.27,6.31,13.48,7.11,20.77Zm96.7,72.44l-27.84,8.07c-19-59.61-36.61-120.02-53.01-180.36,27.86-8.33,28.24-13.57,35.14,17.34,9.97,33.02,18.23,66.64,29.96,99.03,4.86,18.7,11.58,37.18,15.75,55.92Zm-54.96-186.89c-10.07,1.41-18.29,7.51-28.05,8.81-9.6-29.17-14.92-59.47-26.66-87.35l30.6-8.87c8.94,29.38,15.07,58.14,24.11,87.41Zm-51.77-182.16l16.88,58.23c-23.32-11.74-44.88-20.46-46.92-49.53l30.05-8.71Zm179.07,618.95c-8.27-.61-14.38-7.11-22.62-5.93-7.53-1.19-15.19,2.16-22.53,4.08l-41.88-144.5c14.77-5.83,29.12-9.97,44.68-14.2,13.1,48.02,28.66,94.3,42.33,141.97-.33,6.14-.02,12.29,.02,18.59Zm-136.23,69.29c28.1-11.48,42.33-43.02,70.86-55.26,23.38-10.92,40.29-20.44,65.53-6.76,3.97,13.07,6.11,23.37,12.07,36.27-47.03,9.46-82.67,42.55-119.38,71.72-7.76-4.53-10.26-14.53-17.7-19.96-3.49-5.86-6.62-13.28-8.38-20.4-.35-2.25-1.48-4.14-3-5.63Zm85.47-68.81c-19.66,9.26-38.46,18.72-53.28,34.85-10.47,9.77-18.65,25.12-34.18,25.98l-17.9-61.76c106.74-22.19-39.81-128.72,62.41-144.07,14.6,48.62,29.2,96.24,42.95,145Zm-23.58-216.37c16.63,11.56,25.32,30.22,30.35,49.68-98.76,28.76-111.66,17.92-75.4,124.17-1.27,21.02-19.03,31.85-38.3,34.84-6.73-15.72-8.62-34.11-16.26-49.94-6.73-38.48-43.23-89.29-1.75-118.64,31.85-18.62,72.07-17.44,101.35-40.11Zm-218.44-403.57c11.17,6.15,22.58,12.43,33.81,18.62-8.32,2.06-16.92,5-24.78,8.52l-4.44-15.31c-1.31-4.14-4.19-8.08-4.59-11.82Zm86.76,308.04c-10.86,1.98-19.72,7.78-30.31,9.45-8.02-29.81-17.31-57.99-26.58-87.48,10.88-1.63,19.75-7.89,30.3-9.48,8.03,25.23,13.21,51.03,22.98,75.58,1.88,3.51,2.4,7.76,3.61,11.93Zm28.26,93.29l-31.43,9.11-25.17-86.84c45.18-18.4,29.31,3.78,43.77,37.45,3.84,13.55,9.91,26.27,12.83,40.29ZM1519.36,17.82l-31.35,9.08c-6.35-19.06-24.51-82.85-25.04-87.79l30.98-8.98,25.41,87.68Zm-29.8,15.08l31.44-9.11,25.82,89.1c-9.67,3.63-20.8,4.27-29.34,9.84-2.57-1.75-3.11-4.15-3.79-6.52-8.02-27.78-16.08-55.53-24.13-83.3Zm81.57,163.91c-13.4-7.38-26.24-14.45-39.27-21.62-8.81-30.17-27.49-51.25,16.87-56.38,3.09,10.03,5.18,20.11,9.6,29.7,5.49,15.71,9.69,31.88,12.8,48.31Zm53.86,41.56c4.61,16.62,10.12,33.53,14.4,50.47-21.04,6.93-44.37,13.32-65.24,20.44-13.26-27.03-17.19-57.89-27.12-86.51,9.6-1.57,17.49-6.95,26.63-8.75,17.95,.18,34.48,17.8,51.33,24.35Zm-70.71-121.53c11.47-2.45,20.37-7.43,31.41-9.89,7.84,29.92,18.68,58.75,26.64,88.54-13.07,2.23-25.62,12.57-36.77,3.41-2.18-27.74-14.8-54.41-21.28-82.05Zm1.15-109.37l-31.27,9.06-25.5-87.98c10.66-1.1,21.67-9.88,31.36-8.74l25.4,87.66Zm28.45,93.23l-31.62,9.16c-5.99-29.48-22.21-59.01-24.97-87.91,41.08-15.34,28.75-4,41.05,29.15,3.94,17.04,11.25,32.54,15.54,49.6Zm69.67-20.15l-28.68,8.31c-6.55-19.45-13.51-18.23-6.12,1.84l-29,8.4c-23.01-70.61-41.32-142.09-64.07-212.75-9.28-25.12-11.69-53.7-29.3-74.28,3.38-18.42,6.59-35.9,9.83-53.5,61.86,17.72,73.02,83.15,88,137.17,15.73,28.38,21.87,61.19,32.53,92.03,9.99,30.46,18.41,61.94,26.8,92.78Zm57.79,189.68c-7.28,9.51-23.35-11.89-33.71-13.83-13.72-17.93-14.09-45.7-22.77-67.03l28.07-8.13c8.27,23.16,14.12,46.2,22.58,69.3,2.59,6.29,3.92,13.09,5.83,19.69Zm12.93,22.38c-5.56,23.27,10.77,46.5,18.57,67.98l-35.26,10.22c-8.39-28.95-16.71-57.68-25-86.27,1.87-4.32,8.54-2.57,11.51-6.42,7.1,2.53,12.47,7.88,20.04,9.07,3.57,.56,6.77,3.53,10.14,5.42Zm-6.28-11.62c.84-2.92,1.76-6.09,2.61-9.02,89.13-28.53,57.78-21.7,85.93,56.45-14.65-12.27-52.95-15.68-32.04-38.8-5.02-8.2-9.64,10.43-13.44,13.67-10.26-6.42-21.01-9.98-31.87-14.84-4.05-1.53-7.88-3.87-11.18-7.47Zm-54.36-306.29l-28.36,8.22c-5.39-28.74-30.59-71.14-22.59-97.8,8,.66,16.32-2.19,24.77,.93,1.76,3.13,.71,7.65,2.54,11.36,9.43,25.17,15.84,51.51,23.64,77.29Zm28.7,94.8c-9.99,2.49-19.77,6.53-29.31,8.05l-25.7-88.68,28.06-8.13c3.01,10.4,6.14,20.3,8.72,30.34,6.86,19.29,12.72,38.64,18.23,58.43Zm28.26,93.3l-30.31,8.78-25.41-87.7,29.18-8.46c7.51,23.96,12.57,48,21.62,71.2,2.57,4.87,3.34,10.69,4.93,16.17Zm-19.51-198.76l-32.68,9.47-25.04-86.4c9.01-4.83,23.83-15.53,32.33-5.96,6.78,22.93,13.47,47.27,20.6,70.79,3.27,3.49,2.88,8.12,4.79,12.1Zm27.06,93.86c-10.63,4.19-22.1,3.91-31.12,10.89-8.57-30.07-16.91-59.73-27.07-89.2l31.62-9.16c3.02,10.41,6.22,20.49,8.82,30.71,6.63,18.81,12.47,37.44,17.75,56.76Zm-29.68,16.09l31.68-9.18c7.25,27.81,18.12,55.82,22.94,83.91-3.98,10.55-18.65,8.25-27.97,12.78-7.74-30.04-17.97-58.08-26.66-87.51Zm83.06,173.93c-20.53,4.65-41.82,14.68-61.82,16.47-9.32-28.33-17.1-58.44-27.84-85.82,20.38-6.26,39.75-13.44,60.37-18.72,1.26,1.43,2.29,3.14,4.95,2.46,5.26,17.84,9.63,34.86,16.06,52.14,2.97,10.5,9.51,22.98,8.28,33.46Zm-22.07-199.28l-25.7,7.45c-8.71-29.26-16.17-58.9-26.65-87.36l26.93-7.8,25.42,87.71Zm33.18,93.36c-9.6,.07-30.4,15.32-33.66,4.05-4.56-28.2-16.1-55.08-23.2-82.98,10.19-3.09,21.36-10.34,31.43-8.83l25.43,87.75Zm28.85,94.36c-31.95,9.26-33.17,16.48-41.14-19.32-6.83-33.7-38.15-63.96,14.43-69.44,9.28,29.8,18.37,58.71,26.71,88.76Zm1.53,5.91l25.48,87.91-16.24,4.71c-.84,2.65-3.56,3.71-4.22,6.15-28.65-14.33-23.66-59.12-36.65-86.05,5.54-9.72,22.01-7.9,31.63-12.71Zm4.15-111.67l-28.89,8.37c-9.96-29.13-18.21-57.59-26.8-87.85,10.87-.83,19.5-4.33,29.77-7.07,7.53,29.52,18.4,57.37,25.92,86.55Zm28.98,94.47l-30.3,8.78-25.48-87.91c9.8-3.13,18.4-7.52,28.63-9.57,5.81,16.68,9.31,33.8,15.73,50.07,4.87,12.45,7.49,25.8,11.41,38.62Zm28.16,93.82c-10.34,3.52-19.04,6.98-30.11,9.69-9.01-29.68-18.31-57.93-26.5-87.69,10.35-3.82,19.24-7.64,30.13-10.05,5.92,22.57,14.75,43.45,20.34,66.01,2.04,7.26,4.47,14.43,6.14,22.04Zm3.3,6.28c5.81,19.47,10.56,39.11,17.99,57.68-14.45-6.39-26.82-13.92-40.89-20.75-57.71-23.97-9.35-26.13,22.9-36.93Zm-9.57,195.54c-3.64,6.43-14.73,6.31-20.87,10.23-16.09-52.19-32.54-105.42-47.54-158.09-20.98-15.22-46.46-30.47-70.8-37.96-3.24-13.37-14.6-25.06-8.25-39.16,36.94,16.34,71.18,38.77,106.57,58.01-4.26,53.44,31.2,112.78,40.9,166.98Zm32.49-6.61c-8.71,1.44-18.12,8.5-25.62,3.42-13.88-39.47-23.86-78.1-35.8-118.21,11.13,7.04,24.1,11.19,32.67,19.81,3.16,10.9,6.51,21.74,9.42,32.71,7.21,20.55,13.45,41.26,19.33,62.28Zm50.59,166.13c-7.65,5-16.17,5.97-24.36,8.84-15.66-53.08-33.25-104.99-48.31-158.27,5.88-5.99,15.02-7.35,23.77-10.9,15.41,51.67,31.43,103.02,46.18,154.68,2.41,1.62,1.76,4,2.72,5.65Zm12.41,131.51c-5.74-22.74-26.44-87-35.09-116.85l24.84-7.2c11.78,39.17,21.47,78.4,35.1,116.84l-24.86,7.2Zm20.5,65.74l-57.8,16.75-9.45-32.61c5.35-4.35,11.46-5.22,17.09-7.03,1.53,1.73,.94,4.05,2.66,5.51,19.53-1.31,2.85-8.56,15.4-11.79,2.75,8.34,8.62,16.72,5.37,26.43l1.13-.33c6.46-18.46-17.88-27.41,13.93-32.19,1.63,7.9,6.87,17.5,8.66,25.64,.24,.83,1.42,4.57,3.01,9.61Z"/></svg>