<?xml version="1.0" encoding="UTF-8"?><svg id="Layer_1" xmlns="http://www.w3.org/2000/svg" xmlns:xlink="http://www.w3.org/1999/xlink" viewBox="0 0 390.97 525.17"><defs><style>.cls-1{fill:#0f0f0f;}.cls-2{fill:#171a1f;}.cls-3{clip-path:url(#clippath);}.cls-4{fill:none;}</style><clipPath id="clippath"><rect class="cls-4" x="-495.03" y="-150.89" width="1366" height="1007.98"/></clipPath></defs><g class="cls-3"><g><polygon class="cls-1" points="-328.51 -396.66 -329.36 -393.43 -338.42 -359.07 -347.82 -323.42 -350.55 -313.05 -367.81 -247.59 -371.4 -233.97 -372.26 -230.73 -390.54 -161.38 -391.91 -156.19 -400.8 -122.48 -401.14 -121.19 -402.17 -117.3 -429.34 -14.24 -465.06 121.24 -529.32 364.96 -538.21 398.66 -539.06 401.9 -540.43 407.09 -530.71 409.65 -527.47 410.51 -500.89 417.52 -495.7 418.88 -467.83 426.23 -464.59 427.09 -436.72 434.43 -432.83 435.46 -404.31 442.98 -401.07 443.83 -372.55 451.35 -369.31 452.21 -340.79 459.73 -337.55 460.58 -309.02 468.1 -305.78 468.96 -278.56 476.14 -275.32 476.99 -249.39 483.83 -244.21 485.19 -228.65 489.3 -225.41 490.15 -208.55 494.59 -205.31 495.45 -188.46 499.89 -185.87 500.58 -169.01 505.02 -165.13 506.05 -148.92 510.32 -146.33 511 -128.83 515.62 -125.59 516.47 -87.99 526.38 -84.1 527.41 -48.45 536.81 -44.56 537.83 -28.36 542.11 -25.12 542.96 -8.26 547.4 -5.02 548.26 25.44 556.29 28.68 557.15 58.5 565.01 65.63 566.89 98.04 575.43 101.28 576.29 117.49 580.56 120.08 581.24 137.58 585.86 140.82 586.71 170.64 594.57 173.88 595.43 203.7 603.29 206.94 604.15 236.75 612.01 239.99 612.86 275.65 622.26 284.07 624.48 323.61 634.91 326.85 635.76 341.76 639.69 345.65 640.72 360.56 644.65 363.15 645.33 376.12 648.75 378.71 649.44 400.1 655.08 405.93 656.61 455.84 669.77 475.29 674.9 535.57 690.8 539.46 691.82 567.33 699.17 571.22 700.2 605.58 709.25 610.76 710.62 641.87 718.82 645.12 719.68 658.08 723.1 783.83 756.25 837.15 554.02 841.08 539.11 847.41 515.13 864.16 451.6 931.49 196.21 935.08 182.6 935.94 179.36 960.38 86.67 961.23 83.43 979.35 14.72 980.2 11.48 987.55 -16.39 988.4 -19.63 994.9 -44.27 995.75 -47.5 -328.51 -396.66"/><path class="cls-2" d="M981.89-18.58c.47,1.76,4.08,1.34,5.66,2.19l.85-3.24c-2.95-.58,1.33-4.77-.71-6.43-.28-.07-10.8-2.85-24.33-6.42l4.96-18.8-2.59-.68c-.29,1.1-3.22,11.13-5.41,18.68l-33.25-8.77c4.63-5.06,5.81-6.7,6.83-12.76,.82-1.71-.1-3.65,.72-5.36l-2.59-.68c-.94,1.69-.18,3.61-.72,5.36,.11,6.28-5.32,7.81-7.23,12.65l-20.97-5.53c-1.88,7.13-7.54,29.59-10.51,35.97-11.94-2.52-29.46-8.49-39.71-12.79l12.94-47.56,11.67,3.08-10.89,41.31c6.55,.84,11.89-41.63,13.49-40.62,1.25-5.09-10.72-4.53-13.59-6.32-5.83-5.15-15.06,47.34-16.96,48.57-11.05-3.6-21.17-12.44-29.79-20.11,2.71-12.53,10.97-27.99,13.74-39.97l-3.24-.85c-2.36,11.47-10.02,26.38-12.72,38.43-1.83,.9-2.27-1.38-3.65-1.15-30.02-25.24-31.95-4.29-21.87-47.36l-2.59-.68c-2.67,10.41-4.92,20.83-6.85,31.23,25.52,15.55,17.9,5.47,5.41,29.29-10.1,34.36-19.3,68.9-28.62,103.45-7.6,19.44-10.3,44.97,13.48,53.65l-3.84,14.57c-11.01-1.71-21.76-6.68-32.57-7.4l-.35,1.33c2.68,2.75,7.03,2.56,10.62,3.87-5.17,16.43-7.59,34.97-14.16,50.31-1.99-.42-8.82-3.25-6.63,.99l6.78,1.79c-4.65,17.29-9.7,33.59-14.04,51.1-17.23-2.42-15.84-6.45-11-21.37-.78-.68-1.74-.56-2.54-.9-.81,7.05-6.74,14.7-2.33,20.88,12.02,2.76,23.62,7.07,35.72,10.23-3.98,17.09-9.66,33.16-13.74,50.33-40.41-8.94-37.7-21.67-48.12,24.01-6.57,26.69-16.1,52.96-21.09,79.87-15.33,8.93-30.46,17.75-45.6,26.57,3.85-25.73,6.75-6.7-1.86-33.22,.54-25.07-7.86-33.65-19.91-53.33-5.46-13.38,.71-27.19,2.99-40.74,3.71-12.75,3.31-27.82,9.71-39.01,6.46-15.19,14.06-30.5,21.58-45.05,4.65-10.73,12.49-22.64,1.65-32.55,11.34-38.71,18.69-79.35,32.12-117.1,7.79-10.43,19.78-19.29,22.56-32.44-2.63-15.34-7.72-27.7,1.31-41.57,5.62-12.91,4.14-21.77,20.95-24.04,.59-6.27-27.1,5.59-32.86,5.3-24.14,2.47-42.75,17.24-63.45,27.42-46.39-7.59-16.51-48.87-32.16-63.1-2.08,.55-3.96-.53-5.9-.88-.32-.78,.54-.56,.57-.99-.55-.91-1.38-.26-1.56,.59-5.83-.25-6.92-4.83-7.42-9.6,10.31-1.01,23.9-4.73,9.86,7.8,2.51,2.82,10.14-8.9,5.86-10.63l.92-3.48c9.42,10.55,10.34,30.37,8.91,44.81,.7,.6,1.54,.72,2.43,.77,5.45-19.18-5.06-36.6-8.75-54.99,9.68-22.27-8.07-18.41-24.63-18.59-1.16-4.97-10.95-9.09-4.19-13.13,4.24-4.26,11.27-10.64,10.45-16.67-5.36,2.87-7.38,11.71-13.12,15.28-9.05,7.71-22.23,14.39-33.99,15.27-12.65-4.49-5.01-17.1-18.44-27.8-13.16-16.53-38.72-7.22-52.27,4.25-3.84,3.17-6.55,7.82-10.81,10.39-14.18-6.72-20.56-23.33-28.66-36-2.65-6.21-10.7-6.58-14.77-11.25-6.96-10.52,1.45-23.55,3.7-34.62l-5.19-1.37c-.64,3.87-2.45,6.96-3.38,10.72-15.51-3.6-30.23-9.11-45.72-12.57-.36-1,.08-2.39-1.76-2.47l2.24-8.49-3.24-.85c-.88,3.29-1.41,6.91-3.88,9.38-15.22-3.03-29.86-7.15-44.88-11.14l2.73-10.37-6.48-1.71c-1.13,3.51-1.15,6.9-3.66,10.13-15.86-3.84-31.58-8.91-47.55-13.09l2.6-9.86-3.89-1.03-2.48,9.39c-2.92-.25-36.81-9.01-47.38-12.25l2.53-9.61-3.89-1.03-2.48,9.4c-2.77-.25-28.35-6.84-36.49-9.42,3.37-2.7,7.03-4.54,9.8-7.66l-4.54-1.2c-30.88,20.04-29.02,35.11-38.2,68.63-16.29-2.68-32.84-8.41-48.94-11.31l3.7-14.02c30.79,9.59,32.63,4.34,.76-2.64l3.6-13.64c8.36,.47,25.21,10.29,30.31,5.63,.93-.75,2.01-1.62,3.97-.68-.79-1.41-2.08-.92-2.73-1.92,1.98-2.53,2.51-6.06,3.84-8.96-.67-.24-.93,.53-1.42,.51-1.38,3.6-1.84,7.51-4.69,10.35-9.08-2.39-18.36-4.84-27.64-7.29-16.74-6.08-34.23-9.25-51.13-14.87,.69-1.29,.37-5.7,2.67-4.11,3.15,2.77,8.13,1.12,10.63,4.66,1.88-1.42,4.28-.97,5.45-3.12,1.87,0,3.58,1.44,5.72,.74,0,2.5-3.4,7-.78,8.06,.98-2.37,1.31-4.99,2.16-7.45,.99-.3,1.75-.09,2.06,.95,6.56,3.78,10.43-10.89,4.54-12.97,0-2.12,2.96-6.18,.72-7.15-1.77,2.58-.48,5.76-1.87,8.5l3.19,.84c-1.7,12.82-5.02,9.88-15.51,6.96,.09-3.28,4.04-8.77,1.51-10.62-2.23,6.77-2.52,17.91-12.38,11.25-11.27-.03-3.62-10.34-2.76-17.25,2.48-.85,4.63,.9,7.18,.99,.29-1.41,2.07-2.29,1.68-4.2l-.98-.26-1.01,3.83c-12.47-6.47-9.82,11.98-13.63,19.83-11.38,.56-29.08-10.92-37.29-5.9,10.14,4.25,21.84,4.79,32.4,8.23l-7.86,29.82c-91.91-20.18-13.58-15.35-50.16-65.97q-1.62,.56-2.16,1.96c4.73,7.32,10.67,15.85,10.05,24.81-4.18,5.77-2.03,15.36-7.66,19.75-12.06-21.13-24.92-41.83-37.63-62.55-8.95-9.58-2.21-11.75,4.72-18.88l-3.89-1.03c-7.98,12.46-10,7.32-14.26-3.76l-7.78-2.05c3.21,7.93,8.07,14.94,12.22,22.39-6.36,7.3-10.84,16.37-14.37,25.32,2.17,2.55,8.83,5.46,10.71,1.3-2.07-1.71-4.79-.67-7.02-1.47,2.1-7.81,6.49-16.1,12.15-21.79,7.94,9.89,13.34,21.34,20.3,32.09-2.99,8.12-5.51,17.92-4.11,26.72,13.42,14.37-3.02,20.47-14.49,27.07-3.24-1.19-2.51-4.65-4.31-6.37,.02-22.85-8.79-43.71-28.97-55.54-2.3-2.45-2.23-2.5-3.04-6.07-3.84-11.92,3.39-26.86-4.9-37.75-3.79-8.33-15.39-11.61-19.55-17.87l-11.02-2.91c40.29,28.45,26.71,19.54,32.83,63.33,8.16,8.72,19.32,14.91,25.26,25.75,6.84,15.29,1.76,35.37,15.92,47.03,24.29,9.98,52.2,12.99,77.27,21.59,3.47,6.06,10.64,8.34,13.38,14.7-6.68,5.46-13.89,12.1-15.96,20.85-.7,2.62-3.01,12.45,2.4,9.7-1.97-11.9,6.68-22.57,16.22-28.52,12.11,13.72,23.69,28.17,35.37,42.21,3.36,2.07-6.4,7.99-8.99,8.59-3.86,2.75-16.21,3.04-15.05,8.44,9.95-2.62,19.51-6.2,27.24-13.29,10.65,12.18,21.03,24.49,31.79,36.92-10.26,4.83-19.92,8.16-30.32,12.57-4.12-4.64-6.29-23.21-12.51-21.06,3.28,7.49,6.49,14.84,9.71,22.2-6.21,2.73-12.61,4.7-18.79,7.65-3.44-8.45-8.05-33.7-18.37-14.84-17.48-1.77-26.19,13.37-33.79,26.35-33.15,11.74-14.25-41.5-1.46-52.52,7.01-8.62,3.48-20.56-.1-30.3-6.66-36.16-35.19-13.28-54.23-30.14-24.16-22.96-30.31-21.64-35.92-57.32-1.11-14.25-16.53-21.55-17.47-35.98,4.48-13.11-5.09-26.28-2.22-39.18,10.15-22.41-10.45-33.87-26.42-44.5l.33-1.24-4.54-1.2c.66,6.86,9.46,8.86,13.21,13.63-1.44,2.66-3.96,4.48-5.61,6.86-4.61-.37-8.59-.76-12.37,2.8-.32,1.41-.39,2.22-1.86,2.78-3.12-2.9-6.88-5.11-10.05-8.6-.64,.69-1.25,1.35-1.87,2-.11-.18-.22-.36-.33-.54-.67,4.5-7.49-.57-10.98-.58,3.4-7.46,4.77-16.26,7.15-24.35l-3.24-.85c-2.09,9.03-5.39,17.23-7.62,26.25-9.46-1.58-18.1-6.08-27.78-7.69,1.83-9.15,5.22-17.12,7.53-25.91l-3.24-.85-6.75,25.59c-2.76-.21-18.94-4.33-27.93-7.12l6.81-25.81-5.19-1.37-6.75,25.6c-2.76-.24-27.08-6.5-34.97-9.01l1.94-7.35-.5,.19c-1.7-4.77-4.64,4.66-4.82,6.7-31.34,2.16-32.9,26.29-42.86,46.64l-17.26,65.47c4.25-10.08,7.77-22.95,11.1-34.14,2.71,.19,18,4.08,26.62,6.78-3.89,16.11-9.56,31.52-13.27,47.69-9.45-1.55-18.71-4.26-28.04-6.72l-.85,3.24c6.72,3.43,25.8,3.32,27.3,9.48-7,33.69-21.37,66.5-24.24,100.34-4.98-4.05-5.67-9.29-10.65-13.32-3.44-1.66-8.68-3.12-10.32-7.27,1.1-6.46,4.05-13.92-.37-19.87l-1.37,5.19,1.22,.32c-3.07,18.93-5.19,16.03,10.99,25.76,3.15,5.75,7.8,10.35,11.64,15.41-10.15-.28-22.03-5.75-32.73-7.78l-.34,1.3c10.48,1.72,20.45,5.75,30.9,8.27-.64,5.08-3.82,9.1-4.85,14.14-3.11,1.26-4.48,4.44-7.05,6.68-1.95,.08-5.54,.05-5.85,2.42,.26,.45,.49,.84,.81,1.38,11.08-.59,16.18-11.77,19.21-21.24,1.78,11.69-6.37,23.29-8.15,35.04-2.93-.2-7.3-3.61-9.01-.3-8.28-.38-17.67,1.11-24.71-4.4-.24,.35-.35,.53-.63,.93,5.92,4.88,15.06,5.02,22.56,4.55,4.14-1.18,6.65,2.26,11.01,2.59-4.59,17.08-10.18,34.25-16.71,50.23-1.03,10.18-9.85,5.05-12.28,9.88,21.41,6.45,18.13-36.37,28.77-43.57,.31-18.13,12.11-37.67,13.01-56.84,9.72,2.23,18.47,6.09,28.3,7.56-14.7,44.06,3.06,39.2-37.55,32.69,40.25,10.6,24.14,6.54,16.39,47.77-1.28,21.95-3.44,44.35-16.11,63.33-6.17,.24-13.97,3.54-15.55,9.88,1.33,2.93-4.09,8.53,1.1,8.53,1.43-6.95,3.18-14.95,11.6-14.83,.03-.33,.22-.49,.54-.47,.39,.29-.2,.7-.54,.47-.9,3.49-2.71,6.82-4.63,9.68-2.68,6.52-4.08,13.14-6,20.12l-12.89-3.4c3.91,2.33,8.24,2.62,12.57,3.99l-16.41,62.23c-20.54-4.75-41.06-12.33-61.77-14.9l-64.26,243.72,9.39,2.48c-.24,2.87-5.65,23.97-8.66,33.76l-9.61-2.53-.85,3.24c4.71,1.56,11.86,1.02,8.36,7.75l3.24,.85,1.34-5.07c9.17,1.66,17.37,5.25,26.47,7.41l-1.23,4.66,5.19,1.37,1.11-4.21c2.83,.24,18.57,4.26,27.93,7.13l-1.17,4.43,3.24,.85c.73-9.11,13.37,.28,19.4,.27,4.78,1.08,13.07,.06,8.47,7.08l3.89,1.03c.46-8.94,9.81-.2,15.36-1.41,.88,1.47,2.53,.97,3.69,1.63,.34-.46,.59-.79,.84-1.11,.64,.23,.14,.69,.35,1.29l9.5,2.5-1.22,4.63,3.24,.85,1.11-4.21c2.83,.24,19.16,4.41,28.58,7.3l-1.17,4.43,3.24,.85,1.11-4.21c2.83,.24,19.16,4.41,28.58,7.3l-1.17,4.43,3.24,.85,1.11-4.21c2.83,.24,19.16,4.41,28.58,7.3l-1.17,4.43,3.24,.85,1.15-4.34c9.27,1.43,17.77,5.6,27.11,7.61l-1.03,3.91,3.24,.85,1.02-3.86c8.75,2.23,17.09,4.49,25.94,6.81l-1.03,3.89,5.19,1.37c.79-4.09,2.55-7.93,3.7-11.74,13.9,3,18.17,.28,11.85,15.85l3.24,.85c2.38-17.26,6.69-10.72,20.1-7.87l-3.25,12.32,3.24,.85c1.84-16.39,7.61-9.89,19.93-7.22l-3.08,11.67,2.59,.68c1.44-15.75,8-11.09,20.08-7.81l-3.23,12.26,3.89,1.03,2.5-9.5c3.35-.04,5.83,2.02,8.7,2.78,.57-1.02,1.81-1.46,1.57-2.93l6.64,1.75-3.21,12.17,2.59,.68c3.23-19.23,6.2-9.06,20.58-7.05l-3.08,11.67,3.24,.85,3.06-11.62c12.72,3.01,24.98,6.71,37.44,10.51l-2.91,11.02,3.89,1.03,2.82-10.68c2.86,.24,25.85,6.14,35.71,9.18l-2.88,10.91,3.89,1.03c1.71-15.65,7.45-9.2,19.11-6.75l-2.91,11.02,3.24,.85c1.65-16.02,8.04-8.88,19.76-6.58l-2.91,11.02,3.24,.85c1.51-3.16,2.46-6.44,3.31-9.92,10.09,1.64,19.85,5.77,30.06,6.93l-2.91,11.02,3.24,.85c1.26-3.16,1.2-7.83,3.21-10.24,9.69,2.55,19.37,5.1,29.02,7.65,1.86,3.51-2.13,7.01-2.41,10.46l7.13,1.88,2.64-10.03c2.87,.21,18.72,4.25,31.58,8.03,1.4,2.99-1.43,7.05-1.81,10.54l3.24,.85c.92-13.31,8.24-9.99,17.96-5.36-.41,3.11-2.13,6.2-1.76,9.64l2.59,.68c1.24-3.07,.99-6.43,1.8-9.76l17.42,4.59c-.57,3.21-.51,6.6-1.71,9.78l3.24,.85,2.55-9.66c9.63,4.92,34.87,1.67,27.27,17.52l3.24,.85,2.51-9.52c10.11,1.73,19.6,5.72,29.68,8.39l-2.37,9,3.24,.85c1.14-2.72,.98-7.01,2.88-8.94,9.4,5,35.13,1.65,26.93,16.8l3.24,.85c16.47-51.13-.55-48.02,39.09-36.31-13.07,39.74,10.76,37.79-3.44,45.71l8.43,2.22c15.89-11.43,34.89-20.55,51.61-31.54,13.2-6.48,26.12-18.06,40.65-19.84,5.04,8.53,1.88,20.23,9.35,27.71,1.56,2.71,7.03,7.18,2.72,9.44-.67,2.63-1.68,2.87-3.98,1.11-36.98-10.18-51.05-24.3-60.8,23.54l3.24,.85c5.44-8.89,2.58-24.56,12.95-29.28,3.43-1.62,9.44-4.52,12.23-.48-4.27,10.58-6.03,22.8-10.27,33.69l3.89,1.03c2.77-11.69,6.76-22.91,9.79-34.49,4.84,.28,9.88,2.56,15,3.59-2.74,11.89-6.76,23.15-9.88,34.83l2.59,.68c3.61-11.62,7.02-23.3,9.96-35.12,4.25,.22,9,2.35,13.68,3.29-2.48,12.24-8.03,23.1-10.68,35.25l2.59,.68c4.62-13.06,4.11-29.52,13.22-40.23,5.76,4.85,13.23,8.1,19.52,11.31-6.18,10.56-6.88,23.19-11.34,34.55l5.83,1.54c3.8-10.6,3.92-23.27,10.3-32.61,2.48,7.72,1.08,16.66,1.8,24.7,4.85,16.73,26.96,10.28,38.06,20.14l-.25,.94,19.45,5.13c-3.6-4.31-10.79-5.99-14.56-10.39,17.71-7.26,35.06,9.96,52.95,8.04,4.93,.72,10.21,1.52,14.24,4.44,2.55,.24,4.52,2.01,7.18,2.66,.46,3.68,1.25,7.36,.47,11.14l3.89,1.03c-2.11-31.14,11.31-61.65,18.97-91.34l35.62,9.39c.7-.67,.6-1.51,.97-2.43l-35.68-9.41c3.84-17.26,10.4-33.92,12.67-51.39l35.24,9.29c3.82-2.93,4.97,4.07,4.48,7.1,6.36,4.34,1.07-7.42,1.07-10.29,7.61-14.71,9.01-32.65,14.27-48.49l38.24,10.08c-2.22,9.65-5.93,20.93-6.32,30.1,1,.38,1.34-.24,1.96-.44,1.76-9.23,6.28-18.61,6.53-27.94,12.63,.4,26.65,7.72,39.87,10.08-7.7,16.05-6.73,36.94-17.06,51.21-7.51,7.55-21.03,6.72-30.93,10.38-20.12,3.62-28.25,31.08-45.89,42.14-23.28,21.87-42.49,35.13-46.12,69.3l3.89,1.03c.8-36.31,34.79-56.93,58.55-80.57,20.18-27.79,23.94-28.52,57.52-35.18,1.56,10.42,4.18,20.61,6.13,30.92-12.45,9.03-28.02,7.21-41.94,12.54-10.8,4.69-14.45,14.57-19.75,23.87-12.66,17.59-22.46,35.92-26.17,57.48l5.19,1.37c3.45-18.35,10.51-34.29,21.71-49.22,8.34-16.33,22.89-28.76,41.96-27.65-5.42,15.37-6.74,32.71-16.9,46.29-7.67,10.68-14.87,25.82-15.65,38.78l3.24,.85c2.7-10.75,3.98-21.67,10.98-30.71,2.56-3.33,28.57-19.63,20.12-22.82-2.66,3.38-5.37,6.97-7.99,10.17-2.34,.96-3.82,3.22-6.24,4.09,7.62-14.46,12.09-31.01,16.38-47.38,25.52-9.55,57.33-21.23,64.6-50.27,2.06-.19,2.59,1.82,4,2.41-.77,5.73-1.28,6.39,2.91,10.73-1.2,3.95-4.76,7.14-5.05,11.53-2.99,3.02-8.66,5.69-8.66,10.06,2.35-3.44,10.47-7.8,9.77-11.66,1.95-3.67,4.88-6.75,5.57-10.99-4.82-2.56-3.17-6.35-3.61-10.77-2.1-1.76-4.56-3.26-2.98-6.38,6.48-3.07,4.82-26.85,9.66-36.17,4.24-.78,8.95,2.27,13.51-.14,3.87-.99,6.58,2.81,10.35,3.43,3.29,1.12,9.09,.86,10.11,4.76,5.53,4.08,11.39,3.83,17.31,5.89,5.77-4.75-13.57-3.68-15.3-8.47,.91-.86,2.35-1.07,2.93-2.38,4.53-.24,23.88,9.9,22.4,2.47l-21.02-5.54c3.23-15.78,9.35-30.64,12.59-46.23,11.6,.71,21.39,7.64,32.49,10.22,.69-.64,.7-1.52,.83-2.51-4.67-1.5-9.88-1.78-13.5-5.82l13.47-51.08c7.69,2.36,15.65,3.57,23.42,5.48l67.34-255.39c-16.59,47.44-.12,47-50.55,72.12-5.73-5.5,1.24-14.13,1.77-20.93,4.31-1.72,19.09-10.33,21.23-12.43,5.48-18.73,10.78-37.46,15.58-56.48l15.56,4.1,.85-3.24c-25.31-3.44-11.08-11.31-8.23-29.07,5.6-22.7,11.74-44.95,18.52-67.36l14.15,3.73,.85-3.24c-4.87-1.38-8.86-3.44-14.09-4.41,5.41-22.63,12.85-44.63,18.43-67.24,3.86,1.44,9.98,1.81,13.78,2.94l.85-3.24c-6.04-1.59-13.22-3.51-26.57-7.03l8.98-34.05,22.04,5.81c-.49,2.23-.71,3.7-2.76,5.21ZM-329.01-279.25c-8.18,.24-17.26-4.41-26.03-5.97,9.75-22.88,13.6-71.31,46.1-70.16l-20.07,76.14Zm23.82-76.61c11.59,3.47,22.97,6.83,34.6,9.99l-20.24,76.75c-11.56-2.62-23.36-5.72-35.05-8.3l20.68-78.43Zm-35.85,133.36c11.88,2.33,23.24,5.28,34.97,8.53-18.2,54.91,2.89,51.95-47.45,38.79l12.48-47.32Zm15.65,79.4c-3,12.37-6.41,24.1-9.6,36.58-4.69-1.36-9.34-2.34-14.07-3.02-4.94,.55-10.08-2.52-15.29-3.34-4.88-19.51,6.11-39.37,9.83-58.92,4.76,.34,8.64,3.53,13.43,3.95-2.89,12.6-7.39,26.92-10.78,37.84,10.4-7.91,8.31-25.36,13.43-37.04,6.26,1.95,12.98,2.83,18.71,5.28-1.23,6.43-4.15,12.31-5.67,18.67Zm20.55-74.18l-34.49-9.09,12.61-47.82c11.75,3.32,23.29,5.84,35.07,8.55-4.1,16.29-8.64,32.28-13.19,48.36ZM627.01,190.95c.33,6.61-2.64,11.2-5.03,16.98-6.85,13.17-12.55,27.11-19.55,39.99-7.88,15.23-11.1,32.13-14.21,48.94-18.11,57.61,18.91,46.77,17,98.08,5.17,7.51-17.56,13.7-22.61,18.57-5.82,2.67-6.18-10.52-9.26-14.09-8.15-18.65-14.49-37.88-25.47-55.16,3.79-20.92,7.99-42.31,11.75-63.33,3.16-13.01,2.58-27.3,9.46-38.95,20.33-28.51,20.24-61.81,26.81-94.69,10.74,14.3,21.36,28.69,31.11,43.67Zm-141.38,202.79c7.53-20.65,15.67-40.69,23.84-61.24,3.97-13.19,12.38-25.43,12.52-39.73,9.96-72.7-27.76-58.61,18.86-117.79,8.72,23.71,11.59,49.7,22.14,72.67-6.11,31.79-13,64.24-17.68,96.12-8.44,20.98-32.42,40.35-15.56,64.28-2.67-.08-27.17-6.35-45.25-11.55-.71-1.39,1-1.67,1.14-2.76Zm64.25-235.71c4.68-18.33,7.4-37.3,11.17-55.71,11.33,11.94,21.69,28.62,32.73,41.68-7.2,34.21-7.64,70.39-29.17,99.8-10.02-22.69-13.15-47.84-21.28-71.12,1.72-5.22,6.06-8.81,6.55-14.66Zm13.37-69.31c2.06-22.03,17.41-37.91,29.38-55.2,7.84,5.06,19.19,14.99,20.96,24.84-1.37,27.47-14.91,54.41-18.81,81.81-8.69-9.29-15.47-20.19-23.53-30.01-5.23-7.07-11.46-12.22-8-21.45Zm-34.16,311.26c-9.64-20.28,11-34.33,17.23-51.53,13.75,19.68,20.07,44.94,30.7,66.81-7.44,4.77-17.77,12.94-26.1,14.34-7.24-9.84-18.22-17.59-21.83-29.62ZM610.38,.13c22.32-16.21,47-24.41,73.97-29.22-3.05,10.59-8.45,20.38-12.15,30.94-1.42,28.09,12.79,27.34-11.38,52.96l-5.61-1.48c-2.05-24.56-20.49-47.98-45.1-52.78,.17-.29,.2-.4,.26-.43Zm-2.84,2.51c4.31,1.19,8.76,2.05,12.4,4.67,65.89,31.67,8.92,117.61,2.44,170.2-9.88-8.86-16.25-23.94-25.78-33.69,6.12-28.41,16.54-56.64,20.12-85.2-1.07-12.8-14.64-18.76-21.34-28.26,4.68-9.75,6.67-20.92-.23-30.48,4.35,1.96,8.51,1.55,12.38,2.76Zm-45.79-109.14c1.52-1.06,3.14,.93,4.66-.14,3.51,1.25,7.23,1.49,10.81,2.06,0,7.73-4.29,14.02-1.14,21.22-7.67,7.84-1.58,5.86-16.75,6.88-.83-15.71-8.66-10.16-6-29.9,3.04,.34,5.7-.56,8.41-.11Zm-179.44-59.25c13.2,9.51,17.75,13.2,25.04,28.89,4.63,6.58,9.82,13.39,16.14,18.23,1.28,2.05-.33,6.98-1.93,8.78-1.33,3.83-4.06,7.1-5,10.98-3.49,5.12-5.57,11.72-8.84,17.51l-36.11-9.52c.61-2.34-3.35,1.08-8.04-1.39,.85-1.8-.17-2.54-1.26-3.36,3.47-18.31,7.95-35.28,12.4-52.26,.32-7.32,1.65-13.01,7.61-17.87Zm21.97,92.44c-8.65,21.08-6.77,48.06-21.93,65.91-15.27,9.41-35.71,10.72-42.07,30.46-5.74,17.92-12.19,36.12-21,52.47-.05,1.94-1.92,3.15-2.03,5.07-1.82,1.01-.77,3.63-2.61,4.63-10.88,25.25,6.47,52.91-3.52,79.27-8.27-3.88-18.08-6.25-25.9-10.77,.82-.07,1.23-.1,1.66-.14-.7-1.49-2.11-.52-3.12,.1-5.59-1.1-10.14-5.18-15.69-6.01-.11-1.05-1.08-.97-1.43-1.76,19.2-56.37,32.97-115.25,50.11-172.24,10.77,.68,21.66,9.28,31.11,6.6,.24-3.21-3.57-2.05-5.61-1.86-7.3-4.79-16.48-4.97-24.55-7.39,5.75-22.92,12.33-45.39,18.73-68.14,6.19,2.76,17.44,2.05,20.2,7.26,1.2-1.72,5.2,2.34,5.78-1.03-1.75-.04-3.5-.09-5.67-.14,.84-.88,1.39-1.2,2.21-1.05,1.57-.65,1.31-3.84,2.94-3.32,2.52,8.39,17.19,6.16,24.69,9.3l.1,1.26c6.51-1.63,13.19,3.99,20.14,4.79-1.12,2.24-.57,4.91-2.55,6.72Zm-96.99,255.02c-.55,.1-1.03,.19-1.57,.28,3.38,4.27,1.89-5.18,3.75-7.51-1.11,9.36,4.61,16.62,8.39,24.73,12.38,23.94-3.2,46.32-12.38,68.01-1.04,.48-1.24-.31-1.57-.82-1.16,10.8-6.04,21.98-7.7,33.3-3.53-7.49,1.85-15.38,.73-23.33-2.47-17.42,6.03-33.32,8.95-49.81-10-20.53-16.92-54.09-45.91-50.8-4.31-.55-8.44-.9-11.93-4.05,5.63-7.21,14.27-10.34,19.1-18.31,14.06,4.83,28,11.62,42.43,16.09-1.96,3.81-2.08,7.99-2.29,12.22Zm-10.71,119.19c-.29,.25-.51,.19-.64-.17,.29-.25,.51-.19,.64,.17Zm-19.05-74.95c-3.06,17.17-24.81-4.67-34.66-4.48,.29-5.8-.22-11.15,.6-16.85,10.7,6.75,36.99,2.89,34.06,21.33Zm-33.2,55.05c-2.61,11.48-6.85,22.7-9.69,34.06-4.86,1.62-10.06-3.57-15.65-3.77,3.31-14.11,7.87-27.18,11.42-41.29l16.45,4.34c-1.14,2.17-.57,4.82-2.53,6.66Zm5.24-17.44c-.51,2.4-1.23,4.75-1.92,7.39l-16.2-4.27c3.47-14.3,8.44-27.69,11.3-42.01,23.28,4.33,11.14,23.33,6.83,38.89Zm-10.56-39.87c-.86,14.3-7.1,28.24-10.35,42.24l-16.65-4.39c3.37-14.14,9.9-27.92,10.44-42.22l16.57,4.37Zm-11.42-6.62c-7.19-2.02-9.5-24.67-14.05-32.38-14.02-31.16-11.27-46.45,2.42-77.2,11.94,2.98,14.59,15.39,13.87,25.96-5.86,15.17,1.26,29.87,13.86,38.95-.14,.7-.61,.25-1.17,.29-9.02,14.16,.32,31.88-3.61,47.49-3.88-1.02-7.72-1.76-11.33-3.11Zm-10.67,14.99c-3.7,9.4-5.35,18.83-8.16,28.64l-16.1-4.24,11.07-42,15.31,4.04c-.72,4.5-.15,9.31-2.12,13.57Zm-15.65,178.55c5.54,2.86,11.81,3.41,17.71,5.47-10.65,41.4-1.06,30.14-54.77,16.61l7.85-29.78,29.21,7.7Zm-20.06-50.69c-3.28,13.22-7.82,25.85-11.49,38.91-5.68-.94-9.44-3.38-14.8-4.31l12.03-45.64c5.78,1.31,10.99,3.04,16.53,5.09-.29,2.25-1.46,3.87-2.28,5.95Zm-37.1-163.26c4.15,2.46,16.25,1.11,15.97,6.81l-17.28-4.56c-.43-1.08,.2-1.73,1.3-2.25Zm.03-.89l.45-1.72,16.08,4.24-.45,1.72-16.08-4.24Zm-16.59-7.89c11.62-32.33-1.3-40.27,29.86-30.15,19.2,5.47,13.89,29.28,23.99,41.08l-.8,3.05-53.04-13.99Zm13.6,10.52l-14.66-3.86,1.31-4.98,15.22,4.01c.41,1.95-1.2,3.14-1.87,4.84Zm-38.95,85.19l3.62-13.72c3.31,.7,15.95,3.97,14.6,7.7-7.98,26.33-14.33,53.26-21.92,79.65-5.14-1.38-9.61-3.83-15.15-4.74,6.12-23.04,11.83-46.2,18.86-68.89Zm-44.47,92.6c1.99-8.36,4.34-16.63,6.61-25.26,5.16,.87,9.05,3.21,14,4.43l-20.31,77.03c-4.86-1.11-9.72-2.56-14.6-3.76,3.8-17.62,9.23-35.08,14.3-52.44Zm45.5-180.6c-5.62,21.24-11.22,42.49-16.83,63.78-5.1-.46-10.29-2.68-15.64-3.8,6.32-24.54,13.7-47.92,19.85-72.64,8.13,5.81,18.78-.2,12.62,12.67Zm-24.46,90.24c-5.41,20.26-10.73,40.55-16.09,60.86-5.09-.45-10.3-2.68-15.64-3.8,7.15-28.35,15.7-55.78,22.89-84.17,5.44,1.48,9.67,3.87,15.37,4.83-1.53,7.81-4.82,14.71-6.53,22.28Zm-25.16,92.79c-4.35,16.16-8.56,32.34-12.83,48.52l-15.56-4.1c6.48-25.82,14.02-51.15,20.87-76.86l15.64,4.12c-2.08,9.7-5.7,18.84-8.12,28.32Zm51.26-194.65c-28.93-9.16-59.15-15.04-87.74-24.7,38.46-44.63,68.25-17.27,116.28-7.82l-9.91,37.6c-6.2-1.64-12.63-2.78-18.62-5.08Zm-52.48,125.64c-3.15,10.68-5.37,21.76-8.77,32.3l-16-4.22c7.5-28.06,14.43-56.13,22.98-83.92l16.06,4.23c-4.14,17.39-10.17,34.21-14.27,51.6Zm-11.35,40.36c-6.49,24.07-12.33,48.25-19.56,72.05l-16.35-4.31c7.98-25.31,12.85-51.79,21.92-76.53l15.64,4.12c.39,1.71-1.91,2.71-1.66,4.67Zm-16.56-13.28c-12.24-4.93-18.94-.03-13.57-14.59,7.77-24.16,13.13-49.09,20.86-73.29l15.45,4.07c-7.3,28.06-14.72,55.96-22.74,83.81Zm-14.83,53.21c-2.14,9.23-4.76,17.83-7.11,27.17l-16.2-4.27c5.19-20.96,11.56-41.49,17.13-62.33,3.15-17.35,4.41-14.8,20.05-10.31-4.51,16.65-8.38,33.41-13.87,49.74Zm22.92-144.57c6.46-24.11,12.48-48.55,19.42-72.3,4.62,2.54,16.98,1.3,15.77,6.91-7.66,22.58-12.31,46.47-18.98,69.66l-16.2-4.27ZM-8.94,468.6c3.86-15.38,9.18-29.85,12.66-45.52l16.2,4.27c-4.79,23.13-14.56,45.41-17.62,68.68l-17.31-4.56c2-7.6,3.9-15.27,6.06-22.86ZM77.8,215.92c-3.52,12.8-6.81,25.66-10.24,38.66l-16.2-4.27c6.16-24.28,12.91-48.16,19.73-72.2l16.2,4.27c-2.33,11.53-6.8,22.22-9.49,33.55Zm-50.74-35.57c-5.3,19.61-11.5,39.28-16.38,59.12-5.77-.39-10.5-3.69-16.11-4.61,6.79-24.19,13.41-48.1,19.67-72.52,11.5,3.21,22.42,7.02,34.07,9.68l-19.08,72.38c-4.91-.64-10.23-2.68-15.39-3.82l15.71-59.57-2.47-.65ZM-36.89,485.08c-5.12-1.32-10.24-2.69-15.46-4.06l17.93-68,16.1,4.25c-6.33,22.73-12.84,44.7-18.58,67.82ZM-6.74,373.11c-3.13,12.92-6.72,25.72-10.18,38.84l-15.56-4.1c6.68-24.55,13.97-48.73,20.06-73.44,1.01-8.36,11.29,.23,16.33,.67-2.61,12.93-7.54,25.22-10.65,38.03Zm-18.73-.39c-3.64,11.32-6.06,22.93-9.7,34.35-15.61-4.05-19.4-1.82-12.17-18.97,5.12-21.22,12.06-41.42,17.2-62.69l16.2,4.27c-3.85,14.35-6.99,28.91-11.53,43.04Zm-10.46,39.9l-17.93,68c-6.04-1.16-11.34-3.3-17.1-5.24l17.75-67.31,17.28,4.56Zm26.91-101.81c-1.1,5.33-2.72,10.06-4.03,15.51l-16.2-4.27c8.01-27.53,15.38-55.2,22.59-83.05,5.27,.38,10.75,2.79,16.3,3.93-6.42,22.57-11.03,45.75-18.65,67.88ZM66.74,123.41c4.88-17.69,8.69-40.02,27.67-47.18-2.47,19.96-.56,40.39-6.77,59.71-8.12-1.67-15.18-4.38-23.08-6.89,.8-1.86,.64-3.98,2.19-5.64Zm51.52-29.91c-5.28,15.45-8.6,31.21-12.98,46.97l-14.26-3.76c6.14-20.13,6.2-42.21,6.28-62.35,7.38-6.07,17.3-15.17,24.31-4.16,1.58,7.85-.79,15.73-3.35,23.31Zm1.71,7.2c2.69-12.76,5.65-25.02,15.87-33.75,3.94,3.32,5.43,8.77,8.37,12.91-11.2,21-10.42,45.08-10.47,68.06l-25.03-6.6c2.93-13.67,7.3-27.16,11.27-40.61Zm84.56,14.93c-1.91,8.99-4.43,17.94-7.35,26.49-12.78-15.98-26.66-32.27-34.91-51.24-2.34-6.36-6.08-16.34-14.6-12.59-2.65-5.06-6.55-9.31-9.02-14.85,6.19-7.66,12.54-15.51,18.96-23.45,10.77-.16,11.31,20.61,15.99,28.85,5.54,13.49,15.78,25.95,28.03,33.95,7.51,1.15,1.88,7.68,2.9,12.83Zm19.3-77.67c-3.57,9.02-5.27,17.93-7.94,27.44-13.46-10.68-13.06-19.61-7.53-34.65,4.11-13.92,7.48-27.67,14.59-39.71,4.08-3.32,9.53,2.36,14.46,2.79-5.48,14.06-10.1,28.86-13.57,44.13Zm-22.51,6.46l-.9,3.42c-4.66-5.25-9.1-10.38-13.56-15.91,21.09-50.04,8.34-59.85-20.92-100.53,4.59-4.95,10.15-9.08,15.26-13.8,19.32,26.88,28.71,32.55,33.16,67.07-.97,20.35-8.17,39.9-13.03,59.75Zm-16.58-15.64c-19.15-20.19-36.63-43.21-55.23-64.31,4.5-5.99,11.85-10.56,17.62-16.03,14.8,18.78,29.54,37.49,44.5,56.48-1.77,7.91-4.75,16-6.89,23.86ZM103.61-66c-8.16-8.63-14.96-18.66-23.39-26.9l3.68-13.96c1.29-.21,1.34,1.35,2.29,1.5,.08,1.79,2.57,1.81,2.64,3.6,15.43,18.28,31.47,36.95,46.29,55.9-2.64,2.35-5.31,4.71-8.06,7.16-7.99-8.86-15.69-18.21-23.45-27.3Zm1.98,11.12c-6.56,5.24-12.65,11.07-19.43,15.93-5.51-6.59-10.91-13.07-16.48-19.74,6.02-5.23,12.2-10.59,18.62-16.17,6.06,6.64,11.5,12.93,17.29,19.98Zm-20.63-56.24c.65-4.4,2.79-8.21,4.01-12.38,19.09,22.02,37.5,45.64,55.38,68.96-8.64,13.65-12.86-3.1-20.15-9.39-12.83-16.02-26.51-31.2-39.24-47.19ZM194.1-4.41c-.53,1.67-.91,3.39-1.35,5.04-14.64-18.55-29.17-36.96-43.78-55.48,4.48-4.09,8.89-8.12,13.6-12.42,12.37,18.66,28.79,35.08,32.17,57.89-.99,1.48-.11,3.3-.65,4.97Zm-17.71-111.7c-2.37-12.24-17.99-10.97-27.74-14.7-.77-5.78,.72-11.01,2.28-16.55,15.71,3.14,30.9,9.15,46.64,12.77,.36,.98-.31,1.63-.22,2.35-1.13,.44-1.23,2.02-2.63,1.85-4.64,13.99-7.11,30.2-13.07,42.95-3.37-3.91-6.76-7.85-10.37-12.04,1.61-5.32,4.16-10.99,5.11-16.62Zm-6.93,13.89c-6.31-8.12-11.48-15.73-17.51-23.76,19.41,3.05,25.19,2.66,17.51,23.76ZM217.33-16.3c-1.79-11.15-4.27-21.87-6.57-32.96,2.54-10.56,.78-22.05,2.38-32.7-2.43-16.77,7.73-38.71-7.06-51.63l25.59,6.75c-2.62,40.92,4.19,85.79-14.62,123.13-.02-4.46,1.09-8.56,.28-12.58Zm-5.27-150.49c16.17,3.85,31.57,8.86,47.6,13.11l-7.53,28.58c-15.44-5.17-33.51-6.56-47.39-13.93l7.32-27.76Zm.83-3.36l7.64-28.96,47.6,12.55c-.24,2.66-4.98,21.18-7.45,29.01l-47.78-12.6Zm-37.72,321.71c1.58-8.9-8-15.26-11.73-22.59-5.69-10.1-13.39-17.01-25.2-18.52,5.54-25.19,11.73-46.47,24.8-8.8,9.78,15.38,21.65,30.33,32.7,44.9l-12.74,48.34c-4.89-6.11-4.56-17.51-8.37-25.17-3.31-5.74-1.32-12.04,.54-18.17Zm-37.75-23.02c-.08-5.27-.88-10.28,.22-15.44,14.44,1.79,20.56,13.22,28.09,24.13,7.24,7.28,7.88,14.76,3.89,24.44-8.64-9-20.95-8.15-31.62-13.49-.5-6.3-.17-13.21-.58-19.64Zm26.62,70.64l16.03,4.23c-.09,1.61-.86,3.2-1.13,5.02l-16.21-4.27,1.31-4.97Zm-1.69,6.47l15.83,4.17c-.44,4.56-8.6,33.55-10.89,38.6-4.73-7.46-1.4-19.32-9.81-24.32l4.86-18.45Zm-29.03,186.36c12.07,2.87,23.24,7,35.25,10.12l-3.56,13.49c-14.26-4.07-28.87-7.09-42.4-12.9,3.74-3.74,7.2-7.2,10.71-10.71ZM311.38-86.23c-5.5,17.02-9.68,33.95-14.28,51.33-3.64-2.05-14-.99-12.97-5.86,8.13-21.32,12.54-43.97,19.5-65.75l12.19,3.21c-1.5,5.67-3.17,11.32-4.45,17.06Zm-17.22,74.97c.92-6.4,3.27-12.38,4.31-18.97l14.41,3.8c-15.4,56.63-31.55,113.02-48.08,169.21-10.09-15.43-9.99-34.26-17.77-50.32,3.26-18.97,12.17-36.91,16.61-55.82,7.04-22.83,12.28-45.99,18.25-69.12,1.72-5.88,9.65,1.92,14.15,1.54-3.43,12.66-6.66,25.35-9.39,38.11,.61,1.41,1.44,1.62,2.63,.68,1.67-6.35,3.93-12.63,4.87-19.11Zm15.29-57.46c3.16-11.4,5.89-22.45,8.99-33.97,5.46,1.26,9.69,2.81,14.88,4.53-8.09,21.87-11.32,45.6-19.57,67.65l-14.06-3.71c2.68-11.7,6.55-23.02,9.76-34.5Zm-45.64,91.78c-5.5,22.11-12.86,43.32-19.96,64.89-6.71-4.72-13.19-9.28-19.83-13.95,11.51-38.66,19.34-77.97,30.92-116.39l23.63,6.23c-3.72,20.01-9.42,39.66-14.76,59.22Zm-98.88,321.87c-3.81-2.22-15.45-1.24-14.67-6.88,2.9-13.13,7.83-25.33,10.81-38.42l15.56,4.1c-3.33,14.13-7.96,27.1-11.69,41.2Zm12.58-44.55c-5.66-.99-9.88-3.41-15.37-4.81,3.73-13.54,6.73-27.32,11.24-40.48l15.67,4.13c-5.12,13.19-7.42,27.24-11.54,41.16Zm8.17-90.61c5.06,.97,10.1,2.65,15.27,3.89l-11.09,42.07-15.33-4.04,11.03-41.85c-.06,.04,.03-.04,.12-.08Zm15.23,.45c-4.9-.9-9.21-3.62-14.09-4.41,5.68-14.44,6.88-33.5,14.02-47.13,6.11,18.04,12.28,35.34,18.59,53.42-2.22,5.92-13.3-2.17-18.52-1.88ZM256.12-60.95c9.67,2.23,19.04,4.1,28.68,6.92-1.58,21.1-14.81,11.21-28.96,8.23-.15-4.9,.05-9.87,.28-15.15Zm53.85-70.35c-2.82,5.31-1.75,20.16-7.85,20.12-13.19-3.45-26.37-6.93-39.54-10.42-8.44-2.03,3.6-22.37,3.72-30.21,14.1,3.71,28.21,7.46,42.32,11.13,5.89,1.05,2.84,5.81,1.35,9.37Zm-9.52,23.28c-1.55,5.13-2.26,10.39-4.98,15.12l-38.46-10.14c.4-5.29,.49-10.65,1.08-16.15l42.37,11.17Zm-5.53,17.95l-4.05,15.34-34.11-8.99c-.3-5.31-.06-10.8,.51-16.27l37.64,9.92Zm-37.72,10.04l31.93,8.42c1.09,4.35-2.19,9.55-2.82,14.2-10.1-.2-19.77-4.89-29.68-6.82-1.11-4.89-.72-10.9,.57-15.8Zm-118.52,459.34c2.76-12.01,7.18-23.23,9.96-35.27,5.19,1.66,10.81,2.27,15.47,4.43-3.52,15.18-8.69,29.59-12.31,44.78l-17.01-4.49c1.7-3.02,3.11-6.09,3.89-9.45Zm45.76-29.43l-16.77-4.42c4.37-13.64,7.95-27.31,11.63-41.17l15.79,4.16c-.23,2.97-6.81,28.58-10.65,41.43Zm11.97-44.57c-5.45-1.39-10.77-2.84-16.33-4.28,3.34-14.11,8.04-27.16,11.57-41.26l16.2,4.27c-3.53,14.04-7.34,27.38-11.45,41.27Zm37-181.56c.25,.29,.19,.51-.17,.64-.25-.29-.19-.51,.17-.64Zm8.62,42.85c-15.74-15.04-9.2-22.83-8.53-41.42,3.16,8.85,4.65,18.84,6.99,28.12,1.5,3.66,10.65,21.36,1.54,13.3Zm4.01-7.82c-5.77-6.82-5.87-39.44-13.72-38.64-1.22-7.71-7.99-14.18-15.47-15.95l6.21-23.55c5.23,2.87,9.49,6.87,14.77,9.89,12.78,16.79,10.87,43.56,26.06,60.91-3.61,6.18-9.89,9.38-15.05,14.22-1.05-2.53-2.02-4.67-2.81-6.88ZM378.19-179.02c2.3,7.81,2.07,12.18-4.69,17.79l4.69-17.79Zm-43.19-24.68c14.81,4.61,29.85,8.51,44.76,12.68l-7.65,29c-15.37-3.79-30.9-8.56-46.09-12.79,1.4-9.14,4.84-18.47,7.01-27.94,1.2,.49,1.39-.47,1.96-.94Zm-7.36,32.82c39.18,16.54,52.08-3.24,38.86,41.65-2.97-1.07-40.7-8.32-49.23-13.71,3.36-6.04,3.63-28.89,10.37-27.95Zm-16.81,50.14c3.06-5.43,2.33-13.1,6.17-17.6,15.98,4.21,32.04,8.45,48.38,12.76-2.35,10.14-5.66,19.42-8.37,29.59-16.49-5.21-33.55-7.08-49.12-14.03,.91-3.46,1.43-7.31,2.94-10.72Zm6.89-36.88c-1.8,4.99-2.7,10.63-6.03,14.22-41.48-15.04-50.92,2.94-36.71-41.37l44.42,11.71c3.4,4.35-1.39,10.24-1.68,15.43Zm-37.4-47.06c1.56-4.01,2.36-8.19,3.91-12.4,14.12,3.03,28.45,8.89,42.57,10.45,4.4,8.78-3.92,20.16-5.04,30.5l-45.94-12.11c1.45-5.51,2.45-11.18,4.49-16.43Zm-29.8,96.22c-1.59,33.61,.69,67.01-12.21,98.91-3.32-1.98-14.4-1.01-12.9-5.86,1.85-12.08,7.09-23.78,7.25-35.98,1.02-24.89,.52-50.22,2.44-74.76,5.32,1.81,10.24,3.84,15.8,4.97,.11,4.36-.78,8.5-.38,12.73Zm-21.46-123.06l47.6,12.55c-.24,2.67-4.91,20.94-7.45,29.01l-47.79-12.6,7.64-28.96Zm-26.46,100.37c11.65,7.55,7.08,22.85,7.03,34.33-.04,11.64-.41,23.17-1.07,34.83,.85,.95,.23,1.94-.08,2.81-.63,1.75,.3,3.7-.91,5.59-9.04-8.3-15.44-21.02-23.64-30.96,9.02-11,6.61-40.29,18.68-46.6Zm-1.23-8.96c-.76,.77-2.2,.25-2.62,1.62l-47-12.39,8.01-30.38c16.48,4.31,32.17,9.65,48.88,13.58l-7.27,27.58Zm-12.03-105.49c.47,.8-.19,1.32-.31,1.89-.43-.71-.28-1.28,.31-1.89Zm-11.93-.34c16.19,3.81,31.5,9.09,47.68,13.1l-7.73,29.32c-13.13-1.15-29.84-12.04-40.67-9.41-.05-3.26-3.86-2.63-6.98-3.8l7.7-29.21Zm-15.23,54c2.5-7.25,4.24-15,6.67-21.59,15.41,5.77,32.21,8.69,48.32,13.43-9.64,46.48-8.77,23.77-56.57,15.59,.82-2.49,.36-5.37,1.57-7.43Zm-36.42,57.53c27.12,3.31,35.39,31.34,52.94,49.32-4.69,5.1-9.74,9.03-15.25,13.18-16.21-21.45-32.84-43.49-48.71-64.45,.72-6.66,2.63-13.44,3.64-20.12,3.23-.47,8.21,5.28,10.38,.88,.56,.82,.02,1.3,.02,2.09,1.97,.48,3.84,1.72,6.12,1.13,3.6,2.44,8.35,2.45,12.39,3.87-.81,5.73-2.33,10.67-2.64,16.58-5.83-.12-15.65-7.34-18.89-2.49Zm-10.9-.81c-.29,.25-.51,.19-.64-.17,.29-.25,.51-.19,.64,.17Zm46.47-65.74c-16.23-4.44-32.22-9.22-48.33-13.68,1.66-3.91,1.18-9.68,4.26-12.5,16.03,3.85,31.28,9.38,47.42,13.2-1.01,4.27-2.23,8.49-3.36,12.98Zm-.76,2.57l-3.42,12.96c-16.18-4.34-32.32-8.69-48.66-12.14,2.21-7.78,2.05-18.04,12.39-11.86,12.95,4.79,26.21,7.12,39.69,11.03Zm-52.93,4.07c16.12,4.63,32.41,7.83,48.59,12.12l-8,30.34c-5.43-1.65-12.6-2.06-17.19-5.13-1.28,.18-1.49,2.3-1.53-.24l-29.6-7.8,7.72-29.28Zm51.06,7.22c.36,.56,.24,.99-.35,1.31-.36-.56-.24-.99,.35-1.31Zm-39.77-47.53c1.47-10.34,7.53-16.97,15.99-22.45l39.06,10.3-7.66,29.05-48.89-12.89c-.7-1.75,1.26-2.54,1.5-4.01Zm-68.69,45.13c2.62-6.12,3.64-12.68,5.74-19.13,12.57,1.92,26.24,8.85,38.37,7.43l10.74,2.83c-10.44,51.29-10.96,26.36-57.53,18.72,.9-3.43,1.39-6.81,2.68-9.84Zm2.75-23.39c-16.4-4.44-32.42-8.12-48.52-13.45l3.77-14.3c16.68,3.64,32.15,10.36,48.74,14.03-.49,4.95-3.54,8.8-3.99,13.71ZM12.02-255.21c16.25,3.22,32.74,8.62,49.21,12.6l-3.61,13.67c-15.52-5.91-33.32-8.57-48.51-15.28l2.9-10.99ZM-.17-211.47c2.25-3.29,2.29-7.22,3.54-10.94l48.56,12.8-3.37,12.76c-15.09-5.64-36.75-6.44-48.74-14.63Zm-21.03,11.27c-18.07-.24-37.92-9.7-56.64-12.55-2.69-.62-4.97-1.91-7.62-3.29-2.54-.47-3.65-2.41-5.71-3.91,15.13-8.51,31.43-14.38,15.98-33.26,1.24-6.56,1.78-13.04,3.82-19.59,14.91,24.94,30.71,48.51,51.07,69.22l-.89,3.38ZM-1.68-219.04c-1.63,6.23-3.28,12.46-4.96,18.82-14.18-6.85-21.32-23.32-32.51-34.2,14.09,3.38,26.06,7.32,40.08,10.91-2.01,1.52-2.23,3.02-2.61,4.46Zm1.3,25.32c-3.95-4.82-3.9-3.64-.83-13.36,16.51,4.13,32.62,8.77,48.96,13.32-2.37,5.64-.8,15.96-9.02,11.77-13.43-3.19-26.26-7.03-39.11-11.73ZM74.47-100.25c-23.27-28.9-50.42-55.98-71.48-86.15,38.07,5.72,74.77,20.08,112.21,28.93-2.76,14.24-7.4,18.69,2.5,30.9,14.63,19.43,29.65,38.62,43.96,58.35-4.49,4.08-8.95,8.13-13.5,12.26-14.64-18.28-29.26-36.52-43.9-54.8-.47,.16-.84,.29-1.23,.42,.71-2.55-2.08-3.19-2.42-5.44-4.21-3.44-7.27-8.95-10.95-13.16-.09-4.09,8.83-22.36,2.65-20.61-4.52,17.4-9.55,34.76-14.99,51.88-1.66-.33-2.22-1.71-2.84-2.59ZM8.14-87.87c1.22-.67,2.29-1.36,4-.57,7.47,22.68,3.26,24.28,27.05,13.91,11.85-4.42,23.52-9.74,35.24-14.19,3.04-1.49,3.94,3.63,6.77,3.98,.23,3.28,3.75,4.35,4.68,7.33-6.13,5.32-12.33,10.7-18.47,16.03-2.3-1.04-2.37-3.57-4.58-2.64,3.13,9.59,14.07,18.19,20.48,26.97-9.99,16.8,19.95-12.67,24.72-15.14,4.86,5.74,9.71,11.48,14.67,17.34-28.57,21.47-24.63,26.51,1.67,2.2,21.18,24.88,42.33,49.52,63.37,74.48,22.88,29.94,30.6,19.8,19.52,58.87-34.57-10.86-30.92-64.38-49.77-64.89-11.84,11.1-20.71,25.77-32.03,37.56-.05-9.09-8.25-12.55-16.18-12.21-36.23,22.92-37,26.81-48.14,67.49-10.5,3.57-22.11,6.77-31.37,13.34-5.14,3.48-13.16,17.93-18.3,14.12-2.33-6.8-8.96-11.08-12.59-17.03-1.57-8.85-5.49-18.18-4.74-27.05,14.09-14.65,33.25-17.84,39.04-40.18,1.05-7.09,8.26-10.93,10.2-17.5-.51-12.9-2.89-28.33-9.56-39.35C24.14,11.23,16.02,36.56-.96,37.59-15.21,35.1,1.84,.23,1.47-10.38c1.71-8.61,10.02-13.91,11.49-22.4,1.88-9.26,.9-19.37-.14-29.03-.02-9.03-7.59-17.21-4.68-26.06Zm-185.85-236.53c1.61-5.85,7.77-7.1,12.98-5.49,2.71-2.25,4.68-5.2,6.78-7.99,19.1,9.46,14.81,21.24,11.48,38.55,8.95,29.12-5,36.29,18.3,60.87,5.65,14.36,4.59,31.79,13.48,44.43,7.77,8.7,18.2,14.42,25.74,23.44,3.3,5.26,9.91,5.57,14.47,8.71,10.39,.18,22.67-2.06,31.35,4.05,7.26,11.02,16.81,31.74,7.84,43.79-11.72,14.41-20.45,34.53-15.58,52.94,4.62,8.15,20.19,10,25.18,1.19,5.28-12.24,13.85-23.67,29.2-22.58C12.22-60.55,15.18-33.94-.7-14.96-2.25-2.04-15.52,28.91-7.44,38.1c12.92,10.46,29.86-11.2,38.1-20.53,7.25,7.69,5.63,22.1,9.73,32.27-.06,7.58-7.37,10.83-9.4,17.4-.21,4.5-5.23,2.8-8.59,3.95-10.16,12.91-19.42-1.46-23.57,5.21,9.79,3.31,17.51,5.54,25.55-2.8,.8,.71,2.16-.81,3.31,.24-2.4,20.49-28.26,22.09-37.48,37.79,0,9.78,4,19.68,5.43,29.47,4,5.4,10.47,9.28,12.19,15.94l-32.88-8.67c5.78-11.76,.96-24.44,5.19-35.5,5.16-3.78-.2-9.45,2.88-13.52,.75-2.77,5.05-11.52-1.22-6.17-1.32,5.16-4.23,9.82-1.63,15.28-7.79,6.62-3.59,15.43-4.58,24.01-1.01,5.02-2.53,9.94-3.9,15.11-6.99-1.3-13.24-4.97-20.56-5.78,1.32-5.85,2.99-11.35,4.32-16.88-5.59-1.4-4.42,11.62-6.83,15.57-4.37-.08-9.05-2.33-13.61-3.19l5.94-22.53c3.39,0,10.64,5.33,11.65,.08-3.87-.33-6.91-2.75-10.88-3.45,.67-7.7,23.17-59.7,7.32-55.05-9.35-8.18-62.84-11.71-65.18-22.81,3.12-5.29,2.94-9.53-4.11-10.1,.61-7.38-11.08-8.37-7.62-16.97-.28-.16-.55-.31-1.11-.63,11.29-31.52,33.46-37.79-7.63-44.35,.79-3.86,1.13-8.06,2.48-12.02,7.6,1.44,14.75,4.9,22.38,6.34,2.65-6.59-22.71-5.18-21.04-11.5,5.65-23.43,13.1-46.85,16.54-70.51,2.1-.71,3.45-2.75,5.88-3.88,4.77,3.55,10.93,3.28,16.59,5.36-2.04,15.74-15.85,36.02-1.97,48.94,4.07,4.12,10.72,4.52,15.26,.7,6.22-14.93-4.11-21.16,14.07-39.52,15.73-14.01,4.46-30.33-12.52-16.8-27.36,15.7-43.28-19.48-60.46-35.82-3.76-1.74-17-2.55-15.39-7.42,4.38-25.84,25.5-49.47-10.53-60.05,4.78-18.3,10-36.81,14.02-55.14-6.15-10.67-21.92-7.95-32.24-12.46,1.99-7.5,3.85-14.68,5.83-22.11ZM-39.16,265.07c-4.52,16.47-8.66,33.04-13.1,49.53-3.56,3.27-11.75-3.59-16.78-3.7,6.07-26.89,14.5-53.78,21.71-80.35,3.84-5.4,11.34,.83,16.63,1.07,.01,10.77-6.94,22.23-8.46,33.45Zm-22.11,81.24c-4.67,16.59-8.3,33.42-13.72,49.69-4.85-2.75-18.53-1.12-16.07-7.86,7.36-24.28,13.24-49.25,20.54-73.37l17.03,4.49c-1.95,9.28-5.53,17.98-7.79,27.05Zm18.51-146.58c-4.59,16.07-2.38,27.45-23.07,19.15l19.13-72.54,17.5,4.61c-3.92,16.52-9.76,32.26-13.55,48.78Zm-59.41,72.83c4.7-18.72,9.96-37.14,15.18-55.68l17.04,4.49c-7.02,27.99-14.85,55.44-22.73,83.2l-16.66-4.39c2.14-9.16,4.83-18.46,7.18-27.62Zm33.19-54.58l-16.93-4.46c6.44-24.41,13.33-48.78,20.19-72.99,5.45,1.69,10.62,3.95,16.43,5.07-6.17,24.38-13.1,48.17-19.7,72.39Zm-36.86-20.73c-.99,3.08-1.69,6.25-2.6,9.7-28.92-3.2-10.21-20.84-7.63-39.41,2.99-12.61,7.03-24.75,10.57-37.18,5.49,.67,11.11,2.9,16.85,4.16-5.69,20.91-10.56,42.21-17.19,62.73Zm15.83-123.06c1.86-8.04,4.15-15.98,6.34-24.26l15.97,4.21c-5.14,24.81-13.86,51.11-20.06,77.05l-16.68-4.4c4.14-18.05,9-34.99,14.44-52.61Zm-61.14,298.9c7.11-24.78,14.25-49.6,20.72-74.81l16.11,4.25c-7.73,25.43-12.11,53.46-21.53,77.58-4.34-3.19-10.8-3.11-15.88-5.02-.32-.83-.18-1.47,.59-2ZM-98.38,90.02c-1.25,6.84-5.23,14.36-4.72,20.94-3.45,4.27-2.02,10.31-5.72,14.61-5.75-.63-11.04-3.56-17.05-5.06,6.69-25.51,14.4-50.59,20.79-76.21l18.15,4.79c-3.11,13.88-7.85,27.25-11.46,40.94Zm-41.42,149.2c-4.91,15.14-9.54,30.19-14.09,45.42-3.77,6.09-9.52-.13-15.05-.75,7.08-28.05,15.01-55.53,22.68-83.39,6.07,2.02,12.61,1.54,16.11,7.26-3.32,10.28-6.96,20.81-9.65,31.46Zm-32.67,55.18c.58-2.25,2.58-3.86,2.17-6.87,5.52,2.06,11.93,2.04,15.78,4.59l-20.24,76.75-16.16-4.26c6.17-23.4,12.38-46.78,18.45-70.21Zm36.5-143.6c-3.63,14.27-7.47,28.49-11.23,42.73-1.49,5.98-10.93-1.03-15.67-1,1.67-8.54,5.71-17.31,6.13-25.72,1.91-3.26,2.65-6.8,3.06-10.91,4.3-11.22,6.37-24.07,9.91-35.8l15.38,4.05c-1.24,8.93-4.98,17.59-7.57,26.65Zm27.47-107.38c-6.23,25.52-14.42,50.5-20.58,76.16l-13.61-3.59c5.75-25.57,15.51-50.87,18.82-76.62l15.38,4.06Zm-9.09-10.87c.52,1.37,1.01,2.67,1.56,4.13-1.27,.57-2.22-.29-3.46-.34,.45-2.63,.5-2.62,1.9-3.79Zm-1.84,133.89c-3.48,10.55-5.7,21.39-9.11,32.15-1.33,.1-2.62,.7-3.46,2.08l-13.16-3.47c3.37-19.77,12.62-39.47,15.09-58.9,3.08-3.62,2.69-8.93,4.43-13.4,2.62,.2,5,1.69,7.81,1.5,2.02,1.69,5.58,1.6,8.15,2.58-2.55,12.49-6,25.2-9.76,37.47ZM-128.26-4.5c-1.72,4.36-3.12,8.27-6.25,12.01-3.31-13.79-5-28.54-2.38-42.38,6.43,3.52,25.35,.18,18.48,11.41-3.84,5.67-6,13.3-9.85,18.96Zm-66.73,55.61c1.17-3.68,2.68-7.02,4.2-10.47,.98-.09,1.94-.24,2.58-1.01,5.73,1.36,11.77,3.68,17.62,2.57,4.7,2.57,13.11,6.78,22.21,7.24-1.79,11.59-5.71,36.81-14.21,44.94-6.13,.26-12.85-5.09-18.87-1.65-5.52-4.57-11.83-7.48-18.8-9.04-4.53-9.91,4.35-22.04,5.28-32.58Zm-4.45,6.64c-.4,2.18-1.26,4.61-2.5,6.32-6.51,.02-12.67-1.31-18.88-3.32-1.17-21.69,10.09-43.04,14.01-64.45,9.22,2.29,21.01,2.71,27.55,11.16-8.31,19.38,3.03,19.05,5.09,32.4-4.45-1.52-9.18-1.95-13.61-2.99-9.84,1.06-8.81,13.62-11.67,20.87ZM-279.66-1.23c1.65-1.12,2.31-2.96,3.58-4.41,10.23,4.29,35.24,3.52,32.3,18.37-14.58,13.56-5.03,42.38,10.03,18.44,2.45,6.25,6.45,11.84,8.11,18.35-20.2-3.78-39.84-11.23-59.88-16.14,3.36-10.97,1.39-23.77,5.86-34.61Zm12.85-37.68c1.72-3.15,2.95-6.28,3.89-9.67,2.16,.13,1.07,2.06,1.97,2.79,4.24,2.42,3.63,7.34,8.71,10.14,.81,2.65,.42,6.13,3.86,7.55-1.21,5.35,5.75,2.18,2.62-.78-6.24,.23-2.82-8.83-9.84-11.32-.49-2.67-.89-5.5-4.43-6.39-.26-1.9-.74-3.4-2.21-4.28-.33-14.31,5.97-32.86,22.12-17.76,9.42,10.55,52.71-10.07,45.88,11.98-1.72,.61-.62,3.04-2.35,3.66l-11.83,44.87c-20.73-4.54-40.64-11.98-61.41-16.6,.6-5.21,.36-9.74,3.02-14.18Zm34.45,63.66c2.94-17.29-18.28-15.05-13.31-39.36,2.92,.16,23.37,5.38,36.38,9.26l-13.5,51.22c-4.68-5.16-5.83-12.13-9.62-18.3,.79-.92-.28-1.86,.05-2.82Zm-15.65,1.26c2.68-4.05,3.38-9.75,7.56-13.03,11.19,2.26,4.35,28.83-7.01,22.85-2.02-3.42-.04-6.18-.55-9.82Zm-1.17-27.46l-25.56-6.74c1.13-4.91,2.52-9.33,5.19-13.83,7,1.37,13.6,4.38,20.69,6.27,.68,4.54,1.08,9.63-.32,14.3Zm24.93,55.45c-.26,1.54,.19,3.27,.29,5.33-13.15-4.92-26.85-3.66-39.42,2.28-15.34,6.47-26.57-12.22-22.57-25.56,20.31,7.09,41.6,10.21,61.7,17.95Zm-63.67-2.43c9.4,25.54,31.06,7.76,49.71,6.92,8.76,3.32,17.07,1.5,14.21,13.38-.48,3.43-6.81-.38-9,1.02-16.05-4.72-20.86,5.14-33.2,7.73-16.99-6.73-47.94-21.27-23.54-40.19-.07,3.95,.57,7.6,1.82,11.13Zm37.15,25.17c3.98-1.89,8.13-1.55,12.2-1.86,9.05,1.7,19.45-1.73,13.45,11.59-3.77-.54-26.82-6.69-29.15-7.79,.72-1.48,2.2-1.57,3.5-1.94Zm96.07-31.72c-1.68-.9-4.53,.62-5.96-1-1.1-1.45-3.28-.69-4.08-2.36-8.26-2.12-9.84-13.13-14.88-19.45,1.23-4.67,2.48-9.41,3.9-14.78,15.39-6.75,17.01-26.02,21.62-40.32,.06-3.95,6.99-11.66,1.87-13.63-8.67,16.75-6.28,41.74-24.89,51.67-5.28-9.7-26.38-7.04-28.09-14.91,3.96-13.82,6.66-28.41,11.65-41.7,2.53-5.96,6.09-11.41,.03-16.38-5.8-3.72-19.48,1.2-16.76-8.59,21.71,10.5,46.72,15.72,70.34,22.62,.99,7.01-3.94,13.57-2.97,20.67-11.36,46.37,43.03,94.26-11.8,78.16Zm-77.05-183.95c64.8,11.61,59.08,38.59,74.28-28.29,4.95,.86,8.51,3.41,11.96,7.21-8.05,31.42-16.7,62.61-25.43,93.81l-14.26-3.76c-.14-10.56,18.98-38.32,2.97-40.01-12.51-3.17-24.52-7.64-37.13-10.46-16.92-2.57-18.13-1.76-12.39-18.51Zm4.19-9.65c.72-2.58,1.37-5.18,2.06-7.76,3.16,.28,42.4,10.43,58.4,15.13-1.01,5.43-3.36,9.88-4.53,15.31l-58.56-15.44c1.69-2.17,1.94-4.78,2.63-7.23Zm21.45-78.74c1.44-4.59,2.23-9.46,3.86-13.94l27.67,7.3c-6.06,16.88-7.21,39.35-15.8,53.29-40.14-6.5-21.39-17.72-15.73-46.64Zm40.87-20.9c-.97,4.01-2.09,7.98-3.21,12.23l-25.17-6.64,14.51-55.04c8.06,2.73,17.07,3,24.21,7.68-3.96,13.89-7.02,27.82-10.34,41.77Zm17.45,36.2c-4.33,12.48-7.46,25.82-11.45,38.83-9.02-2.6-17.1-4.36-25.99-6.34l14.1-53.48c8.31,4.62,22.27,5.28,23.09,16.93,.93,1.27-.53,2.67,.25,4.06Zm-12.57,45.06l-6.08,23.06c-19.66-4.76-38.51-10.7-58.1-15.76l6.51-24.69c17.6,9.54,39.82,10.32,57.67,17.39Zm-76.51,46.32c61.52,19.56,64.2-.27,48.61,49.25-4.08-.53-7.09-3.59-11.09-4.14-2.02-10.7-18.07-20.01-25.28-8.83-6.7-2.09-13.82-2.45-20.55-4.74l8.32-31.55Zm19.55,34.11c9.09,1.82,11.04,2.44,14,9.04-5.95-1.86-11.5-4.6-17.72-5.93-.03-.25-.06-.49-.1-.74,1.28-.8,2.57-1.6,3.82-2.37Zm81.55-71.11c-.58,.12-1.34,.27-1.15-.66-1.23-.31,.34-1.22,0,0,.41,.2,1.1,.06,1.15,.66Zm2.57,16.77c-6.94,26.23-14.98,52.53-21.52,78.97l-12.27-3.23,24-91.04c3.57,4.1,6.82,9.94,9.78,15.3Zm-4.64,80.71l-.87,3.3c-5.02-.79-8.6-3.01-13.43-4.28,6.8-25.35,14.16-50.57,20.84-75.91,3.63,7.67,12.36,14.89,7.26,24.48-4.56,17.48-9.19,34.95-13.8,52.42Zm13.88-77.35c-3.31-6.81-9.7-12.86-11.82-19.79,8.11,8.47,15.76,17.35,23.62,26.06-.95,2.38-3.76,2.6-5.08,4.46-2.9-2.8-4.42-7.26-6.71-10.72Zm32.87,13.09c8.64-.99,14.97-5.4,22.22-9.62,13.89,1.38,4.52,14.11-1.52,19.47-7.06,8.47-12.99,19.33-10.87,30.62,.32,3.18,.79,5.61-1.8,7.55-27.63,4.22-10.47-33.16-8.03-48.02Zm-99.13-207.72c11.06,5.22,12.01,8.1,7.94,19.55-9.46-1.05-11.14-12.06-7.94-19.55Zm-2.16,2.66l-1.01,3.81c-2.39-1.24-5.12-.16-7.72-1.49,.04-1.39,.7-2.78,.97-4.36l7.75,2.04Zm-10.32,2.84l9.36,2.47c.05,7.61,5.95,10.89,11.06,14.42-1.83,1.85-1.54,4.6-2.64,6.95l-22.5-5.93,4.72-17.91Zm-14.06,52.94c2.95-10.54,5.48-20.9,8.35-31.54l25.08,6.61c-.58,3.3-13.29,51.52-14.47,54.88-28.28-8.37-28.16-.02-18.95-29.95Zm-13.95,123.58c-.17,2.43-.87,4.93-2.67,7.11l-17.19-4.53,12.45-47.22c6.28,1.63,12.35,3.74,17.11,8.3-2.31,12.44-8.05,23.85-9.7,36.33Zm20.11-75.68c-2.92,10.77-5.72,21.58-8.57,32.37-5.64-2.19-11.1-5.48-17.58-6.48l12.45-47.23,18.68,4.93c-.87,5.86-3.85,10.76-4.99,16.41Zm7.94-106.45l1.18,.31-1.15,4.35c-.03-1.54-.58-3.08-.03-4.66Zm-57.73,219.91c3.77-10.37,5.73-21.15,8.8-31.76l16.2,4.27-13.27,50.32c-5.91-.79-11.83-1.03-17.52-1.92,2.05-6.7,3.14-14.33,5.78-20.91Zm10.05-164.88c6.3-19.13,10.51-38.83,15.93-58.21,7.84-.81,18.9,4.92,28.12,6.4-5.77,25.33-12.42,50.57-19.83,75.46-7.51,2.37-18.1-4.3-26.77-5.33-3.27-5.29,1.28-12.5,2.56-18.31Zm-4.7,21.29l26.67,7.03c-1.49,15.66-8.35,31.96-11.71,47.98l-28.52-7.52c5.02-15.42,6.91-33.29,13.56-47.5Zm-14.91,53.03l28.43,7.5c-4.6,15.64-7.16,31.57-13.21,46.88l-27.63-7.28,12.42-47.09Zm-14,50.32l28.31,7.46-13.95,52.9c-9.46,3.94-19.38-3.74-28.81-5.54l14.45-54.82Zm-22.69,83.33c2-8.38,5.46-15.75,7.11-24.47,9.34,2.54,18.42,4.92,27.34,6.81-14.8,34.76,2,42.35-37.72,29.9,1.08-4.11,2.04-8.22,3.27-12.25Zm41.47-275.31l27.77,7.32c-8.56,24.83-12.07,53.12-22.5,76.42l-25.57-6.74,20.3-77Zm-21.45,81.21c7.99,.89,20.51,2.84,26.98,7.86-3.99,15.15-7.98,30.27-12.04,45.65l-15.47-4.08,1.61-6.12c-.78-.67-1.61-.79-2.59-.85l-1.64,6.22-9.06-2.39,12.2-46.28Zm-23.84,87.57c2.89-12.37,6.69-23.87,10.04-36.16,8.5,3.79,17.78,5.26,27.25,8.01-5.27,15.38-8.9,31.22-13.16,47.02l-27.11-7.15c.76-3.88,1.97-7.78,2.98-11.73Zm-12.95,46.45c4.4-9.97,5.63-20.99,9.06-31.3l27,7.12-14.29,54.18c-8.93,2.1-18.64-4.95-27.93-6.62l6.17-23.39Zm19.86,34.66l-9.7,36.79-27-7.12,9.64-36.56c2.64,.19,17.34,3.91,27.06,6.89Zm-37.85,33.58c5.55,3.37,28.51,2.32,26.5,9.64-8.89,26.86-14.82,54.82-23.68,81.85l-14.83-3.91c2.46-11.55,9.9-28.12,1.18-37.85,.11-16.93,7.12-32.92,10.82-49.73Zm-22.64,96.23c1.89-2.27,2.36-8.15,6.19-6.29-.49,4.82-5.78,9.81-9.26,12.97-.48,.97-1.09-.51,0-.15,.37-2.49,2.1-4.33,3.07-6.53Zm11.78-40.81c.44,.31,.28,.63,.16,1.09-.74-.39-.67-.78-.16-1.09Zm-7.01,30.79c2.62-9.92,5.24-19.2,7.09-29.15,3.19,9.41-1.65,19.96-3.75,29.64-1.15,.3-2.06-.45-3.34-.48Zm-14.02,26.96c1.36-2.67,2.14-5.61,5.03-6.27,6.62-2.89,9.68-9.98,14.13-15.38,4.92,1.42,9.64,1.53,14.69,3.29-3.51,9.38-5.06,22.45-10.77,29.68l-24.8-6.54c-.41-1.99,1.31-3.14,1.72-4.77Zm-11.6,148.88c-1.94,8.47-4.5,16.83-6.61,25.27-2.77-.24-19.23-4.45-27.17-6.94l20.46-77.6,27.77,7.32c-4.73,17.36-8.71,34.92-14.45,51.96Zm2.11-120.84c2.47-6.36,2.32-15.03,6.34-20.11,8.51,3.25,19.35,3.02,26.57,8.36-6.99,25.1-13.09,51.25-19.51,76.62l-27.87-7.35c5.27-19.12,8.93-38.48,14.47-57.52Zm-51.3,194.89c5.68-17.11,9.37-34.75,14.5-52.3l27.03,7.13-20.65,78.31-27.77-7.32c2.36-8.59,4.11-17.37,6.89-25.81Zm-22.55,82.85c3.92-17.14,9.84-33.77,14.02-50.81,8.84-.25,18.5,5.61,27.93,7.12-3.91,20.27-13.19,41.44-13.43,61.6-8.56-.53-18.19-4.75-27.16-6.55-3.14-4.1-4.47-6.78-1.37-11.37Zm-7.27,11.4c.43-1.17,2.14-1.06,2.23-2.89,3.46,4.05,6.45,7.7,5.98,13.02-.45,.23-1.31-.37-1.92,1.02-1.14-3.08-3.32-3.88-5.64-4.26-.63-2.69,.14-4.44-.64-6.89Zm32.82-237c9.32,1.99,17.67,5.52,26.85,7.85l-20.45,77.56-27.04-7.13,20.64-78.28Zm-25.84,97.8c1.15-5.44,2.83-10.52,4.17-16.01l27.13,7.15-20.98,79.58c-8.84-3.76-18.22-5.23-27.61-7.97,5.91-20.89,10.22-42.27,17.29-62.75Zm-25.3-35.89c7.01-22.66,10.9-47.91,19.3-69.51,9.11,1.92,18.52,3.8,27.52,6.46-3.38,25.84-14.72,52.18-20.34,78.44l-29.24-7.71c1.06-2.57,.91-5.42,2.75-7.68Zm9.98,78.14c-1.57,6.54-3.79,12.86-6.01,19.32-8.89-3.1-20.05-3.78-28.08-8.28,6.79-25.73,13.58-51.5,20.35-77.18,9.59-.29,19.47,4.98,29.38,6.7-5.16,19.82-10.56,39.59-15.64,59.43Zm-54.99,87.47c6.28-23.85,12.36-47.76,19.49-71.3,9.14-.21,19.15,4.91,28.65,6.59-5.7,24.39-13.7,47.86-19.62,72.23l-28.52-7.52Zm37.5,19.24c-4.78,9.14-5.59,20.02-8.87,29.97l-26.58-7.01c2.81-11.47,6.01-22.25,9.58-33.42,7.11,3.53,24.69,2.6,25.87,10.46Zm-.56-9.47c-4.42-7.59-2.4-15.21,.69-23.18,5.75-16.6,8.8-33.79,14.38-50.35,9.89,2.1,18.07,5.47,27.6,8.07-.05,3.01-1.65,6.16-2.17,9.21-8.17,16.5-5.1,43.24-21.55,53.21-7.13,2.84-12.13,9.95-18.94,3.05Zm23.3,6.01c-2.45,1.39-5.94,.92-7.23-1.26,2.38-1.67,5.38-2.01,7.55-3.99,.92,1.92,.28,3.61-.32,5.25Zm7.96,19.87c-3.21,7.32-4.27,15.26-6.82,23-9.55-2.05-18.19-5.49-27.69-7.63,4.57-12.17,2.84-28.16,15.73-34.42,8.18,4.92,12.84,.3,21.07,6.3,.77,4.32-1.2,8.65-2.3,12.75Zm29.7,13.54c-1.27,5.74-2.95,11.39-4.49,17.21-9.63-2.96-19.09-4.13-28.69-6.87,2.99-15.45,11.72-29.81,10.04-45.78,26.56,5.87,34.78,6.66,23.14,35.44Zm39.27-175.03l.85-3.22c16.35,2.01,16.84,7.35,27.31,17.04l-2.44,9.27c-18.55-6.5-15.73,13.91-20.1,26.04,3.42,3.15,7.83,3.36,11.88,4.71-2.38,10-4.74,19.97-7.01,29.99-9.97-3.33-20.41-3.85-29.55-8.87,6.87-24.85,12.19-50.11,19.07-74.96Zm10.64,36.73c4.17,.87,6.87,2.15,10.58,3.39l-2.88,10.93c-3.52-.06-6.15-2.3-9.36-3.03,.37-3.72,2.57-7.04,1.66-11.28Zm4.31-11.69c3.36-.5,6.49,.71,9.81,1.56l-2.72,10.3c-10.55-2.5-11.14-1.51-7.1-11.86Zm-11.42,82.64c-3.82,14.4-7.58,28.24-11.93,42.6-7.83-4.34-16.85-4.19-25.22-5.94-3.13-20.73,9.69-42.12,12.99-63.09l29.73,7.84c-1.06,6.51-4.31,12.22-5.56,18.59Zm-12.13,80.01c-1.15,4.42-2.33,8.84-3.57,13.57-3.03-.53-5.94-2.21-9.05-1.88-1.27-1.24-2.75-1.52-4.46-1.06-3.05-3.82-9.99-3.15-14.85-5.2,1.78-15.47,14.91-31.9,7.4-46.94,8.14,.61,17.16,1.75,24.37,5.34-1.78,18.29,11.24-.11,1.38,33.85-.78,.42-.97,1.38-1.22,2.32Zm39.19-169.66l.76-2.87c6.32,1.32,11.13,3.59,17.2,5.23-6.84,24.37-13.52,48.51-19.83,73.13-3.96-4.84-8.94-7.55-15.01-8.8,5.98-22.2,11.7-44.37,16.89-66.69Zm-17.82,140.44c-.5-.47-.38-.82,.04-1.13,.83,.43-.12,.77-.04,1.13Zm-9.08-38.52c2.54-10.07,6.68-19.66,8.46-30.17,5.84,1.95,10.72,4.59,14.07,9.85-.48,2.75-13.29,51.46-14.55,55.15l-16.03-4.23c2.69-10.19,5.46-20.37,8.04-30.61Zm20.3,75.02c-1.79,4.75-2.8,9.67-4.45,14.54l-28.53-7.52c2.34-7.6,3.6-15.89,6.14-22.76,2.51-8.62,5.77-16.75-2.96-22.82l.66-2.49c31.97,11.31,42.22,.96,29.14,41.04Zm24.65-163.69c.77-14.1,8.25-8.24,18.16-5.99-7.03,27.13-15.17,53.49-21.99,80.75-6.14-1.56-10.28-5.38-13.92-10.31,5.94-21.38,10.66-43.41,17.74-64.46Zm-26.12,96.87c2.82-8.05,4.37-16.41,7.14-24.62,21.82,14.2,9.87,5.66,8.52,27.93-4.34,8.55-5.17,19.24-8.38,28.89l-10.77-2.84c-.31,.43-.55,.77-.88,1.24,.48-2.81-2.86-2.01-2.87-3.81,2.37-8.95,4.19-18.09,7.24-26.8Zm18.14,6.24c2.09-7.06,3.64-14.12,5.82-21.52,4.92,1.06,8.7,2,13.47,3.56l-12.77,48.42-14.12-3.72c2.72-8.87,3.98-18.21,7.6-26.74Zm29.24-107.71c9.99,3.06,20.3,4.67,29.96,8.65,.09,23.79-11.06,24.92-19.96,42.34-6.02,11.19-2.46,24.68-6.75,36.57-8.52-2.28-17.07-4.12-25.16-7.13,6.78-27.58,15.16-52.97,21.9-80.44Zm31.67,21.27c.31-3.93,1.84-7.44,2.38-11.39,6.58,.44,15.28,6.95,20.41,3.15-.52,2.55,2.86,3.51,4.89,2.08,.39,1.99,1.49,1.37,3.21,2.35l-16.97,64.36c-5.08,.66-10.47,1.08-14.7,4.26-2.12-9.58,15.64-40.13,9.48-46.19-5.49,15.33-9.22,31.51-13.47,47.4-7.44,3.94-12.6,4.5-20.4,1.14,4.13-10.13,.95-21.68,4.71-31.08,2.8-14.62,20.2-20.7,20.46-36.08Zm-43.62,147.77c-3.01,7.14-4.5,14.71-6.59,22.24l-28.39-7.49c4.43-14.6,10.36-30.13,9.71-45.88,24.2,9.47,34.77-.23,25.27,31.14Zm4.69-26.16c-8.01-1.64-10.39-2.4-12.6-4.03l12.55-47.59c6.49-1.17,13.37,3.97,20.03,5.11-2.95,8.19-9.46,14.71-6.39,24.26-1.31,9.04-11.34,13.46-13.59,22.25Zm42.47-21.35c-8.3,25.71-14.66,52.11-22.1,78.1l-28.41-7.49c2.56-13.15,9.7-25.94,9.79-39.11-.48-11.05,8.16-18.1,13.73-26.46,2.1-12,.64-17.97,8.48-29.43,9.51-2.56,17.62-8.15,27.08-9.26-2.11,11.18-5.9,22.43-8.58,33.64Zm15.63,61.04c-2.89,8.17-4.86,16.51-7.08,24.86-2.83-.24-17.84-4.06-27.28-6.95,3.36-14.23,7.96-27.57,11.57-41.84l27.37,7.22c-1.48,5.62-2.49,11.38-4.58,16.72Zm16.77-183.96c-3.17-.99-4.67-4.04-5.79-6.89-2.32-7.99,4.31-14.17,12.14-14.44,4.87-1.27,6.69,5.01,10.21,4.8-.04,3.73,1.96,8.14-.04,11.86-3.11,5.41-12.68,9.05-16.51,4.67Zm4.23,3.74c-.25-.29-.19-.51,.17-.64,.25,.29,.19,.51-.17,.64Zm-14.1,49.76l12.77,3.37c-9.9,23.05,7.32,18.6,22.76,24.67-2.18,4.18-.31,10.4-3.9,13.48-13.51-4.14-26.45-7.93-40.34-11.33,2.45-10.51,5.73-20.02,8.71-30.19Zm1.11-3.96l7.82-29.64c18.65,3.92,36.64,10.73,55.14,14.99,.17,9.7-5.24,20.42-7.04,30.52-18.39-3.2-37.52-10.79-55.92-15.87Zm42.08,54.08l2.89,.76-8.37,31.76c-18.73-4.91-37.13-10.76-55.66-16.06,.24-2.87,4.8-20.75,7.97-31.17,17.61,5.34,35.28,10.18,53.17,14.71Zm-28.04,113.8c-40.56-8.99-21.89-5.29-14.28-49.15,8.86,1.69,16.82,5.52,25.82,7.25-3.24,14.28-8.16,27.66-11.54,41.9Zm18.59-68.79c-1.88,7.81-4.03,15.15-6.03,23-18.9-5.19-37.79-9.4-56.26-15.39,2.69-11.4,6.25-21.75,9.45-32.78,13.3,4.34,28.38,7.73,42.12,12.24,8.8,2.66,17.47,1.62,10.71,12.91Zm19.06-69.56c-1.74,6.7-3.52,13.37-5.28,20.07l-12.2-3.22c.53-5.5,5.34-11.84,2.46-16.68-14.23-7.27-31.59,.69-22.24-21.8,13.31,4.14,26.65,8.36,40.25,12.06-.03,3.69-2.16,6.41-2.98,9.57ZM-145.08,101.36l-3.91,14.82c-4.64-.07-8.94,1.12-13.22,2.52,3.19,2.35,8.64-1.44,12.74-1.55,.33,1.41-1.05,2.79-.37,4.44-10.06,5.25-21.12,11.09-32.78,9.48,.08-3.33,3.91-2.33,5.74-3.04,2.15-3.01,5.81-2.21,8.53-3.9-1.74-1.27-3.3,.18-4.89,.18-3.25,.59-5.52,4.61-8.45,.69,2.71-5.57,4.43-7.18-3.31-8.95-.57,6.13-4.82,10.92-11.28,8.12-1.14-2.68-4.63-5.98-1.93-8.99,4.48-6.78,8.84-2.66,13.21,.88-.2-1.49-1.41-2.47-1.95-3.98-4.71-2.35-12.45-2.97-15.83,2.01-5.5-7.06-14.97-8.95-23.22-10.3-.84,1.67,.51,2.04,1.25,2.85-2.25,3.28-2.39,7.34-3.76,11.13-5.7-1.02-10.23-3.13-15.69-4.86-.13-1.6-5.3-5.01-.86-4.47,.86,1.52,1.62,2.87,2.42,4.28,1.66,.06,3.47,.52,4.2-1.73-5.57,1.59-2.98-2.75-7.79-4.2,.76-2.5-.91-2.87-1.46-.56-1.73,.56-3.78,.09-5.18,1.65,1.55,.87,3.07-.32,4.58-.24,.06,.35,.1,.56,.17,.98-4.39,.47-6.84,6.32-2.46,8.96-4.34,14.25-1.15,29.57-3.31,44.11,1.12,.75-.26,2.05,.64,2.85-1.25,5.97,1.34,11.82,.89,17.66l2.35,.62c1.84-2.58-.6-5.5,.34-8.23-1.03-1.89-1.38-4.79,.24-6.18l-.93-.25c-.43-1.85-.3-3.67,.35-5.45-1.11-.75,.25-2.05-.63-2.86,3.1-10.11-5.61-43.66,8.41-42.82-.09,.63-.17,1.15-.29,1.9,5.94,1.77,12.38,2.52,17.51,6,4.83,1.13,8.75,4.57,13.59,5.66,1.53,2.04,7.94,2.21,8.1,4.91,3.74-.09,10.74,1.83,12.42,3.28,3.13-1.51,7.04,1.36,10.31-.34-.43-.96-1.53-.5-2.57-1.52,.52-.35,.74-2.26-.68-1.54-.7,.73,.48,1.23,.15,1.88-.23,1.24-1.72-.51-1.73,.69-11.36-.33-20.2-6.11-30.41-9.89-1.2-1.72-3.75-.97-4.95-2.69-7-2.55-13.9-5.42-20.96-7.49,.1-.25,.19-.49,.29-.74,10.79,2.5,21.25,6.66,30.75,11.57,17.59,8.26,38.05,7.36,55.76-.55l.34-1.3,1.3,.34c-.05-1.77,1.39-.51,1.92-1.55-3.81,20.73-11.05,41.92-16.04,62.99l-4.54-1.2c-.21,.65,.45,.96,.6,1.61l2.93,.77c-8.85,27.62-14.01,62.11-25.81,86.03-.28-.48-.56-.97-.87-1.5-.63,.13-1.29,.27-1.96,.4,1.07,1.37,2.61,1.81,4.36,2.17-1.67,4.74-1.93,9.67-4.43,14.11-18.98-4.94-37.2-10.71-55.99-16.07,1.59-3.6,.99-9.05,4.01-11.46,10.27,2.8,19.42-9.37,16.15-18.16-.96-3.16-3.14-5.79-5.51-7.71-.07-.81,.46-1.03,.96-1.26-1.35-1.44-1.86,2.22-4.65-1.18,1.7-5.22,2.28-11.15,1.5-16.55-4.6-3.05-1.97,13.48-4.22,16.7-7.05-1.76-11.98,4.26-17.1,8.1-3.3-.81-8.01-2.17-10.98-1.51,3.7,1.47,7.4,1.03,10.97,2.51,.76,5.43,1.07,17.02,8.69,16.61,.8,4.33-1.73,8.56-2.43,12.83-1.02,.55-2.12-.85-3.11,.14-19.47-6.8-40.88-10.71-60.82-17.37,.73-2.19,.55-4.75,2.86-6.18-2.36-.34-5.02-1.69-7.24-1.49,1.03,1.07,3.83,.35,2.84,2.41l1.13,.3-1.2,4.54c-13.37-2.92-26.16-7.57-39.08-11.52,1.46-7.33,4.05-13.54,6.77-20.29,.54-.13,.85-.78,1.5-.58,.79-1.51-.94-4.33,1.84-4.37,.33-6.12-2.03-13.53,2.02-18.18l-.97-.26c2.41-12.79,9.36-23.52,17.41-33.76,1.41-5.56,2.87-10.48,6.79-14.63-7.82,2.19-7.05,20.93-17.02,24.91-7.21,13.24-9.16,28.52-10.81,43.06-3.99,7.35-6.83,14.6-8.62,22.94,1.23,.31-.34,1.22,0,0-11.49-12.23-7.29-12-26.17-15.91l20.67-78.41,13.18,3.48c.48-.46,1.19-.43,1.37-1.48-.24-.16-.72-.49-1.21-.81,.17-.11,.34-.21,.52-.32-3.38-1.99-14.32-.95-12.65-5.94,3.19-12.22,6.4-24.43,9.65-36.63,3.07-12.82,5.03-27.9,10.67-39.28,3.46-.06,10.9,5.4,11.94,.51l-11.29-2.98c10.14-39.32,22.92-79.64,34.01-119.31l26.82,7.07c10.77-8.84,8.68-29.22,16.18-41.73,10.57,3.22,58.16,3.69,55.97,16.87-28.49,14.27-35.76-21.2-50.62,2.67-3.48,10.4-1.58,22.32-8.37,31.42-1.97,13.13-4.43,26.68-12.72,37.67-3.53,10.88-.93,22.84-5.39,33.58-6.28,8.39-17.31,16.24-11.38,27.48,4.4,8.08,34.22,28.56,42.34,19.4,29.57,4.6,38.27,23.28,37.42-17.18,5.82,1.6,11.49,3.28,17.56,3.13-1.87,13.18-4.6,20.17,11.98,22.69,12.59,10.34,11.26,1.73,27.13,7.83,14.63-5.03,12.79-33.49,18.94-46.76,4.53-.71,9.08-.03,13.57-.27-3.19,17.27-9.69,33.89-13.78,51.02Zm-75.53,17.11c5.66,1.73,13.15,2.08,17.79-2.2l2.2,.58c-.02,6.34,5.55,11.15,11.72,8.58,2.18,.85,2.16,4.09,4.88,4.05,1.86,6.04-22.56-1.36-25.39-3.93-6.12-1.65-11.67-5.16-17.53-7.46-.13-.7,.09-1.18,.33-1.67,2.39-.46,3.9,1.63,6,2.05Zm-5.47-3.93c.71-14.03,17.42-6.71,22.43,.86-6.6,4.54-15.69,3.54-22.43-.86ZM-133.43,11.67c1.29-1.52,2.49-2.94,3.7-4.36,1.7,2.06-.69,3.76,.84,6.79,5.56,4.09,9.77,8.4,6.76,15.92,2.02-2.05,2.33-2.37,1.99-4.71,.72-.61,1.87,.74,2.62-.37,3.08,1.37,2.36,4.96-.11,6.63-1.48,.58-1.98-.82-2.68-1.13-1.34,.55-.59,1.36,.31,1.67l-.95,3.6c-8.49-2.46-7.87-16.33-12.48-24.04Zm-90.49,462.12l-15.18-4c.22-2.74,5.46-23.21,8.61-33.54l15.4,4.06-8.83,33.48Zm9.66-36.96c-7.22-2.47-19.45-1.63-13.2-12.25,6.71-19.44,10.65-39.71,16.31-59.49l15.56,4.1c-6.53,22.43-10.71,45.63-18.67,67.65Zm20.16-72.91c-5.16-2.11-11.68-1.5-15.4-5.14,8.15-24.29,13.45-50.22,20.5-75.09,5.55-.13,10.42,2.14,15.8,3.16-6.71,26.03-13.59,51.21-20.91,77.07Zm21.93-80.78c-5.45-1.3-10.23-1.81-15.76-3.56,8.83-27.32,15.09-56.14,24.2-83.66l14.96,3.94c-9.06,27.2-14.73,55.63-23.4,83.27Zm-32.31,195.76l-16.8-4.43c2.52-11.44,6.27-22.09,9.58-33.27l16.04,4.23-8.82,33.47Zm10.4-36.77c-4.17-2.45-17.03-1.36-16.18-6.73,6.23-21.69,10.5-44.14,17.94-65.35l16.13,4.25-17.89,67.83Zm40.08-152.21c14.71-24.86,15.09-59.29,29.82-83.56l14.85,3.92c-7.19,28.15-14.94,55.94-22.89,83.87-6.65-.91-14.13-6.13-19.68-2.36-1.32-.09-1.83-.73-2.11-1.87Zm-30.45,194.34l-16.52-4.36c3.71-10.5,6.11-22.16,9.3-33.54,5.33,1.4,10.66,2.81,16.1,4.24l-8.87,33.65Zm24.25-88.91c-6.35,16.73-9.19,34.52-14.4,51.99l-16.09-4.24,17.91-67.93,16.74,4.41-4.16,15.77Zm9.64-33.95c-2.17,3.99-2.77,8.5-4.14,12.83l-16.8-4.43c7.02-24.89,12.09-50.14,20.5-74.68,2.59-2.54,19.66,.78,17.31,4.85-4.96,20.65-11.92,40.77-16.88,61.43Zm-14.49,127.93l-16.69-4.4c4.33-10.64,6.19-22.14,9.47-33.28,5.79,1.6,10.65,3.61,16.72,4.94-3.05,11.01-5.35,22.03-9.5,32.74Zm22.37-81.78c-3.68,15.12-7.96,29.94-11.82,45.06l-16.85-4.44c4.25-22.78,11.73-44.69,17.78-67.07,5.82-.84,11.21,3.77,17.44,4.35-1.7,7.51-4.83,14.6-6.54,22.1Zm30.95-114.74c-.3,2.08-1.03,4.1-1.6,6.29l-15.56-4.1c8.52-27.44,12.82-58.09,23.49-83.91,3.97,3.08,9.88,2.87,14.73,4.71-7.29,25.58-12.54,51.89-21.05,77.01Zm33.52-121.89c-3.34,14.06-7.5,28-11.23,41.74-6.21-1.43-10.37-3.73-16.49-5.04,7.86-23.53,13.06-48.29,20.48-72.16l16.2,4.27c-2.77,10.49-5.26,21-8.97,31.18Zm14.76-53.14c-1.74,6.13-3.04,12.46-5.01,18.49-3.91-2.28-15.94-1.37-15.53-6.22,3.59-17.54,9.79-35.36,12.35-52.67,2.79-2.58,4.24-7.5,3.81-11.23,1.86-3.35,2.39-7.21,3.74-10.99,5.34,.69,10.05,4,15.45,4.54-1.46,19.48-11.05,38.58-14.8,58.09Zm-90.67,379.99c-6.41-.95-9.45-2.52-6.27-9.28,2.48,1.02,4.69,2.42,7.22,2.67,.15,.89,.27,1.6,.4,2.36-.31,.26-.62,.53-1.07,.92,.41,1.05,.57,2.2-.27,3.34Zm9.09-2.52c-11.44-1.79-1.89-5.13-15.3-7.22l8.03-30.45,16.08,4.24-8.81,33.42Zm25.96-93.42c-5.91,17.27-9.5,35.2-14.47,52.77-1.25,8.32-12.42-.45-17.74-1.07,5.72-22.61,12.66-44.45,18.39-67.12l16.85,4.44c-.99,3.74-1.47,7.61-3.03,10.98Zm17.87-64.71c-5.34,15.98-8.97,32.04-13.43,48.39l-16.85-4.44c7.18-25.78,12.77-51.89,21.16-77.3,5.49,.76,11.1,2.9,16.83,4.19-2.58,9.75-5.06,19.44-7.71,29.16Zm-23.69,163.54l-17.5-4.61c2.54-11.45,6.5-22.03,9.6-33.31,27.15,1.73,10.1,20.34,7.9,37.93Zm23.8-87.63c-5.97,15.32-8.53,32-13.31,47.83-5.14,4.14-11.43-.83-17.6-1.62,5.62-22.76,12.63-45.04,18.55-67.73l16.85,4.44-4.5,17.08Zm9.38-35.59l-3.46,13.11-16.85-4.44c6.59-25.07,14.22-49.81,20.47-75,3-5.53,12.08,2.67,17.31,2.71-5.34,21.37-11.57,42.44-17.47,63.62Zm33.47-121.88c-4.73,18.18-9,36.4-14.99,54.19l-16.8-4.43c8.18-27.61,15.35-55.36,22.65-83.26,7.4,2.26,13.48,3.91,20.01,2.39-5.71,8.49-7.76,21.07-10.87,31.11Zm-46.55,250.34l-16.79-4.43,8.45-32.04c5.34-1.83,10.75,1.75,16.55,2.7-3.58,11.31-5.14,22.48-8.21,33.76Zm20.69,5.43l-18.09-4.77c11.22-30.41-1.73-39.05,26.77-28.15l-8.68,32.92Zm20.36-78.98c-2.83,14.3-7.01,28.08-10.6,42.21-57.96-12.39-31.84-11.59-19-77.82,12.27,3.88,24.32,7.19,36.75,10.49-1.45,8.73-6.16,16.44-7.15,25.13Zm24.25-84.74c-6.22,17.83-10.19,36.24-15.73,54.41-5.82-1.61-10.52-4.1-16.66-5.17,6.37-25.91,14.46-50.97,20.96-76.88l17.5,4.61-6.07,23.03Zm13.65-51.91c-2.05,8.45-4.4,16.83-6.66,25.4l-17.32-4.57c6.43-28.37,15.19-55.69,22.74-83.96,6.11,1.26,11.11,3.92,17.22,5.3-5.09,19.37-10.1,38.7-15.98,57.83ZM1.14,198.28c-4.07,11.61-6.09,24.07-10.14,35.5-10.91-4.95-28.89-3.1-35.93-12.66,5.71-22.5,13.4-46.35,18.96-69.26l36.09,9.52c-.98,12.43-5.72,24.82-8.97,36.91Zm-68.47,317.49l-12.81-3.38c3.35-10.98,4.95-22.03,8.01-33.02l13.46,3.55-8.66,32.85Zm23.35,4.09l-.68,2.58c-6.95-2.74-13.96-4.21-21.25-6.18,3.15-11.18,5.8-21.85,7.96-33.26,7.1,2.04,14.02,3.24,20.35,5.94,1.11,10.5-4.6,20.64-6.38,30.92ZM26.49,252.82c-6.8,26.21-14.28,52.08-21.51,78.31l-14.65-3.86L12.34,243.78l16.09,4.24c-.71,1.63-.54,3.43-1.94,4.8ZM-29.85,526.4l-10.93-2.88c2.83-11.03,5.51-22.24,7.49-33.17l12.11,3.19-8.66,32.86Zm11.43-35.75c-5.3-.88-9.92-3.31-15.02-4.73,6.01-22.73,12.72-44.85,18.37-67.8l15.33,4.04c-4.34,22.47-11.95,45.97-18.68,68.5Zm.22,38.81c-17.29,0-.45-24.04-.2-35.19,2.95,.4,5.87,1.5,8.89,2.2l-8.7,32.99Zm15.88-1.75c-.32,2.01-2.37,3.16-1.94,5.43l-13.18-3.48c2.5-11.25,6.36-21.58,9.46-32.7l11.34,2.99c.06,9.59-3.66,18.47-5.68,27.75Zm21.58-14.07c-4.13,7.41-3.14,18.18-8.22,24.29-3.64-1.31-7.53-2.9-11.65-3.75,2.93-11.2,6.08-21.83,8.03-33.09,4.95,.5,8.97,3.75,14.19,4.02-.85,3.21-1.14,6.1-2.36,8.54Zm14.07,12.97c-1.61,5.16-2.67,10.17-4.12,15.43-4.92-1.59-9.48-2.17-14.36-3.39,2.57-10.93,6.72-21.45,9.24-32.43,3.69,1.06,7.48,.79,10.95,2.02,.3,1.33,.54,1.74,1.65,2.75-1.75,5.05-2.1,10.44-3.38,15.61Zm15.5-56.38c-4.03,11.06-6.9,22.58-10.87,33.52-9.67,1.75-21.04-5.13-31.31-6.57-1.4-2.01-.81-4.33-.54-6.43,6.65-20.34,11.01-42.04,17.65-62.62,10.74,4.03,21.56,6.51,32.98,9.55-2.8,10.83-6.02,21.63-7.9,32.55Zm51.66-195.68c-6.98,25.57-13.19,51.55-21.01,76.85l-14.26-3.76c7.28-27.84,15.14-55.61,22.86-83.26l14.77,3.89c-.91,2.06-.68,4.43-2.36,6.27Zm19.04-67.72c-6.3,19.04-10.42,38.65-15.82,57.96-5.21-.49-9.46-3.77-14.82-4.27,6.05-24.54,13.26-47.49,19.51-72.05,5.12,1.82,10.32,2,14.82,4.93-1.18,4.46-1.87,9.19-3.7,13.44ZM46.44,547.27c-5.13-.85-9.1-2.98-13.98-4.47,3.48-10.88,4.99-22.76,8.88-32.92,5.15,1.07,9.49,2.99,14.66,4.42-4.34,10.69-6.16,21.87-9.56,32.97Zm25.41-93.9c-5.96,18.87-10.76,37.67-16.22,56.76l-12.73-3.36c-.17-.53-.41-1.28-.64-2.03l-.38,.21c6.16-22.12,13.38-43.82,18.05-66.35l14.91,3.93c-.95,3.62-1.5,7.43-2.99,10.83Zm10.23-35.67c-3.12,6.07-3.62,12.93-5.98,19.54l-14.78-3.9c7.27-25.57,12.55-51.77,20.96-76.9l15.57,4.1c-4.85,19.2-11.06,37.93-15.76,57.15Zm-14.93,117.2c-1.56,5.45-2.92,10.96-4.39,16.55l-13.61-3.59c2.48-11.25,6.4-21.57,9.41-32.64l13.31,3.51c-.66,5.57-3.17,10.73-4.72,16.16Zm19.8-70.34c-5.74,16.64-9.22,33.86-13.98,50.8l-14.91-3.93c6.35-22.9,13.34-45.27,19.38-68.25,16.62,1.87,14.19,7.99,9.51,21.39Zm18.71-65.24c-1.94,7.48-2.8,14.33-7.42,20.56-3.35,6.29-4.16,14.17-6.45,21.43l-12.96-3.42c7.45-25.52,14.88-50.8,21.58-76.58l14.91,3.93c-2.45,11.59-6.8,22.64-9.66,34.07Zm21.63-76.75c-3.35,13.25-7.68,25.87-11.04,39.15l-14.91-3.93c6.97-26.97,15.16-53.06,21.84-80.2,6.77,9.35,1.23,22.17,8.53,31.31-2.54,4.16-3.1,9.04-4.43,13.68Zm29.29-106.49c-8.95,28.66-15.45,58.07-23.48,87.02-.27,.03-.55,.05-.82,.08-2.51-21.47-1.91-30.83-25.4-37.35,5.91-23.87,12.89-46.75,19.39-70.49,11.45,2.66,22.06,6.31,33.46,9.39-1.03,3.92-1.54,7.89-3.15,11.35Zm-47.33,184.64c15.56-57.49,32.02-114.94,47.31-172.42,6.67,6,2.25,18.23,9.88,24.59-11.75,43.41-23.17,87.49-36.48,130.31-5.13,9.52-15.2,16.52-22.68,24.97,0-2.69,.74-5.2,1.97-7.44Zm-7.45,160.17c-10.39-.37-21.68-5.62-32.62-7.74,3.66-10.75,6.52-21.46,9.39-32.76,10.93,2.5,20.5,6.67,31.53,9.01l-8.3,31.5Zm15.8-54.95c-2.18,6.4-4.47,12.78-6.2,19.18-10.14-.48-21.4-5.86-31.85-8.17,3.36-9.66,4.04-21.53,8.87-30.03,10.2,4.57,21.16,5.74,31.92,9.13-.88,3.34-1.3,6.86-2.74,9.9Zm9.77-34.2c-3.24,6.66-3.57,14.43-6.44,20.99-11.16-2.4-21.57-6.5-32.72-9.32,4.03-9.2,5.67-19.53,8.6-29.54,10.36,3.87,21.69,6.15,32.91,9.28-.8,3.02-1.18,5.98-2.34,8.58Zm9.11-32.19c-2.74,6.76-3.92,13.23-5.92,20.36-11.44-2.51-21.45-6.34-32.68-9.42-.26-10.79,3.74-22.02,9.02-31.42,10.43,3.63,21.36,7.46,32.31,10.65-.86,3.27-1.27,6.81-2.74,9.83Zm-11.81-17.93c-5.16-2.47-9.96-3.47-15.5-5.27,3.94-3.98,7.46-7.54,11.18-11.3,13.94,6.42,29.27,8.88,44.16,13.21-1.14,4.85-3.45,8.39-4.32,13.42-12-2.95-23.73-6.52-35.52-10.06Zm19.97,134.57c-1.22,5.44-2.8,10.79-4.3,16.48-11.95-2.85-23.28-7.27-35.38-9.97l8.55-32.41c12.26,2.76,23.85,6.66,35.8,10.25-.48,5.51-3.46,10.31-4.66,15.65Zm1.25-20.13c-10.26-3.98-21.32-5.84-31.43-9.59,2.27-4.19,2.68-8.63,4.1-12.84,7.63,.37,21.83,9.23,26.48,4.66-7.55-3.82-17.27-3.48-24.89-7.97l3.53-13.4c22.41,6.77,45.19,12.37,67.56,19.2l-7.86,29.82c-12.5-3.28-24.98-6.61-37.48-9.88Zm34.74,18.1c-2.99,8.81-3.74,18.56-8.07,26.97l-28.17-7.43,8.52-32.33c10.16,2.37,19.52,5.52,29.63,8.29-.72,1.79-.62,3.36-1.91,4.5Zm11.51-41.96c-22.81-5.66-45.04-12.41-67.7-18.54,2.59-10.04,6.01-19.38,8.59-29.46,22.76,5.84,44.78,12.73,67.81,18.41-3.25,9.89-4.09,20.61-8.7,29.6Zm15.55-53.09c-1.6,7-4.72,12.91-6,20.26-22.96-5.57-45.07-12.38-67.89-18.74,1.41-4.58,2.03-9.39,4.69-13.78,16.9,7.75,18.74,.68,.48-2.67l3.4-12.88,67.97,17.92c-.86,3.27-1.62,6.62-2.64,9.89Zm12.78-51.6c-2.61-5.46,.38-22.49-4.48-24.03-1.86,9.43,2.23,18.36,1.5,27.81-65.27-16.09-40.68-5.55-28.35-65.86,6.14-22.79,13-45.31,18.72-68.24,1.46-3.82,1.52-9.16,3.74-12.21,5.12,2.16,12.73,1.56,16.24,5.55-9.67,25.43-13.42,53.37-22.43,79.08,4.37,7.37,11.2-31.08,12.68-34.93,24.09,3.56,13.42,9.74,11.19,28.67,.56,4.29-4.62,6.41-6.88,10.19-.69,5.6-5,13.06-3.85,17.94,3.73-7.1,2.88-17.46,10.09-23.01,11.42,31.03,60.89,37.28,49.59,79.65-19.66-5.19-38.83-9.96-57.98-15.98,.16-1.51,.8-3.05,.23-4.65Zm-1.82,25.74l16.6,4.38c1.7-.65,1.38-1.56,.64-2.72l-16.42-4.33,3.58-13.59c18.37,5.32,37.13,9.08,55.34,15.45,.14,10.79,5.7,21.89,2.52,32.47-22.45-5.48-43.95-12.68-66.46-18.22,.83-5.01,2.88-8.7,4.18-13.43Zm-11.63,157.05c-37.85-9.66-31.8-3.04-21.25-39.57l29.36,7.74c-.2,2.85-4.37,19.23-8.11,31.83Zm32.93,9.13c-3.22-.53-26.18-6.56-29.66-7.8l8.49-32.2c9.9,2.41,19.56,5.45,29.25,8.37-.24,2.9-5.06,21.74-8.08,31.63Zm13.31-34.3c-22.14-6.33-44.64-11.04-66.55-18.43,3.45-8.99,3.77-23.44,9.82-29.18,21.23,5.42,42.84,11.48,63.36,17.93,1.49,3.98-1.88,8.69-2.45,13.38l-24.27-6.4c-.66,.68-.6,1.5-.9,2.44,14.56,6.07,29.86-.52,20.99,20.26Zm9.01-34.08c-.98-.09-1.64,.29-2.07,1.25-20.48-8.33-42.68-12.12-64.09-18.37l8.03-30.47c21.75,5.56,43.13,12.36,64.9,17.81,2.15,9.3-5.08,20.18-6.78,29.78Zm16.24-56.64c-5.01,5.99-1.76,24.43-10.95,23.02-20.35-6.54-41.28-11.34-61.82-17.15l8.01-30.37c21.49,7.44,44.4,11.97,66.47,18.26-.58,2.2-.84,4.36-1.7,6.24Zm-.18,97.94c-7.58-1.67-14.24-4.32-21.78-6.3,1.02-4.41,2.25-8.64,3.35-13.01l21.99,5.8-3.56,13.51Zm4.34-16.43c-7.47-1.51-14.09-4.68-21.72-6.18l3.39-12.86,21.83,5.76-3.5,13.29Zm6.18-23.43c-.34,2.2-1.09,4.33-1.72,6.72-7.33-3.15-14.59-4.17-22.03-6.4,2.63-4.16,2.82-8.89,4.44-13.28,7.08,3.73,26.97,1.28,19.31,12.96Zm-14.91-29.11c6.99-.86,14.5,4.5,21.72,5.68l-3.59,13.6c-7.2-2.38-14.74-3.15-21.75-6.65,1.28-4.17,2.01-8.51,3.61-12.63Zm21.14,1.87c-30.53-6.88-16.82-10.14-12.13-34.34,3.64,3.83,25.94,33.66,26.85,38.03-4.95-.74-9.99-2.21-14.72-3.7Zm8.35,38.29l-12.97-3.42,8-30.34c3.91,1.58,9.5,1.36,12.43,4-.71,10.12-4.31,20.34-7.46,29.75Zm-22.3,29.54l7.83-29.71,13.46,3.55c-3.76,11.17-3.82,34.51-21.3,26.16Zm100.46-14.09c-9.5,4.39-20.95,17.45-30.56,16.57-.52,.75,.26,1.43,.07,2.49-23.02,10.77-43.61,26.47-66.3,38.57-10.28-11.91-5.28-25.93-2.09-39.59,4.23,1.62,7.75,1.45,11.72,.24,11.59-16.61,13.68-40.39,19.94-59.68,.44-18.8-18.08-32.08-27.17-47.39-3.22-2.53-2.8-6.17-1.31-10.11-.67-4.53-1.89-8.49-1.67-12.86-4.23-13.55,.14-27.02-2.27-40.61-3.36-30.5-59.02-37.58-47.11-71.38,.02-5.05,1.84-9.72,2.46-14.6,2.24,.3,.95-2.18,3.12-2.27-.96-1.39-1.65-2.4-2.38-3.46,6.2-18.87,11.21-38.32,17.33-57.38,1.22-8.57,6.84-16.02,4.37-24.85,17.71,7.71,25.26-.29,19.58-17.66-8.75-9.2-24.44-9.47-36.48-13.96-.48-8.73-2.4-16.85,1.38-24.95,2.06-3.13,6.62,3.09,11.85,2.72,30.44-3.38,35.55,26.14,46,47.88-1.16,11.94-7.48,22.56-8.82,34.51,1.96,14.31-3.5,28.23-.49,41.68,5.95,3.89,1.61,13.02,3.09,19.06,5.19,26.48,16.1,52.85,14.18,80.22-1.02-.12-1.79,.54-2.7,1.05-1.32-3.81-.78-8.01-2.31-11.83-1.79,2.88,.74,7.31,.7,10.72,.39,6.34-2.88,12.44-4,18.65,.59,.66,.63,1.69,1.52,2.12,.3-6.48,2.97-12.41,4.14-18.67,1.51,.07,2.45-.96,3.6-1.42,6.43,23.69,29.19,35.08,46.8,50.01-2.25,5.92-6.44,12.22-2.04,18.13-1.1,6.3-3.97,11.61-6.74,17.18,4.77,.98,4.98,.37,9.09,3.77,3.86,.94,5.5,2.79,4.77,6.9,.16,15.01,2.53,30.32,2.73,44.91-1.46,10.7-19.59,2.19-25.59,5.35,7.78-.02,19.8,4.14,25.4-1.73,2.38-3.75,1.54-10.36,1.29-14.94-2.85-12.94-1.79-26.81-2.82-40.04-3.84-.66-12.15-3.75-7.37-8.29-4.49-7.42,3.58-15.64,2.48-24.16-1.55,3.26-1.65,5.53-2.63,8.74-3.15-4.47,.05-10.9,2.74-14.39,40.28,37.07,5.55,54.5,24.76,91.48-.23,4.14-.71,8.88-2.25,13.22Zm13.71-25.62c17.38-5.94,33.68-25.55,51.63-24.66-.95,5.37-4.04,10.04-4.52,15.12l-29.49,17.18c-1.1-1.34-2.75-6.6-5.27-4.11-.13,2.31,3.31,4.19,2.45,6.51-6.5,4.76-12.93,7.49-19.84,1.35,1.74-3.75,4.55-6.9,5.04-11.39Zm4.83-15.2c5.53-31.51,15.43-17.44,38.23-12.42-14.12,7.42-27.29,17.79-41.63,22.77,.7-3.54,1.98-6.91,3.4-10.35Zm39.11,14.49c-.78,23.89-21.95,27.72-39.11,38.81-2.11-3.71-6.22-8.55-5.66-12.18,15.2-8.61,29.46-18.09,44.76-26.62Zm-50.69,18.6c2.13-.86,2.9,1.42,4.59,1.56-1.72,1.07-3.07,1.92-4.65,2.91,.02-1.5,.04-2.99,.06-4.47Zm25.32,63.64c-12.22-4.12-22.93-12.47-27.66-24.56-1.1-9.68-2.72-18.72,1.01-27.93,1.37,.21,2.26-1,3.68-1.44,9.65,13.52,6.82,36.76,27.87,39.21-1.69,5.14-2.1,10.17-4.91,14.71Zm17.44-54.43c-3.17,12.54-7.84,24.78-11.36,37.23-11.02-1.62-20.37-12.19-18.64-23.61,10.12-6.65,21.21-11.49,32.04-18.34-.92,2.01-.64,3.62-2.05,4.72Zm-13.09,54.61c7.76-28.71,18.47-56.49,25.83-85.25,16.58-9.88,32.39-19.62,49.15-29.17-1.59,7.41-3.08,14.79-4.8,22.08-8.37,3.47-17.14,5.62-24.42,10.81-3.07,9.36-5.8,18.99-8.23,28.62l2.59,.68c6.93-24.05,3.89-29.15,29.15-36.93-8.66,34.15-18.64,67.14-27.37,101.19l-15.43-4.07c.04-3.16,5.13-10.61-.11-10.77-1,3.56-2.8,6.65-3.45,10.6-7.47-2.21-15.17-2.88-22.36-5.87-.34-.7-.79-1.15-.57-1.94Zm30.07-98.21c1.31-6.15,4.57-11.69,5.25-17.94,10.09-1.75,21.76-8.74,27.62-17.05,6.4-19.53,10.65-39.32,16.97-58.87,5.15,1.93,11,1.62,15.2,5.03-24.34,75.45,.97,53.94-66.83,93.58,.04-1.9,1.24-2.97,1.8-4.74Zm15.48-53.53c3.78-15.2,8.71-30.03,12.74-45.11,6.02-.79,12.5,3.09,18.82,4.04-6.27,18.77-10.4,39.24-16.68,58.35-4.08,5.89-16.75,14.24-24.01,14.8,2.33-11.11,6.61-21.15,9.12-32.08Zm65.48,209.82c-7.45-3.56-15.53-4.14-23.51-4.66-10.86-2.4-22.13-7.05-33.38-9.68-16.32,.37-11.12,6.64-29.02-1.98-24.05-1.7-18.77-10.87-20.7-29.5,.73-3.8-1.09-6.46-3.99-8.63,30.47,7.41,60.6,18.05,91.46,25.13,26.39,11.22,34.47-2.4,25.37,31.78-2.21-1.08-4.63-.61-6.23-2.47Zm14.38-196.78c-9.69,35.87-19,72.12-28.58,108.12-5.77,1.05-12.43-4.18-18.82-4.62,16.1-37.09,6.89-94.43,49.92-109.89-1.24,2.33-.81,4.64-2.52,6.4Zm-29.71,112.39c-4.68,16.22-9.53,32.24-13.53,48.68-6.12-.59-12.48-3.26-18.78-4.58-.14-3.9,8.13-19.56,1.85-17.94l-4.51,17.12-15.52-4.09c3.92-16.78,9.37-32.93,13.73-49.64,5.6,.96,9.91,3.3,15.31,4.83l-5.6,21.23,2.61,.69,5.6-21.25,18.83,4.96Zm-20.53-9.77c-5.07-.99-10.1-2.65-15.37-3.93,5.84-22.14,11.66-44.25,17.51-66.39-.86-13.57,12.64-16.51,22.22-22.95,0,.09,0,.14,0,.17-6.98,30.23-16.07,62.62-24.35,93.1Zm50.52-88.31c4.16-23.46,8.05-24.75,27.61-36.69l-19.29,73.15c.57,2.01,1.09,2.28,2.55,1.31,4.44-17.96,10.77-35.43,14.75-53.53,1.06-19.73,9.63-26.38,26.43-34.31-8.75,33.93-16.81,67.91-26.13,101.72-12.53-3.59-24.71-7.32-37.45-10.48,3.12-14.15,8.24-27.2,11.51-41.18Zm11.53,105.38c-5.71-1.19-11.4-3-17.2-4.42l13.32-50.5,17.29,4.56-13.26,50.27s-.05,.05-.15,.09Zm-20.33-5.68c-5.53-.29-11.26-2.91-16.96-4.04l13.5-51.21c6.05,1.41,11.46,2.91,17.22,5.25-4.04,16.82-9.23,33.37-13.76,50Zm-26.58,32.22c2.69-11.12,5.8-21.82,8.64-32.99l16.77,4.42c-4.08,10.29-.02,14.68,2.23,1.9,5.71-1.91,12.29,2.82,18.48,3.49-3.58,16.84-9.94,32.88-13.56,49.8-6.64-1.53-11.99-3.39-18.17-5.49,8.27-18.26,.88-21.05-2.56-.75l-16.79-4.43c1.24-5.5,3.07-10.69,4.96-15.97Zm53.79-169.21c-20.38,12.78-41.32,23.86-62.21,35.99,.13-13.21,22.76-60.53,13.14-65.87-9.43-.36-32.99-13.54-39.95-6.72-8.61,29.16-16.23,59.5-25.29,88.41-4.44-.89-7.62-2.87-12.3-3.69,1.49-5.48,2.7-11.09,5.05-16.23q-1.24-1.73-3.22-1.05c-4.85,15.92-.08,18.51-17.89,12.35,2.76-13.36,10.34-27.77,10.45-40.9-.88-.33-1.21,.29-1.99,.53-2.49,11.99-7.34,23.63-9.97,35.71-.46,6.45-6.87,1.2-10.89,2.84-12.53-17.34-12.63-46.21-33.81-56.1-1.58,3.26,4.53,6.27,6.9,8.04,7.73,7.77,9.87,19.02,14.42,28.73,6.05,16.43,12.71,16.84,3.88,34.58-4.17,4.23-3.53,30.29-11.21,22.58-.77,4.53,5.96-.38,1.2,7.77-21.63-38.41,29.96-51.33-48.21-108.66-28.28-15.2-23.62-47.1-29.72-73.98-10.3-30.95-13.95-60.78,.98-90.45,20-41.97,22.31-45.54,3.81-88.53,1.73,.48,3.63,2.76,5.19,.68-.57-.52-1.34-.53-2.18-.03-.79-1.35-1.57-2.7-2.4-4.11-.24,.36-.47,.71-1.09,1.63-.53-12.45,6.44-23.61,5.12-36.18-.35-23.2-10.19-45.45,6.23-65.86,2.95-9.58,9.45-17.8,11.5-27.83,5.12-12.38,7.17-27.25,18.23-35.93,10.26-7.39,25.5-7.09,33.52-17.92,12.19-10.22,13.58-76.84,29.12-71.52l-5.04-1.33c1.7-6.48,6.1-11.35,8.07-17.74,4.13-6.39,7.17-13.56,8.33-21.35,5.55-.9,7.67-7.58,12.25-9.57,.23-.47,0-1.33,.99-1.13,19.13-18.95,53.17-17.77,57.95,13.45,1.29,5.74-22.96,26.49-15.8,27.47,4.2-7.56,9.75,.07,14.79,3.41-.47,9.7-10.51,20.2-3.75,28.6,11.83,2.74,9.4-14.25,12.98-21.59-2.51-7.96-11.47-11.69-17.66-16.38,1.71-6.27,7.6-10.92,10.77-16.67,11.45,12.67,27.89-.44,39.66-6.08,2.37,.64,3.08,2.79,4.83,4.04-2.34,8.65-19.66,17.53-18.55,25.65,7.45-5.89,13.52-15.18,20.52-21.89,3.19,4.38,.75,10,.15,15.33,2.47,5.53,9.47,11.82,6.06,18.23-.05,11.15,7.71,13.39,17.24,15.12,6.34,13.84-3.43,32.63,5.45,46.9,5.57,7.68,14.33,11.35,17.96,20.62-.53,4.05,2.23,8.16,.31,12.3-.36,1.19-1.14,2.44-.27,3.97-9.3,15.64-22.34,29.68-30.89,45.62-7.03,25.77-10.23,54.15-16.29,80.8-2.71,25.5-30.41,41.19-34.79,65.36-1.3,15.93,6.75,31.22,7.14,46.87-2.52,14.06,.09,28.98-3.71,42.63-4.89,11.34-8.47,23.3-13.78,34.24-6.73,19.51-15.14,37.79-21.98,57.18-4.44,7.37-13.15,12.66-14.71,21.51-3.14,10.23-5.64,20.72-10.05,30.13l2.37,.62c8.94-16.06,8.09-36.5,23.96-48.92,24.53,7.11,52.19,7.94,65.91,32.65-9.21,7.87-23.36,12.62-31.87,20.92,29.91-12.13,60.1-35.52,90.5-50.52,7.7,7.58-4.07,16.76-.53,24.78-14.72,9.07-30.22,17.24-44.91,26.47ZM502.5-82.54c8.69,.13-1,33.65-6.13,20.05,3.15-6.21,3.8-13.33,6.13-20.05Zm86.6,629.95c-4.19-2.01-15.61-1.12-15.41-6.4,4.52-16.03,7.77-32.37,13.32-48.02l15.48,4.08-13.25,50.25s-.04,.05-.14,.09Zm29.15-104.98c-5.73,16.92-9,34.4-14.78,51.28l-15.29-4.03c2.39-17.38,8.15-34.6,12.02-51.86,7.23-4.21,14.46-8.42,21.73-12.66,1.08,5.28-2.25,11.83-3.67,17.27Zm-8.8,108.94c-.64,.1-1.64,.14-2.23,.96l-15.36-4.05c5.3-16.77,7.27-34.4,14.36-50.29,5.35,2.91,11.62,3.43,17.6,5.33-5.38,15.72-6.29,33.64-14.37,48.05Zm23.94-81.62c-3.73,9.69-5.72,19.51-8.53,29.62l-18.15-4.79c5.29-23.9,14.72-47.14,18.7-71.12,7.74-3.89,15.13-10.42,22.82-12.76-3.86,19.85-9.96,39.36-14.84,59.05Zm33.72-103.68c8.02-25.29,13.17-51.45,21.4-76.53,4.99,.73,9.35,1.61,14.39,3.08-7.76,30.73-18.27,61.43-24.44,92.35-6.31,3.68-12.53,7.3-18.89,11.01-.16-.14,.98-1.11-.18-1.29,2.55-9.67,4.58-19.33,7.71-28.62Zm-9.87,97.01c-5.11,13.78-7.72,28.25-11.79,42.36l-17.3-4.56c3.92-16.85,9.81-33.23,13.72-50.23l17.5,4.61c-.71,2.7-1.06,5.43-2.13,7.82Zm11.37-42.93c-2.67,10.49-5.43,20.5-8.17,31.05l-17.28-4.56c2.21-12.77,7.84-25.44,8.55-38.31,7.16-3.37,13.78-12.49,22.83-7.98-1.72,6.63-3.47,13.38-5.93,19.79Zm-2.54,90.78l-18.04-4.76c4.03-16.92,9.71-33.18,13.88-50.03,5.73,.62,11.6,3.03,17.47,4.29l-13.31,50.5Zm14.17-53.65c-5.8-1.82-11.03-4.02-17.22-5.32,4.21-17.27,9.99-33.61,14.12-50.91,5.55,.68,10.22,4.15,15.62,4.5-1.28,16.77-8.98,34.45-12.52,51.73Zm16.95-63.94c-2.24,3.05-1.5,6.62-4.77,8.92-6.38-2.77-13.36-4.23-20.02-6.06,9.49-5.53,18.91-11.02,28.4-16.55l-3.61,13.69Zm10.2-35.89c-.67,15.26-14.2,18.88-25.47,25.79,7.26-30.11,16.53-59.6,24.25-89.7l17.4,4.59-13.93,52.82c-1.94,.83-3.59,.07-5.28-1.81-1.35,.48,.19,2.01,.33,2.55,1.42,1.57,3.16-.13,4.6,1.08-.7,1.5-.36,3.38-1.91,4.67ZM941.77-8.45l.83-3.16,10.38,2.74-3.25,12.32c-10.96-3.09-21.56-6.65-32.76-9.33,.48-4.51,3.44-8.22,3.83-12.76,3.78,.5,6.59,2.97,10.26,3.17l-1.23,4.66c4.02,.81,7.68,2.69,11.93,2.37Zm-9.21-6.5c2.01,.22,4.13,1.86,2.74,4.09l-3.59-.95c.07-1.04,.35-2.12,.85-3.14Zm4.61,2.94c2.15-2.57,7.2,.48,3.14,2.53-1.58-.59-4.24-.3-3.14-2.53Zm-17.01,109.36c-6.08,23.68-13.29,46.63-19.28,70.41-4.12,2.08-8.99-1.37-14.01-2.1,8.02-30.96,17.27-61.3,25.05-92.38l14.26,3.76c-1.43,7.06-4.67,13.29-6.02,20.31Zm17.91-64.86c-4.24,13.52-7.08,27.43-10.98,41.12l-14.26-3.76c5.8-22.8,13-44.84,18.54-67.67l14.16,3.73c-2.12,8.85-4.35,17.92-7.45,26.58Zm-66.39,177.76c-4.43,16.07-8.44,32.16-12.77,48.3-11.14,7.36-23.82,15.39-35.81,20.59,1.38-12.73,14.72-18.49,20.67-28.79,11.73-26.76,13.31-59.61,24.62-85.94l14.98,3.95c-3.34,14.16-8.47,27.74-11.7,41.9Zm-39.99,12.81c6.54-21.04,11.37-42.6,17.51-63.71l14.09,3.71c-5.13,22.48-10.39,45.14-17.07,67.21-1.68,14.16-8.99,24.65-19.59,33.94l-5.37-1.41c2.97-13.3,6.44-26.68,10.43-39.74Zm66.53-111.18c-4.48,17.84-9.33,35.22-13.95,53.1l-14.71-3.88c-.01-.94-.12-1.8-.96-2.42,7.98-30.28,17.12-59.94,25.29-90.16l15.44,4.07c-3.5,13.16-6.69,26.42-11.1,39.28Zm24.49-89.9c-4.25,15.76-8.34,31.5-12.51,47.3-5.65-1.01-10-3.1-15.37-4.82,6-22.42,12.55-44.74,18.61-67.06l15.33,4.04c-1.2,7.18-4.52,13.56-6.07,20.53Zm.61-61.94c-2.54,8.33-6.28,24.17-9.26,33.2-5.73-1.2-17.94-4.72-17.95-4.62l9.43-33.26,17.78,4.69Zm-52.72,44.05c2.78-5.39,3.14-11.47,5.35-17.32,11.52,3.13,23.05,5.7,34.08,9.54-5.67,23.11-13.1,44.92-18.61,67.96-6.45-.5-12.77-7.36-18.64-2.63-3.39,12.87-6.94,26.33-10.49,39.8,.15-.09,.29-.18,.44-.26,.1,.55,.21,1.1,.27,1.43,.92,.22,1.26-.37,1.79-.54l10.23-38.81c3.43-1.25,10.95,3.37,15.7,3.67-9.05,30.86-16.51,62.42-26.69,92.69l-13.96-3.68c-.15-3.99,8.86-22.19,2.54-20.48l-5.2,19.73c-15.98-2.96-13.81-3.62-18.99-17.69,19.16-12.14,19.02-37.93,25.58-57.69,7.5-24.8,16.14-49.93,16.61-75.71Zm-37.24,201.3c-4.73,18.82-9.95,37.55-14.8,56.35-4.61-.2-9.45-2.45-14.35-3.41,9.11-34.65,19.2-68.69,27.98-103.48l14.26,3.76c-4.16,15.68-8.01,31.39-13.08,46.79Zm-65.5,187.93c2.87-7.79,4.8-15.26,6.93-23.45,5.2,2.03,12.01,1.79,15.9,5.08-4.38,16.6-8.78,33.3-13.21,50.08-5.47-.72-11.09-2.9-16.83-4.18,2.4-9.21,4.97-18.29,7.2-27.53Zm-2.83-58.14c-.74,.42-1.4,1.07-2.75,1.01l6.65-25.23c8.06,1.35,16.06,3.35,23.9,6.01-.13,.65-.21,1.07-.43,2.12-9.32,4.69-18.05,11.19-27.38,16.1Zm3.93,43.69c-4.1,13.63-6.21,27.78-11.76,40.95l-16.61-4.38c4.2-17.23,9.99-33.62,14.16-50.8l17.33,4.57c-.34,3.36-2.09,6.36-3.12,9.66Zm-2.29-72.83c-6.16-2.15-12.33-2.1-18.3-4.21,4.15-17.34,10.12-33.62,14.12-50.93,5.69,2.12,13.07,2.18,17.81,5.46-5.07,16.39-9.15,32.68-13.63,49.68Zm-11.09,41.58c-.76,4.21-2.19,8.36-3.26,12.83-4.09-1.29-8.35-1.72-11.81-4.05,4.96-2.89,10.01-5.83,15.06-8.78Zm0,0c-.07-.13-.03-.08,0,0h0Zm17.57-134.59c4.05-19.29,3.91-16.06,21.61-11.27l-13.32,50.5-18.05-4.76c2.6-11.73,6.82-22.9,9.75-34.47Zm29.91-69.53c-2.39,.37-2.39,1.05-1.52,2.49l7.4,1.95-13.29,50.41-17.39-4.59c2.27-9.23,5.64-18.1,8.02-27.25q-1.63-.56-2.94,0c-2.02,9-5.83,17.55-7.7,26.67l-18.15-4.79c4.21-17.07,9.71-33.17,13.96-50.33,4.4-.47,23.73,10.38,22.8,3.7-6.47-2.65-14.8-4.18-21.91-6.24,.32-5.26,3.66-9.49,4.22-14.83,17.95,6.94,49.7,4.86,52.06,29.54l-25.56-6.74Zm-57.09,156.95l-17.39-4.59,13.3-50.44,18.04,4.76c-4.53,16.98-9.88,33-13.95,50.27Zm24.87-91.95c-3.09,12.85-6.76,25.41-10.03,38.26l-18.15-4.79c4.09-17,9.74-33.27,14.04-50.13l17.9,4.72c-.35,4.16-2.94,7.77-3.76,11.94Zm49.68-22.47c-6.24,18.63-10.48,37.91-15.71,56.87-3.51,17.72-3.79,14.73-19.79,10.37,8.51-34.62,17.72-69.3,27.72-103.55l15.98,4.21c-2.12,10.74-5.69,21.37-8.21,32.1Zm-33.07,125.36l-17.57-4.63c6.31-16.05,8.92-33.4,13.99-50.16,5.58,.6,10.35,3.97,16.11,4.63-4.75,16.81-7.84,33.29-12.53,50.16Zm-31.71,49.85c.76-16.6,12.93-21.87,26.06-28.88l-8.81,33.43-17.25-4.55ZM866.73,21.07c-7.13,27.36-15.36,53.96-22.17,81.51-8.93-2.2-17.17-4.36-25.67-7.48l21.87-82.95c4.22,.99,8.63,2.8,12.9,2.02,4.72,.56,8.11-3.23,12.81-3.7,.07,3.59-.03,7.1,.25,10.6Zm-77.23-51.46c.91-4.08,2.59-8.35,4.5-11.74,4.17-3.2,5.45-8.93,9.81-11.62,21.33,16.12,42.1,34.49,69.04,39.23-3.22,7.44-4.3,13.34-6.38,20.84-14.2,8.15-23.97,2.96-37.45-2.94-16.43-6.58-24.98-24.36-41.16-30.52,.85-.87,1.46-1.96,1.63-3.25Zm25.56,124.54c-58.48-7.33,23.58-70.09-37.57-81.26l9.35-35.45c8.87,.28,13.74,8.91,19.84,14.33,8.67,8.99,19.52,14.13,30.86,19.13-7.16,27.99-14.82,55.33-22.48,83.25Zm-46.3,18.95c-24.05-16.16-3.95-45.63-.64-67.66,4.14-9.13,4.96-19.64,8.58-28.7,11.02,1.44,21.3,7.37,22.31,19.33-19.2,61.07-12,54.71,44.7,69.74-2.6,11.16-7.3,21.92-16.62,28.74-17.01-12.52-39.92-11.29-58.33-21.46Zm-58.15,247.74l2.32-8.79c4.53,1.9,9.47,3.46,14.24,4.51-6.32,3.68-12.73,7.42-19.02,11.08,.18-2.14,1.76-4.42,2.45-6.8Zm40.85-163.15c-5.22,14.13-7.82,28.91-12.05,43.4-6.03-.76-11.18-4.21-17.4-4.98,4.87-16.94,9.78-33.13,13.94-50.24,6.06,.81,11.19,3.99,17.41,4.97-.63,2.4-.87,4.82-1.89,6.85Zm9.95-37.28c-7.78,19.39,1.58,31.82-24.43,21.95l13.14-49.85,18.05,4.76c-1.47,8.03-4.75,15.37-6.76,23.14Zm-73.88,356.11l-17.78-4.69c.24-2.82,9.71-39.44,13.06-50.39l18,4.74-13.27,50.33Zm8.67-106.34c.36-1.36,.63-2.74,2.07-3.77,4.95,3.05,11.3,3.27,16.86,5.2l-13.49,51.15-18.05-4.76c4.2-15.94,8.41-31.88,12.6-47.82Zm25-19.03c-2.39,5.53-3.44,11.3-5.06,17.06-25.36-2.31-15-14.58-10.4-31.91,7.33-4.27,14.55-8.48,22.09-12.87-1.55,9.4-3.72,18.68-6.63,27.71Zm7.84-37.55c-5.24-.9-9.81-3.86-15.3-4.62,5.27-16.45,7.08-34.1,14.26-49.69,12,3.77,25.39,7.09,37.47,10.75-2.2,9.71-5.12,19.43-7.51,28.97-9.51,3.97-18.69,14.24-28.92,14.59Zm1.29,8.59c6.23-5.38,13.52,.34,21.01,1.43-4.13,17.09-9.91,33.68-13.96,50.84-6.33-1.25-11.47-3.96-18.04-5.2,3.31-15.85,10.14-31.23,11-47.07Zm-22.1,159.72c-5.51,.79-11.91-4.07-18-4.55l13.32-50.51,17.95,4.73-13.27,50.32Zm20.02-75.37c-6.55,19.07,.63,25.36-23,17.18,1.17-16.51,10.01-33.57,13.02-50.46l18.15,4.79c-2.21,9.78-6.16,18.72-8.17,28.49Zm34.17,35.3c-5.65,17.73-8.7,36.51-17.27,52.91-7.8,31-13.25,68.45-48.27,79.41-2.09-9.99-4.16-19.91-6.34-30.36,9.75-11.97,10.73-28.3,15.67-42.75,11.99-40.6,21.44-81.6,33.58-122.17l16.65,4.39c-3.94,11.54,.05,12.14,3.51,.96l16.47,4.34c-4.36,17.69-8.72,35.76-14,53.26Zm41.26-150.88c-4.5,13.28-7.52,26.5-11.91,39.82l-16.11-4.25c4.65-12.28,4.48-28.11,12.05-38.52,5.88-1.25,14.75-13.67,19.02-8.35-1,3.79-1.66,7.68-3.05,11.31Zm4.41-21.01c-4.3,.78-7.29,3.9-11.3,5.45-1.75-2.15-5.53-1.06-6.65-3.5,4.33-16.42,8.68-32.91,13.06-49.53l20.24,5.34c-4.15,12.36-13.14,25.82-9.64,39.01-1.9,1.12-3.68,2.86-5.71,3.23Zm8.56-.93c6.12-2.92,12.2-5.1,17.96-8.9,2.21,1.8,5.1,12.35,7.85,7.61-12.24-12.89,9.55-15.37,17.73-22.56-14.96,44.94,3,48.4-48.2,33.37-.52-1.66-1.09-3.45-1.61-5.1,1.83-2.1,3.98-3.48,6.27-4.41Zm-45.43,224.15c-.99,2.14-.33,4.7-1.29,6.51-4.77,1.89-9.56,.38-14.11,.87-4.93-15.08,8.85-39.6,11.52-56.06l16.28,4.29c-4.09,14.8-7.38,29.9-12.41,44.38Zm17.87-65.26c-1.33,5.76-2.98,11.44-4.55,17.41l-16.11-4.25,13.42-50.91c5.46,.74,11.09,2.9,16.82,4.18-2.87,11.36-5.94,22.46-9.58,33.56Zm21.82-77.85c-4.84,13.35-7.39,27.13-11.34,40.89l-16.75-4.42,13.27-50.34,17.4,4.59c-.83,3.14-1.18,6.47-2.59,9.28Zm-8.35,111.25c-3.74,13.51-7.22,27.47-10.76,40.64-4.72,5.57-13.31-.32-18.51-2.95l13.08-49.6,18.76,4.95c-1.03,2.3-.75,4.93-2.56,6.97Zm7.35-28.24c-1.34,5.87-3.03,11.65-4.6,17.63l-18.15-4.79c5.38-16.94,9.73-33.96,14.2-51.22,5.24,3.85,11.77,3.53,17.89,5.78-2.74,11.09-5.82,21.79-9.33,32.6Zm6.18-91.62c5.38,2.45,13.7,.94,16.12,6.9-2.36,16.08-8.17,32.19-11.92,48.15l-18.19-4.8c4.54-16.89,9.99-33.02,13.99-50.25Zm26.7-30.86c-3.43,9.94-5.68,19.7-8.43,29.95-1.53-.35-2.09,.64-2.79,1.47-11.83-2.73-22.97-6.55-34.67-9.84,5.74-15.76,9.76-33.03,14.68-49.31,11.43,.75,23.7,6.17,35.47,8.54,.85,5.96-2.71,13.16-4.26,19.19Zm-18.85,145.07l-15.46-4.08c5.58-16.36,9.42-33.36,13.98-50.17l14.76,3.89-13.28,50.35Zm17.62-53.66c-5.72,1-12.18-2.97-18.04-4.6,3.66-16,9.86-31.49,12.08-47.62,1.7-6.47,13.77,1.94,19.24,1.85l-13.28,50.37Zm14.43-53.6c-30.05-2.4-12.61-20.08-9.19-39.39,4.05-20.52,4.84-16.42,23.18-11.58-4.34,17.25-9.12,33.85-14,50.97Zm-3.42-61.17c7.03-15.54,3.57-41,19.7-49.56,.41,1.38,1.97,1.95,2.49,3.45l9.32,2.46-13.31,50.47c-5.55-2.61-14.91-1.34-18.21-6.81Zm8.54,120.1c-5.9-1.42-10.86-3.3-17.07-3.62,4.48-17.36,8.79-33.71,14.06-50.45l16.59,4.37c-3.88,16.73-9.7,32.77-13.58,49.69Zm22.82-81.77c-3.44,9.36-5.19,19.17-8.27,28.76-5.86-1.03-10.82-3.41-16.45-5.06l13.31-50.46,17.39,4.59c-2.06,7.36-3.37,15.01-5.97,22.17Zm17.52-63.4c-2.87,12.94-7.62,24.97-10.68,37.91-6.25-1.23-11.36-3.28-17.32-5.31,4.26-17.08,9.17-33.31,13.9-50.35,6.35,1.39,11.36,3.25,17.3,5.11-.85,4.36-2.13,8.48-3.2,12.65Zm-8.57-37.01c7.92-4.09,14.87-8.55,23.02-12.39-3.98,10.69-6.42,21.95-9.46,33.13-18.54-5.71-46.13-6.27-13.57-20.73Zm-15.59,5.15c-19.91,11.46-39.11,24.72-59.95,34.54-3.82-7.95,2.5-14.77,4.16-22.44,13.77-4.61,28.09-13.65,39.84-22.62,7.82-30.24,16.46-60.81,24.91-90.78,3.56,2.15,9.88,1.93,12.04,5.54-4.78,31.03-24.17,65.35-21,95.75Zm29.46-56.66c-1.51,6.29-3.27,12.52-4.92,18.77-4.77,5.03-12.1,7.58-18.35,11.75,6.25-23.03,11.4-45.19,18.77-67.88,4.21-3,9.67,.9,14.65,1.59-3.06,12.06-6.33,23.95-10.16,35.77Zm35.22-127.91c-7.7,29.65-16.12,59.15-24.19,88.82-5.04-1.9-10.27-2.55-13.7-5.89,7.85-30.58,17.16-60.41,25.35-90.89,4.71,1.52,9.58,1.96,14.01,4.7-.53,.95-.12,2.31-1.47,3.26Zm21-74.63c-7.24,22.1-12.22,44.6-18.39,67.09l-14.26-3.76c4.51-17.13,15.42-54.05,18.38-67.09l14.27,3.76Zm-5.08-36c-.91,4.67-3.76,10.21-4.58,14.74-18.2-2.28-4.45-7.72-8.38-18.16l-.65-.17c1.99,5.49-1.24,10.35-2.7,15.14-7.2-1.67,2.21-6.03-8.94-6.51-.96,.86-.59,2.17-1.44,3.18-3.24-.96-6.73-1.37-9.84-3.77l4.94-18.72,33.18,8.75c-.84,2.89-1.46,5.04-1.58,5.52Z"/></g></g></svg>