<?xml version="1.0" encoding="UTF-8"?><svg id="Layer_1" xmlns="http://www.w3.org/2000/svg" viewBox="0 0 72.84 72.84"><defs><style>.cls-1{fill:#fff;}.cls-2{fill:#b3b3b3;}</style></defs><polygon class="cls-2" points="54.97 25.71 47.13 17.87 36.42 28.58 25.71 17.87 17.87 25.71 28.58 36.42 17.87 47.13 25.71 54.97 36.42 44.26 47.13 54.97 54.97 47.13 44.26 36.42 54.97 25.71"/><path class="cls-1" d="M36.42,.71C16.7,.71,.71,16.7,.71,36.42s15.99,35.71,35.71,35.71,35.71-15.99,35.71-35.71S56.14,.71,36.42,.71Zm0,63.32c-15.25,0-27.61-12.36-27.61-27.61S21.17,8.81,36.42,8.81s27.61,12.36,27.61,27.61-12.36,27.61-27.61,27.61Z"/></svg>